<svg width="370" height="238" viewBox="0 0 370 238" fill="none" xmlns="http://www.w3.org/2000/svg">
<path d="M215.999 132.08C225.659 141.687 246.337 150 246.337 150C246.337 150 253.949 129.635 247.227 122.661C238.505 113.612 201.216 101.927 207.768 122.221C209.297 126.959 212.432 128.532 215.999 132.08Z" fill="#E26554"/>
<path d="M231.273 90.1488C244.397 93.6658 263.884 104.1 263.884 104.1L241.197 113.617C241.197 113.617 218.853 103.274 222.737 93.7295C224.812 88.6299 227.312 89.087 231.273 90.1488Z" fill="#E26554"/>
<path d="M368.718 174.296C364.606 224.211 266.762 239.143 237.097 183.541C228.329 167.107 232.188 136.216 238.812 99.5214C245.188 64.2036 253.605 22.7803 281.999 20.5006C320.751 17.3892 345.098 28.5492 358.4 60.5139C371.183 91.2309 371.199 144.169 368.718 174.296Z" fill="#E26554"/>
<path d="M166.916 88.1858C152.804 89.2232 132.191 99.789 132.191 99.789C132.191 99.789 142.954 119.626 153 119.1C166.036 118.417 200.617 97.1142 180.252 88.438C175.498 86.4133 172.128 87.8019 166.916 88.1858Z" fill="#FDA094"/>
<path d="M186.223 117.126C172.134 115.801 150.052 122.79 150.052 122.79C150.052 122.79 157.363 144.141 167.357 145.294C180.325 146.79 217.969 131.538 199.331 119.594C194.98 116.806 191.426 117.615 186.223 117.126Z" fill="#FDA094"/>
<path d="M160.559 85.267C160.559 85.267 159.213 79.851 158.355 77.205C156.822 72.478 155.142 67.8 153.519 63.104C153.193 62.161 152.843 61.226 152.505 60.287C152.28 59.747 152.026 59.216 151.835 58.666C151.4 57.414 151 56.1545 150.586 54.8966C149.713 53.1031 148.855 51.302 147.961 49.5199C146.13 45.8575 144.413 42.131 142.402 38.5702C140.079 34.4593 137.234 30.695 133.948 27.285C133.679 27.0444 133.413 26.8035 133.144 26.5629L133.132 26.5423C132.248 25.9896 131.367 25.4397 130.318 24.7822C131.296 23.9927 131.771 23.6413 132.21 23.2468C135.785 20.0539 139.472 16.9617 141.814 12.6508C142.498 11.3933 143.221 10.1598 143.925 8.91593C144.265 7.11123 144.662 5.31343 144.933 3.49703C145.247 1.38753 144.378 0.205733 142.256 0.110833C139.641 -0.00666748 136.991 -0.0928686 134.4 0.187931C131.037 0.554431 128.089 2.22513 125.451 4.23193C122.731 6.29953 120.22 8.65113 117.703 10.969C116.902 11.7068 116.346 11.7399 115.315 11.3944C110.531 9.79483 105.735 8.20553 100.861 6.92543C97.5154 6.04743 94.0294 5.69903 90.6094 5.08603C83.5214 3.81033 76.4203 4.05203 69.3863 5.27523C66.2343 5.82363 63.1594 6.94093 60.1364 8.03983L59.9324 8.11383C56.9664 9.19293 54.0454 10.4478 51.2314 11.8753C49.2164 12.8977 47.4104 14.3314 45.5034 15.5699C45.2554 15.7312 44.9604 15.8256 44.6904 15.9517C43.3734 17.1475 42.0524 18.3375 40.7381 19.5361C35.5195 24.2959 31.2687 29.8268 27.6665 35.884C27.4643 36.2271 26.8488 36.6328 26.5551 36.5531C25.6189 36.2914 24.7454 35.8153 23.8456 35.4195C22.369 35.0652 20.8834 34.7459 19.4154 34.3534C17.9283 33.9566 16.4623 33.4894 14.9839 33.0545C14.4834 33.02 13.9795 32.9828 13.479 32.9484C13.3584 32.9541 13.2408 32.9595 13.1199 32.9621C12.2777 32.834 11.4354 32.706 10.5963 32.5776C10.0914 32.5933 9.58375 32.6124 9.07885 32.6281C7.00225 32.8364 4.92286 33.048 2.84616 33.2563C2.44986 33.3327 2.31348 33.4651 1.65676 33.4825C1.00003 33.5 0.3846 34.0948 0 34.3534C0.0723 34.8651 0.647358 35.2787 0.719658 35.7904C1.02486 36.0492 1.39696 36.261 1.62696 36.5769C4.73756 40.7965 8.38146 44.5004 12.8574 47.2242C14.8342 48.4271 17.1275 49.1854 19.3653 49.8529C20.8252 50.2897 22.4445 50.2012 24.27 50.375C24.1639 51.8178 24.029 53.3132 23.9536 54.8151C23.8493 56.904 23.7951 58.997 23.7034 61.088C23.5117 65.531 23.112 69.976 23.1747 74.416C23.2281 78.164 23.8119 81.903 24.16 85.647C24.2144 86.229 24.2752 86.813 24.35 87.57C23.0948 86.753 27.0694 121.234 26.0993 120.534C25.7192 125.587 26.0897 128.42 26.0289 133.496C26.008 135.328 25.9625 137.163 25.8261 138.991C25.5607 142.5 25.2387 146.002 24.898 149.503C24.6818 151.718 24.6948 154.019 24.0634 156.12C22.8103 160.292 21.2699 164.387 19.6889 168.449C17.2534 174.711 14.8371 180.946 13.2076 187.504C12.1002 191.957 11.1837 196.422 10.7642 200.95C10.2727 206.228 10.206 211.591 12.2324 216.629C13.118 218.831 14.3423 221.003 15.8572 222.814C17.1362 224.344 19.1217 225.257 20.6784 226.579C23.8969 229.312 27.6136 230.483 31.7533 230.086C34.1296 229.861 36.5431 229.476 38.8083 228.755C41.3317 227.949 43.7574 226.793 46.1594 225.648L46.4364 225.516C48.8334 224.372 51.0214 222.584 53.5254 221.898C59.1254 220.366 64.5783 221.157 69.2893 224.777C71.5353 226.504 73.3894 228.731 75.5734 230.548C78.4034 232.903 81.6434 234.503 85.1874 235.65C90.3934 237.339 95.6813 237.562 101.031 237.114C102.997 236.948 104.924 236.329 106.868 235.916C107.017 235.883 107.169 235.849 107.314 235.798C110.007 234.879 112.665 233.827 115.405 233.075C117.85 232.405 119.925 231.174 121.775 229.556C126.789 225.174 131.807 220.807 137.896 217.94C140.429 216.749 143.047 215.704 145.95 216.032C148.376 216.308 150.79 216.651 153.212 216.946C155.272 217.199 157.333 217.493 159.399 217.655C163.313 217.961 167.238 218.474 171.145 218.362C174.304 218.27 177.438 217.389 180.585 216.858L180.582 216.861L180.588 216.857L180.585 216.858L181.181 216.224L181.183 216.221C181.562 215.872 181.938 215.525 182.317 215.176L182.32 215.173C182.51 214.959 182.703 214.744 182.893 214.529L182.913 214.515L184.244 213.078C184.244 213.078 184.242 213.08 184.241 213.082L184.247 213.075L184.244 213.078C184.63 212.556 185.015 212.035 185.404 211.513L185.429 211.482L186.445 210.068C187.56 207.587 188.945 205.188 189.722 202.607C190.732 199.251 190.675 195.777 189.265 192.449C186.23 185.286 181.47 179.309 176.235 173.684C175.411 172.796 174.107 172.366 173.245 171.5C172.296 170.547 171.373 169.439 170.849 168.22C169.685 165.532 168.757 162.744 167.773 159.982C165.627 153.959 164.396 147.727 164.075 141.361C163.859 137.064 164.084 132.741 164.159 128.431C164.174 127.584 164.408 126.744 164.542 125.901C164.677 125.058 160.559 85.267 160.559 85.267Z" fill="#FDA094"/>
<path d="M126.801 120.759C129.493 120.011 131.612 118.308 133.352 116.292C134.654 114.785 135.245 112.779 135.734 110.773C136.271 108.577 136.12 106.419 135.965 104.238C135.89 103.187 133.541 101.158 132.333 100.808C129.429 99.9714 126.703 100.571 123.908 101.437C122.024 102.02 119.993 102.13 118.029 102.461C117.328 102.58 116.603 102.913 115.932 102.82C114.068 102.563 112.239 102.051 110.371 101.799C108.832 101.593 107.236 101.407 105.717 101.607C104.593 101.754 103.231 102.265 102.539 103.088C101.077 104.829 100.107 106.854 99.7589 109.26C99.2117 113.053 100.977 115.536 103.696 117.684C106.413 119.833 109.654 120.973 112.851 122.049C114.452 122.588 116.345 122.379 118.096 122.305C119.976 122.225 121.855 121.972 123.713 121.668C124.769 121.497 125.775 121.072 126.801 120.759Z" fill="#010101"/>
<path d="M139.006 34.7419C139.275 34.9823 139.541 35.2229 139.81 35.4632C139.541 35.2229 139.272 34.9826 139.006 34.7419Z" fill="#C6C6C7"/>
<path d="M99.826 86.6935L99.939 86.7325L100.055 86.7115C100.437 86.8725 100.817 87.0375 101.199 87.1985C101.538 87.1955 101.876 87.1935 102.215 87.1945C103.944 87.2405 105.67 87.2905 107.399 87.3375C108.298 87.2485 109.196 87.1595 110.094 87.0685C111.774 86.6785 113.457 86.2885 115.137 85.9015C115.49 85.8355 115.845 85.7725 116.202 85.7065C116.936 85.4385 117.674 85.1725 118.409 84.9045C118.577 84.8725 118.745 84.8405 118.909 84.8085C119.513 84.5345 120.117 84.2635 120.72 83.9895C123.511 83.1485 125.804 81.4115 127.923 79.5585C133.045 75.0815 135.933 69.1825 137.334 62.6746C138.297 58.208 137.94 53.6542 136.365 49.2177C133.713 41.7465 128.137 37.2578 121.392 33.8043C116.964 31.5356 112.273 30.6538 107.385 31.1212C102.319 31.6062 97.812 33.636 93.97 36.9797C91.363 39.2474 88.744 41.5412 86.423 44.0884C83.774 46.991 82.024 50.5972 81.378 54.4049C80.67 58.5636 80.969 62.7844 82.17 66.9905C83.286 70.8945 85.059 74.3365 87.508 77.4615C90.217 80.9195 93.643 83.5515 97.521 85.5975C97.941 85.8205 98.402 85.9645 98.843 86.1445C99.171 86.3265 99.497 86.5115 99.826 86.6935ZM133.781 51.9679C133.939 52.0517 134.226 52.1228 134.236 52.2244C134.443 54.0432 134.62 55.862 134.778 57.6857C134.786 57.7657 134.523 57.8663 134.389 57.9572C134.403 58.7294 134.569 59.5332 134.406 60.2671C133.558 64.1072 131.635 67.3545 128.706 69.9675C125.911 72.4625 122.762 74.1775 119.112 75.3245C116.243 76.2235 113.466 76.2555 110.755 75.7405C107.994 75.2145 105.476 73.7545 103.269 71.8285C98.601 67.7565 95.621 62.8406 95.261 56.5566C95.163 54.845 95.344 53.1214 95.382 51.4025C95.442 48.6127 96.589 46.163 97.877 43.7925C100.038 39.8164 103.176 36.9152 107.354 35.0266C110.144 33.7691 113.001 33.4682 115.888 33.9132C118.825 34.3655 121.395 35.8795 123.716 37.735C126.304 39.8065 129.013 41.7572 130.9 44.5659C131.133 44.8163 131.366 45.0667 131.599 45.314C131.674 45.5116 131.749 45.7061 131.821 45.9041C132.033 46.1907 132.245 46.4774 132.456 46.761C132.538 47.1475 132.619 47.531 132.698 47.9178C132.913 48.1793 133.265 48.4117 133.319 48.7046C133.529 49.7869 133.637 50.8823 133.781 51.9679Z" fill="#FEFEFE"/>
<path d="M115.13 85.9025C113.45 86.2925 111.768 86.6825 110.088 87.0685C111.768 86.6825 113.45 86.2925 115.13 85.9025Z" fill="#C6C6C7"/>
<path d="M107.393 87.3385C105.664 87.2915 103.938 87.2415 102.209 87.1945C103.938 87.2415 105.667 87.2915 107.393 87.3385Z" fill="#C6C6C7"/>
<path d="M118.404 84.9085C117.669 85.1765 116.931 85.4425 116.196 85.7105C116.931 85.4425 117.669 85.1735 118.404 84.9085Z" fill="#C6C6C7"/>
<path d="M120.717 83.9935C120.114 84.2675 119.51 84.5385 118.906 84.8125C119.507 84.5385 120.114 84.2675 120.717 83.9935Z" fill="#C6C6C7"/>
<path d="M101.196 87.1985C100.814 87.0375 100.434 86.8735 100.052 86.7125C100.434 86.8765 100.814 87.0375 101.196 87.1985Z" fill="#C6C6C7"/>
<path d="M99.825 86.6945C99.5 86.5115 99.171 86.3265 98.845 86.1445C99.171 86.3265 99.497 86.5125 99.825 86.6945Z" fill="#C6C6C7"/>
<path d="M130.901 44.5732C129.011 41.7648 126.301 39.8141 123.717 37.7423C121.399 35.8866 118.826 34.3729 115.889 33.9205C113.002 33.4756 110.145 33.7765 107.355 35.0339C103.176 36.9195 100.039 39.8207 97.878 43.7998C96.59 46.1703 95.443 48.617 95.383 51.4099C95.345 53.1287 95.164 54.8554 95.261 56.5639C95.621 62.848 98.602 67.7635 103.27 71.8355C105.477 73.7615 107.995 75.2215 110.756 75.7475C113.463 76.2625 116.244 76.2305 119.113 75.3315C122.763 74.1885 125.914 72.4695 128.706 69.9755C131.636 67.3585 133.558 64.1145 134.406 60.2744C134.567 59.5409 134.403 58.7368 134.39 57.9676C134.288 57.2196 134.255 56.4522 134.059 55.7259C133.922 55.2206 133.565 54.7744 133.307 54.3027C133.136 55.1803 133.13 56.1315 132.77 56.919C130.297 62.3613 124.347 64.3162 119.605 62.2246C115.258 60.3052 111.871 57.3122 109.966 52.6846C108.984 50.2991 108.738 47.9932 109.731 45.8725C112.186 40.6246 117.864 39.0072 122.701 41.1081C125.171 42.1814 127.303 44.0401 129.589 45.5417C130.144 46.2574 130.7 46.973 131.255 47.6918C131.304 47.8392 131.353 47.9866 131.402 48.134C131.62 48.4604 131.839 48.7868 132.058 49.1132C132.017 49.2042 132.037 49.2799 132.12 49.3369C132.316 48.8701 132.513 48.4033 132.706 47.9368C132.624 47.5503 132.543 47.1669 132.464 46.7801C132.252 46.4934 132.041 46.2067 131.829 45.9231C131.754 45.7255 131.679 45.531 131.606 45.3331C131.366 45.071 131.134 44.8236 130.901 44.5732ZM103.077 48.7793C104.851 48.5947 106.291 49.5492 107.354 51.1872C108.244 52.5595 107.726 53.9809 106.175 54.4138C104.745 54.8129 101.586 52.711 101.769 51.2698C101.897 50.3002 102.721 49.4234 103.077 48.7793ZM101.842 58.9835C102.678 58.0775 103.307 57.1144 104.186 56.518C105.331 55.7431 106.196 56.5773 106.796 57.5246C107.032 57.899 107.248 58.6017 107.06 58.878C106.037 60.4022 104.736 60.6022 103.146 59.6376C102.862 59.4668 102.548 59.3363 101.842 58.9835Z" fill="#010101"/>
<path d="M133.303 54.2927C133.561 54.7643 133.922 55.2102 134.056 55.7189C134.252 56.4452 134.285 57.2126 134.386 57.9606C134.523 57.8663 134.784 57.766 134.776 57.686C134.62 55.862 134.441 54.0436 134.233 52.2248C134.223 52.1232 133.937 52.0552 133.779 51.9682C133.561 52.1172 133.343 52.2692 133.124 52.4182C133.189 53.0425 133.248 53.6674 133.303 54.2927Z" fill="#FDA094"/>
<path d="M133.13 52.4185C133.348 52.2696 133.566 52.1175 133.784 51.9686C133.64 50.883 133.532 49.7876 133.326 48.7112C133.269 48.4216 132.92 48.1858 132.704 47.9244C132.508 48.3912 132.312 48.8579 132.119 49.3244C132.454 50.357 132.792 51.3862 133.13 52.4185Z" fill="#1F2247"/>
<path d="M131.825 45.9106C132.037 46.1973 132.249 46.484 132.46 46.7676C132.249 46.484 132.037 46.1973 131.825 45.9106Z" fill="#1F2247"/>
<path d="M130.902 44.5721C131.134 44.8222 131.367 45.0723 131.599 45.3194C131.367 45.0693 131.134 44.8222 130.902 44.5721Z" fill="#1F2247"/>
<path d="M133.13 52.4186C132.792 51.3863 132.454 50.357 132.116 49.3247C132.033 49.2677 132.013 49.192 132.057 49.1037C131.838 48.7774 131.62 48.451 131.401 48.1246C131.352 47.9772 131.303 47.8297 131.255 47.6823C130.699 46.9667 130.144 46.251 129.588 45.5323C127.302 44.0306 125.174 42.1717 122.7 41.0987C117.863 38.9978 112.185 40.6182 109.73 45.863C108.737 47.9869 108.984 50.2897 109.965 52.6752C111.87 57.3059 115.257 60.2989 119.604 62.2153C124.347 64.3098 130.296 62.3519 132.769 56.9096C133.129 56.119 133.135 55.1708 133.306 54.2933C133.247 53.6683 133.189 53.0435 133.13 52.4186Z" fill="#FEFEFE"/>
<path d="M103.077 48.7778C102.721 49.4219 101.897 50.2987 101.772 51.268C101.589 52.7092 104.748 54.8111 106.178 54.412C107.726 53.9763 108.244 52.558 107.357 51.1854C106.294 49.5474 104.852 48.5963 103.077 48.7778Z" fill="#FEFEFE"/>
<path d="M101.842 58.9828C102.548 59.3356 102.862 59.4631 103.147 59.6369C104.736 60.6015 106.037 60.4015 107.061 58.8774C107.248 58.601 107.032 57.8984 106.797 57.524C106.197 56.5766 105.328 55.7427 104.187 56.5173C103.311 57.1165 102.682 58.0796 101.842 58.9828Z" fill="#FEFEFE"/>
<path d="M129.588 45.5313C130.143 46.247 130.699 46.9657 131.255 47.6814C130.699 46.9657 130.143 46.247 129.588 45.5313Z" fill="#1F2247"/>
<path d="M131.398 48.1234C131.617 48.4498 131.835 48.7762 132.054 49.1026C131.835 48.7762 131.617 48.4498 131.398 48.1234Z" fill="#1F2247"/>
<path d="M139.006 34.7419C139.275 34.9823 139.541 35.2229 139.81 35.4632C139.541 35.2229 139.272 34.9826 139.006 34.7419Z" fill="#C6C6C7"/>
<path d="M115.13 85.9025C113.45 86.2925 111.768 86.6825 110.088 87.0685C111.768 86.6825 113.45 86.2925 115.13 85.9025Z" fill="#C6C6C7"/>
<path d="M107.393 87.3385C105.664 87.2915 103.938 87.2415 102.209 87.1945C103.938 87.2415 105.667 87.2915 107.393 87.3385Z" fill="#C6C6C7"/>
<path d="M118.404 84.9085C117.669 85.1765 116.931 85.4425 116.196 85.7105C116.931 85.4425 117.669 85.1735 118.404 84.9085Z" fill="#C6C6C7"/>
<path d="M120.717 83.9935C120.114 84.2675 119.51 84.5385 118.906 84.8125C119.507 84.5385 120.114 84.2675 120.717 83.9935Z" fill="#C6C6C7"/>
<path d="M101.196 87.1985C100.814 87.0375 100.434 86.8735 100.052 86.7125C100.434 86.8765 100.814 87.0375 101.196 87.1985Z" fill="#C6C6C7"/>
<path d="M99.825 86.6945C99.5 86.5115 99.171 86.3265 98.845 86.1445C99.171 86.3265 99.497 86.5125 99.825 86.6945Z" fill="#C6C6C7"/>
<path d="M133.303 54.2927C133.561 54.7643 133.922 55.2102 134.056 55.7189C134.252 56.4452 134.285 57.2126 134.386 57.9606C134.523 57.8663 134.784 57.766 134.776 57.686C134.62 55.862 134.441 54.0436 134.233 52.2248C134.223 52.1232 133.937 52.0552 133.779 51.9682C133.561 52.1172 133.343 52.2692 133.124 52.4182C133.189 53.0425 133.248 53.6674 133.303 54.2927Z" fill="#FDA094"/>
<path d="M133.13 52.4185C133.348 52.2696 133.566 52.1175 133.784 51.9686C133.64 50.883 133.532 49.7876 133.326 48.7112C133.269 48.4216 132.92 48.1858 132.704 47.9244C132.508 48.3912 132.312 48.8579 132.119 49.3244C132.454 50.357 132.792 51.3862 133.13 52.4185Z" fill="#1F2247"/>
<path d="M131.825 45.9106C132.037 46.1973 132.249 46.484 132.46 46.7676C132.249 46.484 132.037 46.1973 131.825 45.9106Z" fill="#1F2247"/>
<path d="M130.902 44.5721C131.134 44.8222 131.367 45.0723 131.599 45.3194C131.367 45.0693 131.134 44.8222 130.902 44.5721Z" fill="#1F2247"/>
<path d="M103.077 48.7778C102.721 49.4219 101.897 50.2987 101.772 51.268C101.589 52.7092 104.748 54.8111 106.178 54.412C107.726 53.9763 108.244 52.558 107.357 51.1854C106.294 49.5474 104.852 48.5963 103.077 48.7778Z" fill="#FEFEFE"/>
<path d="M101.842 58.9828C102.548 59.3356 102.862 59.4631 103.147 59.6369C104.736 60.6015 106.037 60.4015 107.061 58.8774C107.248 58.601 107.032 57.8984 106.797 57.524C106.197 56.5766 105.328 55.7427 104.187 56.5173C103.311 57.1165 102.682 58.0796 101.842 58.9828Z" fill="#FEFEFE"/>
<path d="M129.588 45.5313C130.143 46.247 130.699 46.9657 131.255 47.6814C130.699 46.9657 130.143 46.247 129.588 45.5313Z" fill="#1F2247"/>
<path d="M131.398 48.1234C131.617 48.4498 131.835 48.7762 132.054 49.1026C131.835 48.7762 131.617 48.4498 131.398 48.1234Z" fill="#1F2247"/>
<path d="M354.316 160.227C351.022 199.043 272.785 210.669 249.072 167.434C242.063 154.655 245.153 130.632 250.454 102.095C255.557 74.6288 257.958 42.9793 280.662 41.2025C280.662 41.2025 294.768 40.4273 296.644 58.7682C313.221 24.3994 338.075 43.3035 348.293 67.1892C358.51 91.075 356.303 136.798 354.316 160.227Z" fill="white"/>
<path d="M253.504 205.71C250.655 206.221 248.27 208.015 246.231 210.261C244.705 211.94 243.841 214.356 243.082 216.787C242.25 219.449 242.124 222.171 242.001 224.923C241.942 226.25 244.081 229.159 245.271 229.788C248.13 231.294 250.994 230.974 253.963 230.334C255.964 229.903 258.055 230.087 260.105 229.984C260.837 229.947 261.621 229.645 262.295 229.867C264.167 230.483 265.97 231.413 267.847 232.022C269.394 232.524 271.001 233.009 272.58 233C273.747 232.994 275.205 232.57 276.019 231.65C277.739 229.705 278.993 227.324 279.658 224.372C280.709 219.713 279.226 216.329 276.724 213.212C274.224 210.095 271.059 208.156 267.931 206.304C266.365 205.377 264.402 205.339 262.602 205.154C260.67 204.956 258.717 204.976 256.779 205.062C255.677 205.11 254.594 205.481 253.504 205.71Z" fill="#FEC534"/>
<path d="M329.504 205.71C326.655 206.221 324.27 208.015 322.231 210.261C320.705 211.94 319.841 214.356 319.082 216.787C318.25 219.449 318.124 222.171 318.001 224.923C317.942 226.25 320.081 229.159 321.271 229.788C324.13 231.294 326.994 230.974 329.963 230.334C331.964 229.903 334.055 230.087 336.105 229.984C336.837 229.947 337.621 229.645 338.295 229.867C340.167 230.483 341.97 231.413 343.847 232.022C345.394 232.524 347.001 233.009 348.58 233C349.747 232.994 351.205 232.57 352.019 231.65C353.739 229.705 354.993 227.324 355.658 224.372C356.709 219.713 355.226 216.329 352.724 213.212C350.224 210.095 347.059 208.156 343.931 206.304C342.365 205.377 340.402 205.339 338.602 205.154C336.67 204.956 334.717 204.976 332.779 205.062C331.677 205.11 330.594 205.481 329.504 205.71Z" fill="#FEC534"/>
<path d="M267.38 81.5493C268.803 79.9536 270.699 78.9369 272.522 77.8379C274.156 76.8536 275.933 76.0956 277.873 76.0113C279.779 75.9283 281.613 76.2999 283.337 77.2529C285.92 78.6816 287.756 80.6639 288.883 83.2423C289.555 84.7783 290.13 86.3517 289.974 88.0656C289.88 89.1211 289.877 90.1903 289.694 91.2294C289.024 95.0538 286.745 97.8683 283.429 100.056C281.863 101.09 280.125 101.819 278.295 101.959C276.501 102.098 274.697 101.895 272.896 101.157C270.605 100.217 268.678 98.9582 267.037 97.2473C265.317 95.4529 264.294 93.3403 264.01 90.9335C263.958 90.4741 264.119 89.9924 264.182 89.5219C264.3 89.0703 264.375 88.6032 264.552 88.1714C264.677 87.8703 264.94 87.6209 265.14 87.3491C265.19 87.8979 265.127 88.4802 265.307 88.986C266.534 92.481 270.263 94.068 273.489 93.0986C276.445 92.2083 278.854 90.598 280.414 87.8893C281.217 86.4932 281.538 85.0974 281.041 83.7337C279.811 80.3593 276.236 78.9964 272.947 79.9655C271.268 80.4606 269.754 81.4588 268.165 82.2284C267.754 82.6301 267.344 83.0319 266.932 83.4356C266.891 83.5226 266.849 83.6097 266.807 83.6967C266.642 83.8823 266.478 84.0678 266.313 84.2533C266.333 84.3117 266.314 84.3567 266.256 84.3862C266.161 84.0875 266.066 83.7888 265.973 83.4904C266.053 83.2591 266.133 83.0297 266.211 82.798C266.368 82.6364 266.526 82.4746 266.683 82.3149C266.746 82.1989 266.808 82.0846 266.868 81.9682C267.043 81.8235 267.211 81.6873 267.38 81.5493ZM285.159 85.9502C284.02 85.7207 283.019 86.2108 282.214 87.1443C281.54 87.9263 281.778 88.8303 282.755 89.1968C283.657 89.5357 285.855 88.4553 285.836 87.5607C285.82 86.9585 285.346 86.3679 285.159 85.9502ZM285.252 92.2797C284.772 91.6698 284.43 91.0384 283.9 90.6161C283.211 90.0664 282.591 90.5206 282.136 91.0608C281.956 91.275 281.767 91.6913 281.869 91.8728C282.428 92.8732 283.26 93.0805 284.359 92.5945C284.555 92.5085 284.769 92.4491 285.252 92.2797Z" fill="#010101"/>
<path d="M314.38 82.5493C315.803 80.9536 317.699 79.9369 319.522 78.8379C321.156 77.8536 322.933 77.0956 324.873 77.0113C326.779 76.9283 328.613 77.2999 330.337 78.2529C332.92 79.6816 334.756 81.6639 335.883 84.2423C336.555 85.7783 337.13 87.3517 336.974 89.0656C336.88 90.1211 336.877 91.1903 336.694 92.2294C336.024 96.0538 333.745 98.8683 330.429 101.056C328.863 102.09 327.125 102.819 325.295 102.959C323.501 103.098 321.697 102.895 319.896 102.157C317.605 101.217 315.678 99.9582 314.037 98.2473C312.317 96.4529 311.294 94.3403 311.01 91.9335C310.958 91.4741 311.119 90.9924 311.182 90.5219C311.3 90.0703 311.375 89.6032 311.552 89.1714C311.677 88.8703 311.94 88.6209 312.14 88.3491C312.19 88.8979 312.127 89.4802 312.307 89.986C313.534 93.481 317.263 95.068 320.489 94.0986C323.445 93.2083 325.854 91.598 327.414 88.8893C328.217 87.4932 328.538 86.0974 328.041 84.7337C326.811 81.3593 323.236 79.9964 319.947 80.9655C318.268 81.4606 316.754 82.4588 315.165 83.2284C314.754 83.6301 314.344 84.0319 313.932 84.4356C313.891 84.5226 313.849 84.6097 313.807 84.6967C313.642 84.8823 313.478 85.0678 313.313 85.2533C313.333 85.3117 313.314 85.3567 313.256 85.3862C313.161 85.0875 313.066 84.7888 312.973 84.4904C313.053 84.2591 313.133 84.0297 313.211 83.798C313.368 83.6364 313.526 83.4746 313.683 83.3149C313.746 83.1989 313.808 83.0846 313.868 82.9682C314.043 82.8235 314.211 82.6873 314.38 82.5493ZM332.159 86.9502C331.02 86.7207 330.019 87.2108 329.214 88.1443C328.54 88.9263 328.778 89.8303 329.755 90.1968C330.657 90.5357 332.855 89.4553 332.836 88.5607C332.82 87.9585 332.346 87.3679 332.159 86.9502ZM332.252 93.2797C331.772 92.6698 331.43 92.0384 330.9 91.6161C330.211 91.0664 329.591 91.5206 329.136 92.0608C328.956 92.275 328.767 92.6913 328.869 92.8728C329.428 93.8732 330.26 94.0805 331.359 93.5945C331.555 93.5085 331.769 93.4491 332.252 93.2797Z" fill="#010101"/>
<path d="M296.568 104.406C294.694 104.698 293.125 105.723 291.783 107.007C290.779 107.966 290.211 109.347 289.711 110.735C289.164 112.256 289.082 113.812 289.001 115.385C288.962 116.143 290.369 117.805 291.152 118.165C293.032 119.025 294.917 118.842 296.87 118.476C298.186 118.23 299.562 118.336 300.911 118.277C301.393 118.256 301.908 118.083 302.352 118.209C303.583 118.562 304.77 119.093 306.005 119.442C307.022 119.729 308.079 120.005 309.118 120C309.886 119.997 310.845 119.754 311.381 119.228C312.512 118.117 313.337 116.756 313.775 115.07C314.466 112.407 313.49 110.474 311.844 108.692C310.2 106.912 308.118 105.803 306.06 104.746C305.029 104.215 303.738 104.194 302.554 104.089C301.283 103.975 299.997 103.986 298.723 104.036C297.998 104.062 297.285 104.275 296.568 104.406Z" fill="#FEC534"/>
</svg>
