<svg width="514" height="366" viewBox="0 0 514 366" fill="none" xmlns="http://www.w3.org/2000/svg">
<path d="M218.978 128.978C218.978 128.978 217.632 123.562 216.774 120.916C215.241 116.189 213.561 111.511 211.938 106.815C211.612 105.872 211.262 104.937 210.924 103.998C210.699 103.458 210.445 102.927 210.254 102.377C209.819 101.125 209.419 99.8655 209.005 98.6076C208.132 96.8141 207.274 95.013 206.38 93.2309C204.549 89.5685 202.832 85.842 200.821 82.2812C198.498 78.1703 195.653 74.406 192.367 70.996C192.098 70.7554 191.832 70.5145 191.563 70.2739L191.551 70.2533C190.667 69.7006 189.786 69.1507 188.737 68.4932C189.715 67.7037 190.19 67.3523 190.629 66.9578C194.204 63.7649 197.891 60.6727 200.233 56.3618C200.917 55.1043 201.64 53.8708 202.344 52.6269C202.684 50.8222 203.081 49.0244 203.352 47.208C203.666 45.0985 202.797 43.9167 200.675 43.8218C198.06 43.7043 195.41 43.6181 192.819 43.8989C189.456 44.2654 186.508 45.9361 183.87 47.9429C181.15 50.0105 178.639 52.3621 176.122 54.68C175.321 55.4178 174.765 55.4509 173.734 55.1054C168.95 53.5058 164.154 51.9165 159.28 50.6364C155.934 49.7584 152.448 49.41 149.028 48.797C141.94 47.5213 134.839 47.763 127.805 48.9862C124.653 49.5346 121.578 50.6519 118.555 51.7508L118.351 51.8248C115.385 52.9039 112.464 54.1588 109.65 55.5863C107.635 56.6087 105.829 58.0424 103.922 59.2809C103.674 59.4422 103.379 59.5366 103.109 59.6627C101.792 60.8585 100.471 62.0485 99.1567 63.2471C93.9381 68.0069 89.6873 73.5378 86.0851 79.595C85.8829 79.9381 85.2674 80.3438 84.9737 80.2641C84.0375 80.0024 83.164 79.5263 82.2642 79.1305C80.7876 78.7762 79.302 78.4569 77.834 78.0644C76.3469 77.6676 74.8809 77.2004 73.4025 76.7655C72.902 76.731 72.3981 76.6938 71.8976 76.6594C71.777 76.6651 71.6594 76.6705 71.5385 76.6731L71.5383 76.6731C70.6961 76.545 69.854 76.417 69.0149 76.2886C68.51 76.3043 68.0024 76.3234 67.4975 76.3391C65.4209 76.5474 63.3415 76.759 61.2648 76.9673C60.8685 77.0437 60.4718 77.1171 60.0754 77.1935C59.6909 77.4521 59.3032 77.711 58.9186 77.9696C58.9909 78.4813 59.066 78.9897 59.1383 79.5014C59.4435 79.7602 59.8156 79.972 60.0456 80.2879C63.1562 84.5075 66.8001 88.2114 71.276 90.9352C73.2528 92.1381 75.5461 92.8964 77.7839 93.5639C79.2438 94.0007 80.8631 93.9122 82.6886 94.086C82.5825 95.5288 82.4476 97.0242 82.3722 98.5261C82.2679 100.615 82.2137 102.708 82.122 104.799C81.9303 109.242 81.5306 113.687 81.5933 118.127C81.6467 121.875 82.2305 125.614 82.5786 129.358C82.633 129.94 82.6938 130.524 82.7686 131.281C81.5134 130.464 85.488 164.945 84.5179 164.245C84.1378 169.298 84.5083 172.131 84.4475 177.207C84.4266 179.039 84.3811 180.874 84.2447 182.702C83.9793 186.211 83.6573 189.713 83.3166 193.214C83.1004 195.429 83.1134 197.73 82.482 199.831C81.2289 204.003 79.6885 208.098 78.1075 212.16C75.672 218.422 73.2557 224.657 71.6262 231.215C70.5188 235.668 69.6023 240.133 69.1828 244.661C68.6913 249.939 68.6246 255.302 70.651 260.34C71.5366 262.542 72.7609 264.714 74.2758 266.525C75.5548 268.055 77.5403 268.968 79.097 270.29C82.3155 273.023 86.0322 274.194 90.1719 273.797C92.5482 273.572 94.9617 273.187 97.2269 272.466C99.7503 271.66 102.176 270.504 104.578 269.359L104.855 269.227C107.252 268.083 109.44 266.295 111.944 265.609C117.544 264.077 122.997 264.868 127.708 268.488C129.954 270.215 131.808 272.442 133.992 274.259C136.822 276.614 140.062 278.214 143.606 279.361C148.812 281.05 154.1 281.273 159.45 280.825C161.416 280.659 163.343 280.04 165.287 279.627C165.436 279.594 165.588 279.56 165.733 279.509C168.426 278.59 171.084 277.538 173.824 276.786C176.269 276.116 178.344 274.885 180.194 273.267C185.208 268.885 190.226 264.518 196.315 261.651C198.848 260.46 201.466 259.415 204.369 259.743C206.795 260.019 209.209 260.362 211.631 260.657C213.691 260.91 215.752 261.204 217.818 261.366C221.732 261.672 225.657 262.185 229.564 262.073C232.723 261.981 235.857 261.1 239.004 260.569L239.001 260.572L239.007 260.568C239.006 260.568 239.005 260.569 239.004 260.569L239.6 259.935L239.602 259.932C239.981 259.583 240.357 259.236 240.736 258.887L240.739 258.884C240.929 258.67 241.122 258.455 241.312 258.24L241.332 258.226L242.663 256.789C242.662 256.79 242.661 256.791 242.66 256.793L242.666 256.786L242.663 256.789C243.049 256.267 243.434 255.746 243.823 255.224L243.848 255.193L244.864 253.779C245.979 251.298 247.364 248.899 248.141 246.318C249.151 242.962 249.094 239.488 247.684 236.16C244.649 228.997 239.889 223.02 234.654 217.395C233.83 216.507 232.526 216.077 231.664 215.211C230.715 214.258 229.792 213.15 229.268 211.931C228.104 209.243 227.176 206.455 226.192 203.693C224.046 197.67 222.815 191.438 222.494 185.072C222.278 180.775 222.503 176.452 222.578 172.142C222.593 171.295 222.827 170.455 222.961 169.612C223.096 168.769 218.978 128.978 218.978 128.978Z" fill="#FDA094"/>
<path d="M61.8528 76.0279C63.9294 75.8196 66.0088 75.608 68.0855 75.3997C67.9613 75.2442 67.8429 74.9576 67.7119 74.9519C65.6814 74.8729 63.5925 74.5169 61.8528 76.0279Z" fill="#C6C6C7"/>
<path d="M69.6026 75.3496C70.4448 75.4777 71.287 75.6058 72.1261 75.7341C71.4179 74.7291 70.5331 74.8942 69.6026 75.3496Z" fill="#C6C6C7"/>
<path d="M249.521 150.152C249.074 150.635 248.625 151.12 248.179 151.602C248.625 151.12 249.074 150.635 249.521 150.152Z" fill="#C6C6C7"/>
<path d="M244.407 254.284C244.021 254.807 243.635 255.33 243.245 255.853C243.635 255.333 244.021 254.807 244.407 254.284Z" fill="#C6C6C7"/>
<path d="M243.253 255.85C242.81 256.328 242.363 256.811 241.92 257.289C242.363 256.811 242.806 256.329 243.253 255.85Z" fill="#C6C6C7"/>
<path d="M59.5028 77.0271C59.8874 76.7685 60.2751 76.5096 60.6597 76.251C60.2754 76.5126 59.8908 76.7712 59.5028 77.0271Z" fill="#C6C6C7"/>
<path d="M245.451 252.84C245.113 253.311 244.774 253.783 244.435 254.254C244.774 253.783 245.113 253.311 245.451 252.84Z" fill="#C6C6C7"/>
<path d="M72.4883 75.7165C72.9888 75.751 73.4927 75.7882 73.9932 75.8226C73.4924 75.7851 72.9888 75.751 72.4883 75.7165Z" fill="#C6C6C7"/>
<path d="M241.324 257.951C240.945 258.299 240.569 258.647 240.19 258.995C240.569 258.644 240.945 258.299 241.324 257.951Z" fill="#C6C6C7"/>
<path d="M192.151 69.3304C192.42 69.5708 192.686 69.8114 192.955 70.0517C192.686 69.8114 192.417 69.5711 192.151 69.3304Z" fill="#C6C6C7"/>
<path d="M247.046 152.814C246.893 152.736 246.739 152.655 246.585 152.577C246.568 152.749 246.551 152.922 246.537 153.094C246.705 153 246.876 152.908 247.046 152.814Z" fill="#C6C6C7"/>
<path d="M250.099 149.496C249.906 149.714 249.714 149.934 249.524 150.152C249.714 149.931 249.906 149.714 250.099 149.496Z" fill="#C6C6C7"/>
<path d="M246.26 153.408C246.135 153.374 246.014 153.339 245.889 153.302C245.911 153.458 245.929 153.614 245.951 153.771C246.054 153.652 246.157 153.53 246.26 153.408Z" fill="#C6C6C7"/>
<path d="M241.9 257.304C241.71 257.518 241.517 257.733 241.328 257.947C241.517 257.733 241.707 257.518 241.9 257.304Z" fill="#C6C6C7"/>
<path d="M240.187 258.995C239.988 259.207 239.788 259.419 239.589 259.631C239.789 259.422 239.988 259.207 240.187 258.995Z" fill="#C6C6C7"/>
<path d="M152.971 121.282L153.084 121.321L153.2 121.3C153.582 121.461 153.962 121.626 154.344 121.787C154.683 121.784 155.021 121.782 155.36 121.783C157.089 121.829 158.815 121.879 160.544 121.926C161.443 121.837 162.341 121.748 163.239 121.657C164.919 121.267 166.602 120.877 168.282 120.49C168.635 120.424 168.99 120.361 169.347 120.295C170.081 120.027 170.819 119.761 171.554 119.493C171.722 119.461 171.89 119.429 172.054 119.397C172.658 119.123 173.262 118.852 173.865 118.578C176.656 117.737 178.949 116 181.068 114.147C186.19 109.67 189.078 103.771 190.479 97.2631C191.442 92.7965 191.085 88.2427 189.51 83.8062C186.858 76.335 181.282 71.8463 174.537 68.3928C170.109 66.1241 165.418 65.2423 160.53 65.7097C155.464 66.1947 150.957 68.2245 147.115 71.5682C144.508 73.8359 141.889 76.1297 139.568 78.6769C136.919 81.5795 135.169 85.1857 134.523 88.9934C133.815 93.1521 134.114 97.3729 135.315 101.579C136.431 105.483 138.204 108.925 140.653 112.05C143.362 115.508 146.788 118.14 150.666 120.186C151.086 120.409 151.547 120.553 151.988 120.733C152.316 120.915 152.642 121.1 152.971 121.282ZM186.926 86.5564C187.084 86.6402 187.371 86.7113 187.381 86.8129C187.588 88.6317 187.765 90.4505 187.923 92.2742C187.931 92.3542 187.668 92.4548 187.534 92.5457C187.548 93.3179 187.714 94.1217 187.551 94.8556C186.703 98.6957 184.78 101.943 181.851 104.556C179.056 107.051 175.907 108.766 172.257 109.913C169.388 110.812 166.611 110.844 163.9 110.329C161.139 109.803 158.621 108.343 156.414 106.417C151.746 102.345 148.766 97.4291 148.406 91.1451C148.308 89.4335 148.489 87.7099 148.527 85.991C148.587 83.2012 149.734 80.7515 151.022 78.381C153.183 74.4049 156.321 71.5037 160.499 69.6151C163.289 68.3576 166.146 68.0567 169.033 68.5017C171.97 68.954 174.54 70.468 176.861 72.3235C179.449 74.395 182.158 76.3457 184.045 79.1544C184.278 79.4048 184.511 79.6552 184.744 79.9025C184.819 80.1001 184.894 80.2946 184.966 80.4926C185.178 80.7792 185.39 81.0659 185.601 81.3495C185.683 81.736 185.764 82.1195 185.843 82.5063C186.058 82.7678 186.41 83.0002 186.464 83.2931C186.674 84.3754 186.782 85.4708 186.926 86.5564Z" fill="#FEFEFE"/>
<path d="M168.275 120.491C166.595 120.881 164.913 121.271 163.233 121.657C164.913 121.271 166.595 120.881 168.275 120.491Z" fill="#C6C6C7"/>
<path d="M160.538 121.927C158.809 121.88 157.083 121.83 155.354 121.783C157.083 121.83 158.812 121.88 160.538 121.927Z" fill="#C6C6C7"/>
<path d="M171.549 119.497C170.814 119.765 170.076 120.031 169.341 120.299C170.076 120.031 170.814 119.762 171.549 119.497Z" fill="#C6C6C7"/>
<path d="M173.862 118.582C173.259 118.856 172.655 119.127 172.051 119.401C172.652 119.127 173.259 118.856 173.862 118.582Z" fill="#C6C6C7"/>
<path d="M154.341 121.787C153.959 121.626 153.579 121.462 153.197 121.301C153.579 121.465 153.959 121.626 154.341 121.787Z" fill="#C6C6C7"/>
<path d="M152.97 121.283C152.645 121.1 152.316 120.915 151.99 120.733C152.316 120.915 152.642 121.101 152.97 121.283Z" fill="#C6C6C7"/>
<path d="M184.046 79.1617C182.156 76.3533 179.446 74.4026 176.862 72.3308C174.544 70.4751 171.971 68.9614 169.034 68.509C166.147 68.0641 163.29 68.365 160.5 69.6224C156.321 71.508 153.184 74.4092 151.023 78.3883C149.735 80.7588 148.588 83.2055 148.528 85.9984C148.49 87.7172 148.309 89.4439 148.406 91.1524C148.766 97.4365 151.747 102.352 156.415 106.424C158.622 108.35 161.14 109.81 163.901 110.336C166.608 110.851 169.389 110.819 172.258 109.92C175.908 108.777 179.059 107.058 181.851 104.564C184.781 101.947 186.703 98.703 187.551 94.8629C187.712 94.1294 187.548 93.3253 187.535 92.5561C187.433 91.8081 187.4 91.0407 187.204 90.3144C187.067 89.8091 186.71 89.3629 186.452 88.8912C186.281 89.7688 186.275 90.72 185.915 91.5075C183.442 96.9498 177.492 98.9047 172.75 96.8131C168.403 94.8937 165.016 91.9007 163.111 87.2731C162.129 84.8876 161.883 82.5817 162.876 80.461C165.331 75.2131 171.009 73.5957 175.846 75.6966C178.316 76.7699 180.448 78.6286 182.734 80.1302C183.289 80.8459 183.845 81.5615 184.4 82.2803C184.449 82.4277 184.498 82.5751 184.547 82.7225C184.765 83.0489 184.984 83.3753 185.203 83.7017C185.162 83.7927 185.182 83.8684 185.265 83.9254C185.461 83.4586 185.658 82.9918 185.851 82.5253C185.769 82.1388 185.688 81.7554 185.609 81.3686C185.397 81.0819 185.186 80.7952 184.974 80.5116C184.899 80.314 184.824 80.1195 184.751 79.9216C184.511 79.6595 184.279 79.4121 184.046 79.1617ZM156.222 83.3678C157.996 83.1832 159.436 84.1377 160.499 85.7757C161.389 87.148 160.871 88.5694 159.32 89.0023C157.89 89.4014 154.731 87.2995 154.914 85.8583C155.042 84.8887 155.866 84.0119 156.222 83.3678ZM154.987 93.572C155.823 92.666 156.452 91.7029 157.331 91.1065C158.476 90.3316 159.341 91.1658 159.941 92.1131C160.177 92.4875 160.393 93.1902 160.205 93.4665C159.182 94.9907 157.881 95.1907 156.291 94.2261C156.007 94.0553 155.693 93.9248 154.987 93.572Z" fill="#010101"/>
<path d="M186.448 88.8812C186.706 89.3528 187.067 89.7987 187.201 90.3074C187.397 91.0337 187.43 91.8011 187.531 92.5491C187.668 92.4548 187.929 92.3545 187.921 92.2745C187.765 90.4505 187.586 88.6321 187.378 86.8133C187.368 86.7117 187.082 86.6437 186.924 86.5567C186.706 86.7057 186.488 86.8577 186.269 87.0067C186.334 87.631 186.393 88.2559 186.448 88.8812Z" fill="#FDA094"/>
<path d="M186.275 87.007C186.493 86.8581 186.711 86.706 186.929 86.5571C186.785 85.4715 186.677 84.3761 186.471 83.2997C186.414 83.0101 186.065 82.7743 185.849 82.5129C185.653 82.9797 185.457 83.4464 185.264 83.9129C185.599 84.9455 185.937 85.9747 186.275 87.007Z" fill="#1F2247"/>
<path d="M184.97 80.4991C185.182 80.7858 185.394 81.0725 185.605 81.3561C185.394 81.0725 185.182 80.7858 184.97 80.4991Z" fill="#1F2247"/>
<path d="M184.047 79.1606C184.279 79.4107 184.512 79.6608 184.744 79.9079C184.512 79.6578 184.279 79.4107 184.047 79.1606Z" fill="#1F2247"/>
<path d="M186.275 87.007C185.937 85.9747 185.599 84.9455 185.261 83.9132C185.178 83.8562 185.158 83.7805 185.202 83.6922C184.983 83.3659 184.765 83.0395 184.546 82.7131C184.497 82.5657 184.448 82.4182 184.4 82.2708C183.844 81.5552 183.289 80.8395 182.733 80.1208C180.447 78.6191 178.319 76.7602 175.845 75.6872C171.008 73.5863 165.33 75.2067 162.875 80.4515C161.882 82.5754 162.129 84.8782 163.11 87.2637C165.015 91.8944 168.402 94.8873 172.749 96.8037C177.492 98.8983 183.441 96.9404 185.914 91.4981C186.274 90.7075 186.28 89.7593 186.451 88.8818C186.392 88.2568 186.334 87.6319 186.275 87.007Z" fill="#FEFEFE"/>
<path d="M156.222 83.3663C155.866 84.0104 155.042 84.8872 154.917 85.8565C154.734 87.2977 157.893 89.3996 159.323 89.0005C160.871 88.5648 161.389 87.1465 160.502 85.7739C159.439 84.1359 157.997 83.1848 156.222 83.3663Z" fill="#FEFEFE"/>
<path d="M154.987 93.5713C155.693 93.9241 156.007 94.0516 156.292 94.2254C157.881 95.19 159.182 94.99 160.206 93.4659C160.393 93.1895 160.177 92.4869 159.942 92.1125C159.342 91.1651 158.473 90.3312 157.332 91.1058C156.456 91.705 155.827 92.6681 154.987 93.5713Z" fill="#FEFEFE"/>
<path d="M182.733 80.1198C183.288 80.8355 183.844 81.5542 184.4 82.2699C183.844 81.5542 183.288 80.8355 182.733 80.1198Z" fill="#1F2247"/>
<path d="M184.543 82.7119C184.762 83.0383 184.98 83.3647 185.199 83.6911C184.98 83.3647 184.762 83.0383 184.543 82.7119Z" fill="#1F2247"/>
<path d="M244.721 163.338C232.988 155.428 210.255 150.988 210.255 150.988C210.255 150.988 206.449 173.233 214.67 179.031C225.338 186.554 265.688 191.192 255.047 171.782C252.562 167.251 249.055 166.259 244.721 163.338Z" fill="#FDA094"/>
<path d="M218.978 128.978C218.978 128.978 217.632 123.562 216.774 120.916C215.241 116.189 213.561 111.511 211.938 106.815C211.612 105.872 211.262 104.937 210.924 103.998C210.699 103.458 210.445 102.927 210.254 102.377C209.819 101.125 209.419 99.8655 209.005 98.6076C208.132 96.8141 207.274 95.013 206.38 93.2309C204.549 89.5685 202.832 85.842 200.821 82.2812C198.498 78.1703 195.653 74.406 192.367 70.996C192.098 70.7554 191.832 70.5145 191.563 70.2739L191.551 70.2533C190.667 69.7006 189.786 69.1507 188.737 68.4932C189.715 67.7037 190.19 67.3523 190.629 66.9578C194.204 63.7649 197.891 60.6727 200.233 56.3618C200.917 55.1043 201.64 53.8708 202.344 52.6269C202.684 50.8222 203.081 49.0244 203.352 47.208C203.666 45.0985 202.797 43.9167 200.675 43.8218C198.06 43.7043 195.41 43.6181 192.819 43.8989C189.456 44.2654 186.508 45.9361 183.87 47.9429C181.15 50.0105 178.639 52.3621 176.122 54.68C175.321 55.4178 174.765 55.4509 173.734 55.1054C168.95 53.5058 164.154 51.9165 159.28 50.6364C155.934 49.7584 152.448 49.41 149.028 48.797C141.94 47.5213 134.839 47.763 127.805 48.9862C124.653 49.5346 121.578 50.6519 118.555 51.7508L118.351 51.8248C115.385 52.9039 112.464 54.1588 109.65 55.5863C107.635 56.6087 105.829 58.0424 103.922 59.2809C103.674 59.4422 103.379 59.5366 103.109 59.6627C101.792 60.8585 100.471 62.0485 99.1567 63.2471C93.9381 68.0069 89.6873 73.5378 86.0851 79.595C85.8829 79.9381 85.2674 80.3438 84.9737 80.2641C84.0375 80.0024 83.164 79.5263 82.2642 79.1305C80.7876 78.7762 79.302 78.4569 77.834 78.0644C76.3469 77.6676 74.8809 77.2004 73.4025 76.7655C72.902 76.731 72.3981 76.6938 71.8976 76.6594C71.777 76.6651 71.6594 76.6705 71.5385 76.6731L71.5383 76.6731C70.6961 76.545 69.854 76.417 69.0149 76.2886C68.51 76.3043 68.0024 76.3234 67.4975 76.3391C65.4209 76.5474 63.3415 76.759 61.2648 76.9673C60.8685 77.0437 60.4718 77.1171 60.0754 77.1935C59.6909 77.4521 59.3032 77.711 58.9186 77.9696C58.9909 78.4813 59.066 78.9897 59.1383 79.5014C59.4435 79.7602 59.8156 79.972 60.0456 80.2879C63.1562 84.5075 66.8001 88.2114 71.276 90.9352C73.2528 92.1381 75.5461 92.8964 77.7839 93.5639C79.2438 94.0007 80.8631 93.9122 82.6886 94.086C82.5825 95.5288 82.4476 97.0242 82.3722 98.5261C82.2679 100.615 82.2137 102.708 82.122 104.799C81.9303 109.242 81.5306 113.687 81.5933 118.127C81.6467 121.875 82.2305 125.614 82.5786 129.358C82.633 129.94 82.6938 130.524 82.7686 131.281C81.5134 130.464 85.488 164.945 84.5179 164.245C84.1378 169.298 84.5083 172.131 84.4475 177.207C84.4266 179.039 84.3811 180.874 84.2447 182.702C83.9793 186.211 83.6573 189.713 83.3166 193.214C83.1004 195.429 83.1134 197.73 82.482 199.831C81.2289 204.003 79.6885 208.098 78.1075 212.16C75.672 218.422 73.2557 224.657 71.6262 231.215C70.5188 235.668 69.6023 240.133 69.1828 244.661C68.6913 249.939 68.6246 255.302 70.651 260.34C71.5366 262.542 72.7609 264.714 74.2758 266.525C75.5548 268.055 77.5403 268.968 79.097 270.29C82.3155 273.023 86.0322 274.194 90.1719 273.797C92.5482 273.572 94.9617 273.187 97.2269 272.466C99.7503 271.66 102.176 270.504 104.578 269.359L104.855 269.227C107.252 268.083 109.44 266.295 111.944 265.609C117.544 264.077 122.997 264.868 127.708 268.488C129.954 270.215 131.808 272.442 133.992 274.259C136.822 276.614 140.062 278.214 143.606 279.361C148.812 281.05 154.1 281.273 159.45 280.825C161.416 280.659 163.343 280.04 165.287 279.627C165.436 279.594 165.588 279.56 165.733 279.509C168.426 278.59 171.084 277.538 173.824 276.786C176.269 276.116 178.344 274.885 180.194 273.267C185.208 268.885 190.226 264.518 196.315 261.651C198.848 260.46 201.466 259.415 204.369 259.743C206.795 260.019 209.209 260.362 211.631 260.657C213.691 260.91 215.752 261.204 217.818 261.366C221.732 261.672 225.657 262.185 229.564 262.073C232.723 261.981 235.857 261.1 239.004 260.569L239.001 260.572L239.007 260.568C239.006 260.568 239.005 260.569 239.004 260.569L239.6 259.935L239.602 259.932C239.981 259.583 240.357 259.236 240.736 258.887L240.739 258.884C240.929 258.67 241.122 258.455 241.312 258.24L241.332 258.226L242.663 256.789C242.662 256.79 242.661 256.791 242.66 256.793L242.666 256.786L242.663 256.789C243.049 256.267 243.434 255.746 243.823 255.224L243.848 255.193L244.864 253.779C245.979 251.298 247.364 248.899 248.141 246.318C249.151 242.962 249.094 239.488 247.684 236.16C244.649 228.997 239.889 223.02 234.654 217.395C233.83 216.507 232.526 216.077 231.664 215.211C230.715 214.258 229.792 213.15 229.268 211.931C228.104 209.243 227.176 206.455 226.192 203.693C224.046 197.67 222.815 191.438 222.494 185.072C222.278 180.775 222.503 176.452 222.578 172.142C222.593 171.295 222.827 170.455 222.961 169.612C223.096 168.769 218.978 128.978 218.978 128.978Z" fill="#FDA094"/>
<path d="M61.8528 76.0279C63.9294 75.8196 66.0088 75.608 68.0855 75.3997C67.9613 75.2442 67.8429 74.9576 67.7119 74.9519C65.6814 74.8729 63.5925 74.5169 61.8528 76.0279Z" fill="#C6C6C7"/>
<path d="M69.6026 75.3496C70.4448 75.4777 71.287 75.6058 72.1261 75.7341C71.4179 74.7291 70.5331 74.8942 69.6026 75.3496Z" fill="#C6C6C7"/>
<path d="M249.521 150.152C249.074 150.635 248.625 151.12 248.179 151.602C248.625 151.12 249.074 150.635 249.521 150.152Z" fill="#C6C6C7"/>
<path d="M244.407 254.284C244.021 254.807 243.635 255.33 243.245 255.853C243.635 255.333 244.021 254.807 244.407 254.284Z" fill="#C6C6C7"/>
<path d="M243.253 255.85C242.81 256.328 242.363 256.811 241.92 257.289C242.363 256.811 242.806 256.329 243.253 255.85Z" fill="#C6C6C7"/>
<path d="M59.5028 77.0271C59.8874 76.7685 60.2751 76.5096 60.6597 76.251C60.2754 76.5126 59.8908 76.7712 59.5028 77.0271Z" fill="#C6C6C7"/>
<path d="M245.451 252.84C245.113 253.311 244.774 253.783 244.435 254.254C244.774 253.783 245.113 253.311 245.451 252.84Z" fill="#C6C6C7"/>
<path d="M72.4883 75.7165C72.9888 75.751 73.4927 75.7882 73.9932 75.8226C73.4924 75.7851 72.9888 75.751 72.4883 75.7165Z" fill="#C6C6C7"/>
<path d="M241.324 257.951C240.945 258.299 240.569 258.647 240.19 258.995C240.569 258.644 240.945 258.299 241.324 257.951Z" fill="#C6C6C7"/>
<path d="M192.151 69.3304C192.42 69.5708 192.686 69.8114 192.955 70.0517C192.686 69.8114 192.417 69.5711 192.151 69.3304Z" fill="#C6C6C7"/>
<path d="M247.046 152.814C246.893 152.736 246.739 152.655 246.585 152.577C246.568 152.749 246.551 152.922 246.537 153.094C246.705 153 246.876 152.908 247.046 152.814Z" fill="#C6C6C7"/>
<path d="M250.099 149.496C249.906 149.714 249.714 149.934 249.524 150.152C249.714 149.931 249.906 149.714 250.099 149.496Z" fill="#C6C6C7"/>
<path d="M246.26 153.408C246.135 153.374 246.014 153.339 245.889 153.302C245.911 153.458 245.929 153.614 245.951 153.771C246.054 153.652 246.157 153.53 246.26 153.408Z" fill="#C6C6C7"/>
<path d="M241.9 257.304C241.71 257.518 241.517 257.733 241.328 257.947C241.517 257.733 241.707 257.518 241.9 257.304Z" fill="#C6C6C7"/>
<path d="M240.187 258.995C239.988 259.207 239.788 259.419 239.589 259.631C239.789 259.422 239.988 259.207 240.187 258.995Z" fill="#C6C6C7"/>
<path d="M152.971 121.282L153.084 121.321L153.2 121.3C153.582 121.461 153.962 121.626 154.344 121.787C154.683 121.784 155.021 121.782 155.36 121.783C157.089 121.829 158.815 121.879 160.544 121.926C161.443 121.837 162.341 121.748 163.239 121.657C164.919 121.267 166.602 120.877 168.282 120.49C168.635 120.424 168.99 120.361 169.347 120.295C170.081 120.027 170.819 119.761 171.554 119.493C171.722 119.461 171.89 119.429 172.054 119.397C172.658 119.123 173.262 118.852 173.865 118.578C176.656 117.737 178.949 116 181.068 114.147C186.19 109.67 189.078 103.771 190.479 97.2631C191.442 92.7965 191.085 88.2427 189.51 83.8062C186.858 76.335 181.282 71.8463 174.537 68.3928C170.109 66.1241 165.418 65.2423 160.53 65.7097C155.464 66.1947 150.957 68.2245 147.115 71.5682C144.508 73.8359 141.889 76.1297 139.568 78.6769C136.919 81.5795 135.169 85.1857 134.523 88.9934C133.815 93.1521 134.114 97.3729 135.315 101.579C136.431 105.483 138.204 108.925 140.653 112.05C143.362 115.508 146.788 118.14 150.666 120.186C151.086 120.409 151.547 120.553 151.988 120.733C152.316 120.915 152.642 121.1 152.971 121.282ZM186.926 86.5564C187.084 86.6402 187.371 86.7113 187.381 86.8129C187.588 88.6317 187.765 90.4505 187.923 92.2742C187.931 92.3542 187.668 92.4548 187.534 92.5457C187.548 93.3179 187.714 94.1217 187.551 94.8556C186.703 98.6957 184.78 101.943 181.851 104.556C179.056 107.051 175.907 108.766 172.257 109.913C169.388 110.812 166.611 110.844 163.9 110.329C161.139 109.803 158.621 108.343 156.414 106.417C151.746 102.345 148.766 97.4291 148.406 91.1451C148.308 89.4335 148.489 87.7099 148.527 85.991C148.587 83.2012 149.734 80.7515 151.022 78.381C153.183 74.4049 156.321 71.5037 160.499 69.6151C163.289 68.3576 166.146 68.0567 169.033 68.5017C171.97 68.954 174.54 70.468 176.861 72.3235C179.449 74.395 182.158 76.3457 184.045 79.1544C184.278 79.4048 184.511 79.6552 184.744 79.9025C184.819 80.1001 184.894 80.2946 184.966 80.4926C185.178 80.7792 185.39 81.0659 185.601 81.3495C185.683 81.736 185.764 82.1195 185.843 82.5063C186.058 82.7678 186.41 83.0002 186.464 83.2931C186.674 84.3754 186.782 85.4708 186.926 86.5564Z" fill="#FEFEFE"/>
<path d="M168.275 120.491C166.595 120.881 164.913 121.271 163.233 121.657C164.913 121.271 166.595 120.881 168.275 120.491Z" fill="#C6C6C7"/>
<path d="M160.538 121.927C158.809 121.88 157.083 121.83 155.354 121.783C157.083 121.83 158.812 121.88 160.538 121.927Z" fill="#C6C6C7"/>
<path d="M171.549 119.497C170.814 119.765 170.076 120.031 169.341 120.299C170.076 120.031 170.814 119.762 171.549 119.497Z" fill="#C6C6C7"/>
<path d="M173.862 118.582C173.259 118.856 172.655 119.127 172.051 119.401C172.652 119.127 173.259 118.856 173.862 118.582Z" fill="#C6C6C7"/>
<path d="M154.341 121.787C153.959 121.626 153.579 121.462 153.197 121.301C153.579 121.465 153.959 121.626 154.341 121.787Z" fill="#C6C6C7"/>
<path d="M152.97 121.283C152.645 121.1 152.316 120.915 151.99 120.733C152.316 120.915 152.642 121.101 152.97 121.283Z" fill="#C6C6C7"/>
<path d="M184.046 79.1617C182.156 76.3533 179.446 74.4026 176.862 72.3308C174.544 70.4751 171.971 68.9614 169.034 68.509C166.147 68.0641 163.29 68.365 160.5 69.6224C156.321 71.508 153.184 74.4092 151.023 78.3883C149.735 80.7588 148.588 83.2055 148.528 85.9984C148.49 87.7172 148.309 89.4439 148.406 91.1524C148.766 97.4365 151.747 102.352 156.415 106.424C158.622 108.35 161.14 109.81 163.901 110.336C166.608 110.851 169.389 110.819 172.258 109.92C175.908 108.777 179.059 107.058 181.851 104.564C184.781 101.947 186.703 98.703 187.551 94.8629C187.712 94.1294 187.548 93.3253 187.535 92.5561C187.433 91.8081 187.4 91.0407 187.204 90.3144C187.067 89.8091 186.71 89.3629 186.452 88.8912C186.281 89.7688 186.275 90.72 185.915 91.5075C183.442 96.9498 177.492 98.9047 172.75 96.8131C168.403 94.8937 165.016 91.9007 163.111 87.2731C162.129 84.8876 161.883 82.5817 162.876 80.461C165.331 75.2131 171.009 73.5957 175.846 75.6966C178.316 76.7699 180.448 78.6286 182.734 80.1302C183.289 80.8459 183.845 81.5615 184.4 82.2803C184.449 82.4277 184.498 82.5751 184.547 82.7225C184.765 83.0489 184.984 83.3753 185.203 83.7017C185.162 83.7927 185.182 83.8684 185.265 83.9254C185.461 83.4586 185.658 82.9918 185.851 82.5253C185.769 82.1388 185.688 81.7554 185.609 81.3686C185.397 81.0819 185.186 80.7952 184.974 80.5116C184.899 80.314 184.824 80.1195 184.751 79.9216C184.511 79.6595 184.279 79.4121 184.046 79.1617ZM156.222 83.3678C157.996 83.1832 159.436 84.1377 160.499 85.7757C161.389 87.148 160.871 88.5694 159.32 89.0023C157.89 89.4014 154.731 87.2995 154.914 85.8583C155.042 84.8887 155.866 84.0119 156.222 83.3678ZM154.987 93.572C155.823 92.666 156.452 91.7029 157.331 91.1065C158.476 90.3316 159.341 91.1658 159.941 92.1131C160.177 92.4875 160.393 93.1902 160.205 93.4665C159.182 94.9907 157.881 95.1907 156.291 94.2261C156.007 94.0553 155.693 93.9248 154.987 93.572Z" fill="#010101"/>
<path d="M186.448 88.8812C186.706 89.3528 187.067 89.7987 187.201 90.3074C187.397 91.0337 187.43 91.8011 187.531 92.5491C187.668 92.4548 187.929 92.3545 187.921 92.2745C187.765 90.4505 187.586 88.6321 187.378 86.8133C187.368 86.7117 187.082 86.6437 186.924 86.5567C186.706 86.7057 186.488 86.8577 186.269 87.0067C186.334 87.631 186.393 88.2559 186.448 88.8812Z" fill="#FDA094"/>
<path d="M186.275 87.007C186.493 86.8581 186.711 86.706 186.929 86.5571C186.785 85.4715 186.677 84.3761 186.471 83.2997C186.414 83.0101 186.065 82.7743 185.849 82.5129C185.653 82.9797 185.457 83.4464 185.264 83.9129C185.599 84.9455 185.937 85.9747 186.275 87.007Z" fill="#1F2247"/>
<path d="M184.97 80.4991C185.182 80.7858 185.394 81.0725 185.605 81.3561C185.394 81.0725 185.182 80.7858 184.97 80.4991Z" fill="#1F2247"/>
<path d="M184.047 79.1606C184.279 79.4107 184.512 79.6608 184.744 79.9079C184.512 79.6578 184.279 79.4107 184.047 79.1606Z" fill="#1F2247"/>
<path d="M186.275 87.007C185.937 85.9747 185.599 84.9455 185.261 83.9132C185.178 83.8562 185.158 83.7805 185.202 83.6922C184.983 83.3659 184.765 83.0395 184.546 82.7131C184.497 82.5657 184.448 82.4182 184.4 82.2708C183.844 81.5552 183.289 80.8395 182.733 80.1208C180.447 78.6191 178.319 76.7602 175.845 75.6872C171.008 73.5863 165.33 75.2067 162.875 80.4515C161.882 82.5754 162.129 84.8782 163.11 87.2637C165.015 91.8944 168.402 94.8873 172.749 96.8037C177.492 98.8983 183.441 96.9404 185.914 91.4981C186.274 90.7075 186.28 89.7593 186.451 88.8818C186.392 88.2568 186.334 87.6319 186.275 87.007Z" fill="#FEFEFE"/>
<path d="M156.222 83.3663C155.866 84.0104 155.042 84.8872 154.917 85.8565C154.734 87.2977 157.893 89.3996 159.323 89.0005C160.871 88.5648 161.389 87.1465 160.502 85.7739C159.439 84.1359 157.997 83.1848 156.222 83.3663Z" fill="#FEFEFE"/>
<path d="M154.987 93.5713C155.693 93.9241 156.007 94.0516 156.292 94.2254C157.881 95.19 159.182 94.99 160.206 93.4659C160.393 93.1895 160.177 92.4869 159.942 92.1125C159.342 91.1651 158.473 90.3312 157.332 91.1058C156.456 91.705 155.827 92.6681 154.987 93.5713Z" fill="#FEFEFE"/>
<path d="M182.733 80.1198C183.288 80.8355 183.844 81.5542 184.4 82.2699C183.844 81.5542 183.288 80.8355 182.733 80.1198Z" fill="#1F2247"/>
<path d="M184.543 82.7119C184.762 83.0383 184.98 83.3647 185.199 83.6911C184.98 83.3647 184.762 83.0383 184.543 82.7119Z" fill="#1F2247"/>
<path d="M244.721 163.338C232.988 155.428 210.255 150.988 210.255 150.988C210.255 150.988 206.449 173.233 214.67 179.031C225.338 186.554 265.688 191.192 255.047 171.782C252.562 167.251 249.055 166.259 244.721 163.338Z" fill="#FDA094"/>
<path d="M155.614 146.901C158.408 146.893 160.902 145.812 163.114 144.33C164.769 143.222 165.871 141.444 166.874 139.639C167.973 137.664 168.4 135.543 168.828 133.399C169.034 132.366 167.307 129.787 166.235 129.129C163.657 127.553 160.869 127.409 157.945 127.503C155.974 127.566 153.986 127.134 152.005 126.932C151.297 126.861 150.51 126.99 149.887 126.723C148.158 125.981 146.53 125.002 144.796 124.265C143.366 123.658 141.877 123.056 140.359 122.846C139.236 122.69 137.788 122.822 136.902 123.432C135.031 124.723 133.559 126.419 132.586 128.646C131.053 132.159 132.097 135.021 134.15 137.813C136.2 140.605 139.023 142.563 141.82 144.448C143.221 145.392 145.102 145.692 146.81 146.084C148.644 146.506 150.523 146.76 152.395 146.959C153.459 147.074 154.541 146.931 155.614 146.901Z" fill="#010101"/>
<path d="M291.502 130.031C291.502 130.031 292.747 124.591 293.556 121.929C295.001 117.175 296.594 112.467 298.129 107.742C298.438 106.792 298.77 105.851 299.091 104.906C299.305 104.362 299.55 103.826 299.731 103.273C300.142 102.012 300.519 100.746 300.909 99.4806C301.749 97.6713 302.573 95.8545 303.434 94.0561C305.197 90.3603 306.844 86.6025 308.788 83.005C311.035 78.8516 313.81 75.0352 317.031 71.5648C317.296 71.3192 317.557 71.0734 317.822 70.8279L317.833 70.807C318.707 70.238 319.577 69.6718 320.615 68.995C319.622 68.2237 319.141 67.8812 318.694 67.4949C315.061 64.369 311.317 61.3458 308.895 57.0792C308.188 55.8346 307.442 54.6148 306.715 53.3841C306.341 51.5861 305.911 49.796 305.606 47.9849C305.253 45.8816 306.1 44.6838 308.22 44.5496C310.833 44.3835 313.48 44.248 316.076 44.4807C319.445 44.7846 322.424 46.4003 325.099 48.3578C327.856 50.3745 330.411 52.679 332.971 54.9498C333.785 55.6725 334.341 55.6954 335.366 55.3308C340.12 53.6425 344.885 51.9645 349.735 50.594C353.064 49.654 356.543 49.2408 359.95 48.5645C367.014 47.1574 374.118 47.2671 381.174 48.3594C384.335 48.8491 387.43 49.9092 390.474 50.9516L390.679 51.0219C393.664 52.0457 396.608 53.2461 399.448 54.6211C401.481 55.6059 403.314 57.0058 405.243 58.2087C405.494 58.3653 405.791 58.4542 406.064 58.5753C407.403 59.7464 408.746 60.9117 410.082 62.0857C415.388 66.7477 419.741 72.1987 423.455 78.1879C423.663 78.5272 424.286 78.9214 424.578 78.8362C425.51 78.5572 426.374 78.065 427.266 77.6525C428.736 77.2708 430.216 76.924 431.676 76.5043C433.155 76.08 434.613 75.5856 436.083 75.1233C436.582 75.0795 437.085 75.033 437.585 74.9892C437.706 74.9927 437.824 74.9959 437.945 74.9963L437.945 74.9962C438.784 74.8526 439.624 74.7089 440.461 74.565C440.966 74.5713 441.474 74.5809 441.979 74.5873C444.059 74.7569 446.142 74.9299 448.222 75.0996C448.62 75.1686 449.018 75.2346 449.415 75.3037C449.805 75.5551 450.197 75.8068 450.586 76.0582C450.524 76.5711 450.458 77.0808 450.395 77.5938C450.095 77.8582 449.727 78.0768 449.503 78.397C446.471 82.6736 442.897 86.4446 438.472 89.2511C436.518 90.4904 434.239 91.2912 432.014 92.0002C430.562 92.464 428.942 92.4056 427.12 92.6133C427.253 94.0539 427.415 95.5465 427.519 97.0467C427.662 99.1333 427.755 101.225 427.885 103.314C428.16 107.753 428.642 112.19 428.662 116.63C428.678 120.378 428.164 124.128 427.885 127.877C427.842 128.46 427.792 129.045 427.731 129.803C428.971 128.963 425.637 163.512 426.594 162.795C427.068 167.839 426.75 170.678 426.905 175.753C426.96 177.584 427.04 179.418 427.21 181.243C427.541 184.746 427.928 188.242 428.333 191.736C428.591 193.947 428.62 196.248 429.291 198.336C430.621 202.484 432.237 206.55 433.893 210.581C436.445 216.797 438.977 222.986 440.728 229.513C441.918 233.945 442.917 238.392 443.42 242.912C444.01 248.179 444.176 253.54 442.244 258.615C441.399 260.833 440.215 263.028 438.734 264.866C437.484 266.42 435.516 267.369 433.984 268.72C430.817 271.512 427.123 272.752 422.976 272.432C420.596 272.251 418.176 271.912 415.898 271.233C413.36 270.474 410.913 269.363 408.49 268.263L408.211 268.136C405.793 267.037 403.572 265.289 401.055 264.65C395.428 263.223 389.99 264.115 385.348 267.822C383.134 269.59 381.322 271.851 379.172 273.708C376.387 276.115 373.177 277.775 369.655 278.988C364.481 280.773 359.198 281.095 353.841 280.746C351.872 280.617 349.934 280.033 347.982 279.657C347.832 279.626 347.68 279.595 347.535 279.547C344.825 278.678 342.148 277.676 339.394 276.975C336.937 276.35 334.84 275.158 332.96 273.575C327.866 269.286 322.767 265.013 316.626 262.26C314.072 261.116 311.434 260.12 308.537 260.502C306.117 260.823 303.71 261.211 301.294 261.551C299.239 261.842 297.184 262.174 295.121 262.375C291.213 262.754 287.298 263.34 283.39 263.3C280.23 263.267 277.08 262.444 273.924 261.971L273.927 261.974L273.921 261.971C273.922 261.971 273.923 261.971 273.924 261.971L273.317 261.349L273.314 261.345C272.929 261.004 272.546 260.663 272.161 260.322L272.158 260.319C271.964 260.108 271.767 259.897 271.573 259.686L271.553 259.672L270.195 258.26C270.196 258.261 270.197 258.262 270.198 258.264L270.193 258.257L270.195 258.26C269.8 257.746 269.405 257.231 269.007 256.717L268.981 256.687L267.939 255.291C266.778 252.832 265.348 250.459 264.524 247.893C263.451 244.556 263.444 241.082 264.792 237.728C267.693 230.51 272.342 224.446 277.471 218.724C278.278 217.821 279.574 217.366 280.42 216.485C281.351 215.514 282.254 214.389 282.755 213.161C283.869 210.452 284.745 207.647 285.677 204.868C287.711 198.805 288.826 192.551 289.029 186.181C289.165 181.88 288.859 177.563 288.705 173.254C288.674 172.408 288.424 171.572 288.274 170.732C288.124 169.892 291.502 130.031 291.502 130.031Z" fill="#E26554"/>
<path d="M447.616 74.1712C445.536 74.0016 443.453 73.8286 441.373 73.6589C441.494 73.5011 441.607 73.2124 441.738 73.2043C443.767 73.0875 445.849 72.6928 447.616 74.1712Z" fill="#C6C6C7"/>
<path d="M439.855 73.6373C439.016 73.781 438.176 73.9247 437.339 74.0686C438.029 73.0506 438.917 73.1992 439.855 73.6373Z" fill="#C6C6C7"/>
<path d="M261.358 151.77C261.813 152.243 262.271 152.72 262.727 153.194C262.271 152.72 261.813 152.243 261.358 151.77Z" fill="#C6C6C7"/>
<path d="M268.405 255.787C268.801 256.303 269.197 256.818 269.596 257.334C269.196 256.821 268.801 256.303 268.405 255.787Z" fill="#C6C6C7"/>
<path d="M269.588 257.331C270.04 257.802 270.496 258.275 270.948 258.746C270.496 258.275 270.043 257.802 269.588 257.331Z" fill="#C6C6C7"/>
<path d="M449.985 75.1265C449.595 74.8751 449.203 74.6235 448.813 74.3721C449.203 74.6266 449.592 74.878 449.985 75.1265Z" fill="#C6C6C7"/>
<path d="M267.334 254.362C267.682 254.827 268.029 255.293 268.376 255.758C268.029 255.293 267.682 254.827 267.334 254.362Z" fill="#C6C6C7"/>
<path d="M436.977 74.0572C436.477 74.1009 435.974 74.1475 435.474 74.1912C435.974 74.1444 436.477 74.1009 436.977 74.0572Z" fill="#C6C6C7"/>
<path d="M271.556 259.396C271.941 259.738 272.323 260.078 272.708 260.419C272.323 260.075 271.941 259.738 271.556 259.396Z" fill="#C6C6C7"/>
<path d="M317.216 69.8951C316.952 70.1403 316.69 70.3859 316.426 70.6311C316.69 70.3859 316.955 70.1406 317.216 69.8951Z" fill="#C6C6C7"/>
<path d="M263.881 154.384C264.033 154.303 264.186 154.219 264.338 154.138C264.358 154.31 264.378 154.482 264.395 154.654C264.226 154.563 264.054 154.475 263.881 154.384Z" fill="#C6C6C7"/>
<path d="M260.768 151.123C260.964 151.337 261.161 151.554 261.354 151.768C261.161 151.551 260.964 151.337 260.768 151.123Z" fill="#C6C6C7"/>
<path d="M264.679 154.963C264.803 154.926 264.923 154.89 265.047 154.85C265.029 155.006 265.013 155.163 264.994 155.32C264.889 155.203 264.784 155.083 264.679 154.963Z" fill="#C6C6C7"/>
<path d="M270.968 258.76C271.161 258.97 271.358 259.181 271.552 259.392C271.358 259.181 271.164 258.971 270.968 258.76Z" fill="#C6C6C7"/>
<path d="M272.712 260.42C272.915 260.628 273.119 260.837 273.322 261.045C273.118 260.84 272.915 260.628 272.712 260.42Z" fill="#C6C6C7"/>
<path d="M357.355 121.11L357.243 121.151L357.126 121.132C356.747 121.301 356.37 121.472 355.991 121.64C355.652 121.644 355.314 121.648 354.975 121.655C353.248 121.734 351.523 121.816 349.795 121.895C348.895 121.823 347.995 121.751 347.095 121.675C345.409 121.317 343.719 120.958 342.032 120.603C341.677 120.544 341.322 120.487 340.963 120.428C340.224 120.173 339.481 119.921 338.741 119.667C338.573 119.638 338.405 119.609 338.24 119.58C337.631 119.317 337.022 119.057 336.414 118.795C333.608 118.005 331.283 116.312 329.13 114.499C323.926 110.118 320.929 104.273 319.407 97.7921C318.361 93.3441 318.633 88.7845 320.126 84.3195C322.639 76.8003 328.13 72.2089 334.81 68.6307C339.195 66.2801 343.869 65.3113 348.765 65.6878C353.839 66.0786 358.383 68.0243 362.286 71.296C364.934 73.5149 367.596 75.7597 369.964 78.2633C372.667 81.1163 374.484 84.6893 375.2 88.4843C375.985 92.6292 375.764 96.8548 374.641 101.083C373.598 105.007 371.89 108.48 369.499 111.651C366.854 115.159 363.478 117.854 359.639 119.972C359.223 120.202 358.764 120.355 358.328 120.543C358.002 120.731 357.68 120.922 357.355 121.11ZM322.76 87.0212C322.604 87.108 322.319 87.1844 322.311 87.2861C322.137 89.1085 321.994 90.9302 321.87 92.7565C321.863 92.8367 322.128 92.9324 322.264 93.0208C322.264 93.7931 322.113 94.5999 322.29 95.3306C323.209 99.1543 325.192 102.365 328.169 104.924C331.01 107.366 334.19 109.023 337.86 110.101C340.746 110.946 343.523 110.927 346.224 110.361C348.975 109.785 351.465 108.278 353.636 106.312C358.227 102.154 361.116 97.1832 361.359 90.8936C361.425 89.1804 361.212 87.4605 361.142 85.7426C361.03 82.9545 359.838 80.5264 358.506 78.1803C356.272 74.245 353.081 71.4026 348.868 69.5919C346.055 68.3865 343.193 68.1388 340.315 68.6372C337.387 69.1441 334.845 70.7055 332.559 72.6038C330.01 74.723 327.338 76.7237 325.503 79.567C325.275 79.8217 325.047 80.0763 324.819 80.3279C324.747 80.5269 324.676 80.7228 324.607 80.922C324.401 81.2126 324.194 81.5032 323.988 81.7906C323.914 82.1786 323.84 82.5635 323.768 82.9517C323.558 83.2171 323.21 83.456 323.162 83.7499C322.972 84.8359 322.884 85.9331 322.76 87.0212Z" fill="#FEFEFE"/>
<path d="M342.458 133.377C360.189 146.16 370.294 134.068 369.929 130.56" stroke="black" stroke-width="6" stroke-linecap="round"/>
<path d="M342.039 120.604C343.725 120.962 345.415 121.321 347.102 121.676C345.415 121.321 343.725 120.962 342.039 120.604Z" fill="#C6C6C7"/>
<path d="M349.8 121.895C351.528 121.817 353.253 121.735 354.981 121.656C353.253 121.735 351.525 121.816 349.8 121.895Z" fill="#C6C6C7"/>
<path d="M338.747 119.67C339.487 119.925 340.23 120.176 340.969 120.431C340.23 120.176 339.487 119.921 338.747 119.67Z" fill="#C6C6C7"/>
<path d="M336.417 118.799C337.025 119.062 337.634 119.321 338.243 119.584C337.637 119.322 337.025 119.062 336.417 118.799Z" fill="#C6C6C7"/>
<path d="M355.994 121.641C356.373 121.473 356.75 121.301 357.129 121.133C356.75 121.304 356.373 121.473 355.994 121.641Z" fill="#C6C6C7"/>
<path d="M357.355 121.111C357.677 120.923 358.003 120.731 358.325 120.543C358.003 120.731 357.68 120.923 357.355 121.111Z" fill="#C6C6C7"/>
<path d="M325.503 79.5733C327.34 76.7303 330.013 74.7296 332.558 72.6102C334.841 70.7117 337.386 69.1505 340.314 68.6436C343.192 68.1451 346.054 68.3929 348.867 69.5983C353.08 71.4059 356.271 74.2483 358.505 78.1866C359.837 80.5328 361.03 82.9578 361.141 85.749C361.211 87.4669 361.424 89.1899 361.358 90.8999C361.115 97.1896 358.227 102.16 353.635 106.318C351.464 108.284 348.974 109.791 346.223 110.368C343.526 110.934 340.745 110.953 337.859 110.108C334.189 109.032 331.006 107.372 328.168 104.93C325.191 102.369 323.208 99.1607 322.289 95.337C322.115 94.6065 322.263 93.7995 322.263 93.0302C322.351 92.2804 322.369 91.5126 322.552 90.7828C322.679 90.275 323.029 89.8222 323.278 89.3458C323.465 90.2201 323.488 91.1711 323.863 91.9517C326.437 97.3472 332.421 99.1911 337.125 97.0118C341.435 95.012 344.766 91.9566 346.585 87.2945C347.522 84.8911 347.725 82.581 346.693 80.4791C344.141 75.2777 338.434 73.7661 333.637 75.9565C331.187 77.0755 329.09 78.9734 326.832 80.5173C326.29 81.2431 325.748 81.969 325.206 82.6979C325.16 82.8462 325.114 82.9945 325.068 83.1428C324.855 83.4732 324.643 83.8036 324.43 84.134C324.473 84.2242 324.454 84.3003 324.372 84.3589C324.167 83.8958 323.962 83.4327 323.76 82.9699C323.835 82.5819 323.909 82.1971 323.98 81.8088C324.187 81.5183 324.393 81.2277 324.599 80.9402C324.671 80.7413 324.742 80.5454 324.811 80.3461C325.046 80.0796 325.274 79.828 325.503 79.5733ZM353.4 83.2618C351.622 83.1102 350.2 84.0913 349.168 85.7488C348.303 87.1374 348.848 88.5489 350.407 88.9529C351.844 89.3254 354.964 87.1651 354.753 85.7276C354.607 84.7606 353.767 83.8992 353.4 83.2618ZM354.824 93.4413C353.971 92.551 353.324 91.5997 352.434 91.0197C351.275 90.2663 350.426 91.1164 349.843 92.0747C349.615 92.4535 349.412 93.16 349.604 93.4328C350.656 94.9377 351.961 95.1135 353.532 94.1195C353.813 93.9435 354.125 93.8072 354.824 93.4413Z" fill="#010101"/>
<path d="M323.281 89.3363C323.032 89.8126 322.68 90.2652 322.555 90.7763C322.373 91.5061 322.355 92.2739 322.267 93.0237C322.128 92.932 321.866 92.8366 321.872 92.7564C321.994 90.9299 322.14 89.1084 322.313 87.286C322.322 87.1843 322.607 87.111 322.763 87.0211C322.984 87.166 323.205 87.3139 323.426 87.4588C323.372 88.0842 323.325 88.7101 323.281 89.3363Z" fill="#FDA094"/>
<path d="M323.42 87.4596C323.199 87.3148 322.978 87.1668 322.757 87.0219C322.881 85.9338 322.969 84.8366 323.155 83.7566C323.206 83.466 323.551 83.2238 323.762 82.9583C323.966 83.4214 324.171 83.8845 324.373 84.3473C324.057 85.3859 323.739 86.4212 323.42 87.4596Z" fill="#1F2247"/>
<path d="M324.603 80.9284C324.397 81.219 324.191 81.5096 323.985 81.7971C324.191 81.5096 324.397 81.219 324.603 80.9284Z" fill="#1F2247"/>
<path d="M325.502 79.574C325.274 79.8283 325.046 80.0827 324.818 80.334C325.046 80.0796 325.274 79.8283 325.502 79.574Z" fill="#1F2247"/>
<path d="M323.419 87.4583C323.738 86.4199 324.057 85.3846 324.376 84.3462C324.458 84.2876 324.477 84.2116 324.431 84.1242C324.643 83.7938 324.856 83.4634 325.069 83.133C325.115 82.9847 325.161 82.8364 325.207 82.6881C325.749 81.9622 326.291 81.2364 326.833 80.5074C329.091 78.9636 331.184 77.0654 333.637 75.9467C338.435 73.7563 344.142 75.271 346.694 80.4693C347.726 82.5743 347.522 84.8813 346.585 87.2846C344.766 91.9499 341.435 95.0052 337.125 97.002C332.422 99.1844 326.438 97.3373 323.864 91.9419C323.489 91.1581 323.466 90.2102 323.278 89.336C323.325 88.7101 323.372 88.0842 323.419 87.4583Z" fill="#FEFEFE"/>
<path d="M353.4 83.2618C353.768 83.8992 354.607 84.7605 354.75 85.7273C354.961 87.1648 351.841 89.3251 350.404 88.9525C348.848 88.5457 348.303 87.1373 349.165 85.7485C350.198 84.091 351.622 83.1132 353.4 83.2618Z" fill="#FEFEFE"/>
<path d="M354.824 93.441C354.125 93.8069 353.813 93.9401 353.532 94.1192C351.96 95.1131 350.656 94.9374 349.604 93.4325C349.412 93.1597 349.614 92.4531 349.843 92.0744C350.426 91.1161 351.278 90.2662 352.434 91.0194C353.321 91.6022 353.968 92.5535 354.824 93.441Z" fill="#FEFEFE"/>
<path d="M326.833 80.5081C326.291 81.2339 325.749 81.9629 325.207 82.6887C325.749 81.9629 326.291 81.2339 326.833 80.5081Z" fill="#1F2247"/>
<path d="M325.072 83.1333C324.859 83.4637 324.646 83.7941 324.434 84.1244C324.646 83.7941 324.859 83.4637 325.072 83.1333Z" fill="#1F2247"/>
<path d="M459.563 165.041C449.164 174.638 427.368 182.473 427.368 182.473C427.368 182.473 420.233 161.062 427.481 154.085C436.885 145.031 476.066 134.331 468.489 155.129C466.72 159.985 463.404 161.497 459.563 165.041Z" fill="#E26554"/>
<path d="M55.5487 161.338C65.9477 170.935 87.7445 178.77 87.7445 178.77C87.7445 178.77 94.8787 157.359 87.6316 150.382C78.2273 141.328 39.0465 130.627 46.6229 151.426C48.3916 156.282 51.708 157.794 55.5487 161.338Z" fill="#FDA094"/>
<path d="M261.402 164.863C272.986 156.737 295.632 151.876 295.632 151.876C295.632 151.876 299.851 174.046 291.739 179.995C281.213 187.716 240.956 193.102 251.235 173.498C253.635 168.922 257.123 167.864 261.402 164.863Z" fill="#E26554"/>
</svg>
