<svg width="500" height="500" viewBox="0 0 500 500" fill="none" xmlns="http://www.w3.org/2000/svg">
<g clip-path="url(#clip0)">
<path d="M215.48 185.371C215.48 185.371 216.851 179.379 217.742 176.448C219.333 171.212 221.087 166.026 222.778 160.822C223.118 159.777 223.485 158.74 223.838 157.699C224.074 157.1 224.343 156.51 224.542 155.9C224.995 154.512 225.411 153.117 225.84 151.724C226.765 149.731 227.673 147.73 228.621 145.749C230.563 141.679 232.377 137.54 234.518 133.578C236.992 129.004 240.048 124.801 243.596 120.978C243.888 120.708 244.176 120.437 244.468 120.167L244.48 120.144C245.442 119.517 246.401 118.894 247.543 118.148C246.45 117.299 245.92 116.922 245.428 116.496C241.426 113.053 237.303 109.724 234.635 105.025C233.857 103.654 233.035 102.31 232.235 100.955C231.823 98.9748 231.349 97.0033 231.013 95.0087C230.625 92.6921 231.557 91.3729 233.892 91.2251C236.77 91.0421 239.685 90.893 242.545 91.1493C246.255 91.484 249.536 93.2634 252.482 95.4193C255.519 97.6404 258.332 100.178 261.152 102.679C262.048 103.475 262.661 103.501 263.79 103.099C269.026 101.24 274.274 99.3915 279.615 97.8822C283.281 96.8469 287.113 96.3919 290.866 95.647C298.646 94.0972 306.469 94.2181 314.24 95.4211C317.722 95.9605 321.131 97.1279 324.483 98.2761L324.709 98.3534C327.997 99.481 331.239 100.803 334.367 102.317C336.606 103.402 338.625 104.944 340.749 106.269C341.026 106.441 341.353 106.539 341.653 106.672C343.128 107.962 344.607 109.246 346.078 110.539C351.922 115.673 356.716 121.677 360.807 128.273C361.037 128.647 361.723 129.081 362.045 128.987C363.07 128.68 364.022 128.138 365.005 127.683C366.624 127.263 368.253 126.881 369.862 126.419C371.491 125.951 373.096 125.407 374.715 124.898C375.265 124.849 375.819 124.798 376.37 124.75C376.503 124.754 376.632 124.757 376.765 124.758C377.69 124.6 378.615 124.441 379.536 124.283C380.093 124.29 380.652 124.3 381.208 124.307C383.499 124.494 385.794 124.685 388.085 124.872C388.523 124.948 388.961 125.02 389.399 125.096C389.828 125.373 390.26 125.65 390.689 125.927C390.619 126.492 390.547 127.054 390.478 127.619C390.147 127.91 389.742 128.151 389.495 128.503C386.156 133.213 382.219 137.367 377.346 140.457C375.194 141.822 372.684 142.704 370.234 143.485C368.635 143.996 366.85 143.932 364.844 144.16C364.99 145.747 365.169 147.391 365.283 149.043C365.44 151.341 365.543 153.645 365.687 155.946C365.989 160.834 366.52 165.721 366.542 170.612C366.559 174.74 365.993 178.869 365.686 182.999C365.638 183.64 365.583 184.285 365.516 185.12C366.882 184.194 363.211 222.245 364.265 221.455C364.787 227.011 364.436 230.138 364.607 235.727C364.668 237.744 364.756 239.763 364.943 241.773C365.307 245.632 365.733 249.482 366.18 253.33C366.463 255.765 366.496 258.299 367.234 260.599C368.7 265.168 370.48 269.645 372.304 274.086C375.114 280.931 377.902 287.748 379.831 294.936C381.141 299.817 382.242 304.715 382.796 309.693C383.446 315.494 383.629 321.398 381.5 326.988C380.57 329.431 379.267 331.848 377.635 333.873C376.258 335.583 374.091 336.629 372.404 338.117C368.915 341.192 364.847 342.558 360.28 342.206C357.659 342.006 354.993 341.632 352.484 340.884C349.689 340.049 346.995 338.825 344.326 337.613L344.018 337.474C341.355 336.263 338.909 334.338 336.137 333.635C329.94 332.062 323.951 333.045 318.838 337.128C316.4 339.075 314.404 341.566 312.036 343.61C308.968 346.262 305.433 348.09 301.554 349.426C295.856 351.392 290.037 351.746 284.137 351.362C281.969 351.219 279.834 350.577 277.684 350.162L277.675 350.16C277.513 350.127 277.348 350.094 277.192 350.041C274.208 349.084 271.259 347.981 268.226 347.208C265.52 346.52 263.21 345.208 261.14 343.464C255.529 338.741 249.914 334.035 243.15 331.003C240.337 329.742 237.432 328.645 234.242 329.066C231.576 329.42 228.925 329.847 226.265 330.221C224.001 330.542 221.738 330.907 219.466 331.129C215.162 331.546 210.85 332.191 206.546 332.147C203.065 332.111 199.596 331.205 196.12 330.684L196.124 330.688L196.117 330.684C196.118 330.684 196.119 330.684 196.12 330.684L195.451 329.998L195.448 329.995C195.024 329.619 194.603 329.244 194.179 328.868L194.176 328.864C193.962 328.632 193.745 328.399 193.531 328.167L193.508 328.152C193.011 327.635 192.511 327.114 192.013 326.597C192.015 326.598 192.016 326.599 192.017 326.601L192.01 326.593C192.011 326.595 192.012 326.596 192.013 326.597C191.578 326.03 191.143 325.464 190.705 324.897L190.677 324.864L189.529 323.327C188.249 320.618 186.675 318.005 185.767 315.179C184.586 311.504 184.578 307.677 186.063 303.984C189.258 296.034 194.377 289.355 200.027 283.053C200.916 282.059 202.343 281.558 203.275 280.587C204.3 279.518 205.294 278.279 205.847 276.926C207.073 273.943 208.038 270.853 209.065 267.793C211.304 261.116 212.532 254.228 212.756 247.212C212.906 242.475 212.569 237.72 212.399 232.975C212.365 232.043 212.09 231.123 211.925 230.197C211.76 229.272 215.48 185.371 215.48 185.371Z" fill="#45B8CF"/>
<path d="M387.417 123.849C385.126 123.662 382.832 123.472 380.541 123.285C380.674 123.111 380.799 122.793 380.943 122.784C383.177 122.655 385.47 122.221 387.417 123.849Z" fill="#C6C6C7"/>
<path d="M378.87 123.261C377.945 123.419 377.02 123.577 376.099 123.736C376.858 122.615 377.836 122.778 378.87 123.261Z" fill="#C6C6C7"/>
<path d="M182.281 209.312C182.782 209.834 183.287 210.36 183.788 210.882C183.287 210.36 182.782 209.834 182.281 209.312Z" fill="#C6C6C7"/>
<path d="M190.041 323.873C190.477 324.441 190.913 325.009 191.353 325.577C190.913 325.012 190.477 324.441 190.041 323.873Z" fill="#C6C6C7"/>
<path d="M191.344 325.573C191.843 326.091 192.344 326.613 192.842 327.131C192.344 326.613 191.846 326.092 191.344 325.573Z" fill="#C6C6C7"/>
<path d="M390.026 124.901C389.597 124.624 389.165 124.347 388.736 124.07C389.164 124.351 389.593 124.627 390.026 124.901Z" fill="#C6C6C7"/>
<path d="M188.862 322.304C189.245 322.816 189.627 323.328 190.01 323.841C189.627 323.328 189.245 322.816 188.862 322.304Z" fill="#C6C6C7"/>
<path d="M375.7 123.723C375.149 123.771 374.595 123.822 374.045 123.87C374.595 123.819 375.149 123.771 375.7 123.723Z" fill="#C6C6C7"/>
<path d="M193.512 327.848C193.936 328.223 194.357 328.599 194.781 328.974C194.357 328.595 193.936 328.223 193.512 327.848Z" fill="#C6C6C7"/>
<path d="M243.8 119.139C243.509 119.409 243.221 119.68 242.93 119.95C243.221 119.68 243.512 119.41 243.8 119.139Z" fill="#C6C6C7"/>
<path d="M185.059 212.191C185.227 212.102 185.395 212.01 185.562 211.921C185.584 212.111 185.607 212.3 185.626 212.489C185.439 212.389 185.249 212.292 185.059 212.191Z" fill="#C6C6C7"/>
<path d="M181.63 208.601C181.847 208.836 182.063 209.075 182.276 209.311C182.063 209.072 181.847 208.836 181.63 208.601Z" fill="#C6C6C7"/>
<path d="M185.938 212.829C186.074 212.789 186.207 212.748 186.343 212.704C186.323 212.877 186.306 213.049 186.285 213.222C186.169 213.093 186.053 212.961 185.938 212.829Z" fill="#C6C6C7"/>
<path d="M192.864 327.146C193.077 327.379 193.294 327.611 193.507 327.843C193.294 327.611 193.081 327.379 192.864 327.146Z" fill="#C6C6C7"/>
<path d="M194.786 328.976C195.01 329.205 195.233 329.435 195.457 329.664C195.233 329.438 195.01 329.205 194.786 328.976Z" fill="#C6C6C7"/>
<path d="M308.37 151.989L308.342 152.117L308.256 152.214C308.189 152.666 308.127 153.118 308.06 153.57C307.864 153.887 307.668 154.205 307.475 154.524C306.531 156.178 305.591 157.832 304.647 159.486C304.049 160.281 303.452 161.076 302.852 161.869C301.525 163.227 300.196 164.589 298.872 165.949C298.607 166.244 298.346 166.542 298.079 166.84C297.407 167.378 296.735 167.921 296.062 168.459C295.936 168.599 295.81 168.738 295.686 168.875C295.083 169.287 294.482 169.7 293.879 170.112C291.492 172.258 288.547 173.424 285.591 174.359C278.448 176.622 271.244 175.967 264.317 173.566C259.561 171.919 255.478 168.98 252.203 164.961C246.686 158.193 245.648 150.378 246.253 142.054C246.649 136.589 248.501 131.668 251.735 127.334C255.088 122.843 259.575 119.761 264.919 118.055C268.544 116.898 272.201 115.744 275.925 115.015C280.172 114.18 284.568 114.594 288.521 116.163C292.841 117.874 296.643 120.569 299.916 124.105C302.953 127.387 305.179 131.023 306.722 135.116C308.428 139.643 308.947 144.372 308.656 149.193C308.626 149.715 308.497 150.232 308.415 150.749C308.399 151.163 308.387 151.575 308.37 151.989ZM256.269 164.101C256.258 164.297 256.161 164.608 256.25 164.675C257.844 165.91 259.455 167.116 261.081 168.308C261.152 168.361 261.397 168.171 261.56 168.097C262.278 168.551 262.94 169.168 263.724 169.433C267.824 170.83 271.98 170.877 276.115 169.613C280.061 168.408 283.476 166.425 286.642 163.645C289.128 161.458 290.746 158.861 291.81 156.015C292.894 153.115 292.959 149.91 292.408 146.732C291.243 140.01 288.32 134.394 282.61 130.462C281.055 129.392 279.329 128.577 277.689 127.63C275.028 126.092 272.066 125.771 269.099 125.628C264.12 125.39 259.596 126.684 255.429 129.538C252.65 131.446 250.734 133.963 249.502 136.935C248.249 139.959 248.205 143.244 248.625 146.489C249.095 150.109 249.383 153.775 250.948 157.157C251.05 157.519 251.153 157.882 251.253 158.242C251.396 158.426 251.536 158.608 251.681 158.789C251.83 159.152 251.979 159.516 252.125 159.877C252.442 160.174 252.756 160.47 253.076 160.765C253.199 161.118 253.216 161.582 253.461 161.8C254.36 162.616 255.329 163.344 256.269 164.101Z" fill="#FEFEFE"/>
<path d="M287.406 192.987C279.693 192.987 279.914 187.243 280.906 184.986C282.981 180.27 285.651 180.486 289.906 180.486C289.906 180.486 296.693 181.231 295.906 186.487C295.119 191.744 290.233 192.987 287.406 192.987Z" fill="#010101"/>
<path d="M271.139 174.987C272.997 175.382 274.858 175.777 276.716 176.168C274.858 175.777 272.997 175.382 271.139 174.987Z" fill="#C6C6C7"/>
<path d="M279.688 176.411C281.591 176.324 283.491 176.233 285.393 176.147C283.491 176.233 281.587 176.324 279.688 176.411Z" fill="#C6C6C7"/>
<path d="M267.514 173.959C268.328 174.239 269.146 174.517 269.961 174.797C269.146 174.517 268.328 174.236 267.514 173.959Z" fill="#C6C6C7"/>
<path d="M264.947 173C265.618 173.289 266.288 173.575 266.958 173.865C266.292 173.576 265.618 173.289 264.947 173Z" fill="#C6C6C7"/>
<path d="M286.509 176.13C286.927 175.945 287.341 175.756 287.759 175.571C287.341 175.759 286.927 175.945 286.509 176.13Z" fill="#C6C6C7"/>
<path d="M288.007 175.546C288.362 175.339 288.721 175.128 289.076 174.921C288.721 175.128 288.366 175.339 288.007 175.546Z" fill="#C6C6C7"/>
<path d="M251.656 158.45C249.862 155.182 249.322 151.544 248.601 147.968C247.956 144.762 247.775 141.48 248.816 138.376C249.839 135.327 251.577 132.683 254.217 130.588C258.174 127.451 262.599 125.847 267.584 125.743C270.555 125.68 273.529 125.793 276.292 127.146C277.994 127.977 279.775 128.673 281.398 129.631C287.365 133.159 290.67 138.559 292.296 145.185C293.066 148.318 293.223 151.52 292.342 154.487C291.478 157.397 290.042 160.102 287.713 162.456C284.75 165.45 281.475 167.665 277.623 169.138C273.583 170.682 269.437 170.925 265.25 169.814C264.451 169.6 263.747 169.034 263.001 168.632C262.32 168.155 261.586 167.735 260.974 167.176C260.549 166.787 260.293 166.211 259.962 165.721C260.907 165.997 261.841 166.472 262.793 166.517C269.369 166.847 274.288 162.012 274.637 156.314C274.955 151.091 273.738 146.264 270.172 142.061C268.333 139.895 266.201 138.489 263.624 138.389C257.248 138.14 252.796 142.88 252.408 148.675C252.21 151.635 252.952 154.66 253.266 157.656C253.686 158.561 254.106 159.466 254.528 160.373C254.648 160.495 254.768 160.617 254.887 160.739C255.096 161.118 255.305 161.497 255.514 161.876C255.624 161.882 255.688 161.94 255.702 162.05C255.146 162.007 254.59 161.963 254.036 161.916C253.699 161.641 253.364 161.367 253.026 161.095C252.852 160.743 252.678 160.391 252.508 160.041C252.352 159.867 252.2 159.696 252.043 159.525C251.908 159.157 251.783 158.805 251.656 158.45ZM269.83 133.346C268.753 134.99 268.96 136.881 270.026 138.749C270.919 140.314 272.572 140.525 273.779 139.225C274.892 138.027 274.432 133.874 272.928 133.325C271.915 132.961 270.641 133.324 269.83 133.346ZM280.441 137.294C279.131 137.654 277.871 137.783 276.843 138.342C275.507 139.071 275.886 140.339 276.51 141.405C276.757 141.825 277.336 142.391 277.701 142.347C279.709 142.115 280.562 140.944 280.422 138.901C280.398 138.536 280.429 138.163 280.441 137.294Z" fill="#010101"/>
<path d="M250.481 140.55C250.206 141.075 249.818 141.573 249.681 142.136C249.48 142.94 249.46 143.786 249.363 144.611C249.21 144.51 248.922 144.405 248.929 144.317C249.062 142.305 249.223 140.299 249.414 138.292C249.423 138.18 249.737 138.099 249.909 138C250.153 138.16 250.396 138.323 250.639 138.482C250.581 139.171 250.529 139.861 250.481 140.55Z" fill="#45B8CF"/>
<path d="M250.633 138.485C250.389 138.325 250.146 138.162 249.903 138.003C250.039 136.804 250.136 135.596 250.341 134.406C250.397 134.086 250.777 133.82 251.009 133.527C251.235 134.037 251.46 134.547 251.682 135.057C251.335 136.201 250.984 137.341 250.633 138.485Z" fill="#1F2247"/>
<path d="M251.936 131.29C251.709 131.61 251.482 131.93 251.255 132.247C251.482 131.93 251.709 131.61 251.936 131.29Z" fill="#1F2247"/>
<path d="M252.926 129.8C252.675 130.08 252.424 130.36 252.173 130.637C252.424 130.357 252.675 130.08 252.926 129.8Z" fill="#1F2247"/>
<path d="M258.206 164.595C257.367 163.742 256.53 162.892 255.691 162.039C255.677 161.929 255.613 161.871 255.504 161.87C255.295 161.491 255.087 161.112 254.878 160.733C254.758 160.611 254.638 160.488 254.519 160.366C254.099 159.461 253.679 158.556 253.257 157.649C252.942 154.653 252.198 151.631 252.398 148.668C252.786 142.873 257.241 138.135 263.614 138.383C266.194 138.484 268.323 139.889 270.162 142.054C273.731 146.259 274.948 151.086 274.628 156.308C274.281 162.008 269.359 166.84 262.783 166.511C261.828 166.463 260.897 165.99 259.952 165.714C259.37 165.341 258.788 164.968 258.206 164.595Z" fill="#FEFEFE"/>
<path d="M269.831 133.347C270.641 133.324 271.915 132.961 272.927 133.328C274.43 133.877 274.891 138.03 273.777 139.228C272.569 140.523 270.919 140.314 270.024 138.752C268.958 136.884 268.756 134.992 269.831 133.347Z" fill="#FEFEFE"/>
<path d="M280.44 137.293C280.428 138.162 280.395 138.534 280.421 138.9C280.562 140.943 279.709 142.115 277.7 142.347C277.335 142.39 276.756 141.824 276.509 141.404C275.885 140.338 275.508 139.067 276.842 138.342C277.871 137.787 279.132 137.658 280.44 137.293Z" fill="#FEFEFE"/>
<path d="M254.392 130.827C253.795 131.627 253.198 132.43 252.601 133.229C253.198 132.43 253.795 131.627 254.392 130.827Z" fill="#1F2247"/>
<path d="M252.452 133.72C252.218 134.084 251.984 134.448 251.75 134.811C251.984 134.448 252.218 134.084 252.452 133.72Z" fill="#1F2247"/>
<path d="M184.527 236.307C193.221 223.373 214.577 209.42 214.577 209.42C214.577 209.42 227.681 230.541 221.696 239.864C213.929 251.963 174.679 273.42 177.492 249.204C178.149 243.551 181.316 241.085 184.527 236.307Z" fill="#45B8CF"/>
<path d="M390.895 223.733C378.136 214.783 353.195 209.429 353.195 209.429C353.195 209.429 348.548 233.846 357.483 240.399C369.076 248.902 413.413 254.834 402.092 233.243C399.449 228.202 395.607 227.038 390.895 223.733Z" fill="#45B8CF"/>
<path d="M55.48 377.371C55.48 377.371 56.8514 371.379 57.7421 368.448C59.3331 363.212 61.0874 358.026 62.7784 352.822C63.1183 351.777 63.4849 350.74 63.8381 349.699C64.074 349.1 64.3433 348.51 64.5424 347.9C64.9952 346.512 65.4109 345.117 65.8402 343.724C66.765 341.731 67.6733 339.73 68.6211 337.749C70.5629 333.679 72.3769 329.54 74.5184 325.578C76.9925 321.004 80.0484 316.801 83.5964 312.978C83.888 312.708 84.1761 312.437 84.4676 312.167L84.4797 312.144C85.442 311.517 86.4007 310.894 87.5433 310.148C86.4498 309.299 85.9197 308.922 85.4277 308.496C81.4263 305.053 77.303 301.724 74.6354 297.025C73.857 295.654 73.0353 294.31 72.2351 292.955C71.8232 290.975 71.3491 289.003 71.0134 287.009C70.625 284.692 71.5573 283.373 73.8922 283.225C76.7696 283.042 79.6854 282.893 82.5447 283.149C86.2553 283.484 89.5358 285.263 92.4822 287.419C95.519 289.64 98.3323 292.178 101.152 294.679C102.048 295.475 102.661 295.501 103.79 295.099C109.026 293.24 114.274 291.392 119.615 289.882C123.281 288.847 127.113 288.392 130.866 287.647C138.646 286.097 146.469 286.218 154.24 287.421C157.722 287.96 161.131 289.128 164.483 290.276L164.709 290.353C167.997 291.481 171.239 292.803 174.367 294.317C176.606 295.402 178.625 296.944 180.749 298.269C181.026 298.441 181.353 298.539 181.653 298.672C183.128 299.962 184.607 301.246 186.078 302.539C191.922 307.673 196.716 313.677 200.807 320.273C201.037 320.647 201.723 321.081 202.045 320.987C203.07 320.68 204.022 320.138 205.005 319.683C206.624 319.263 208.253 318.881 209.862 318.419C211.491 317.951 213.096 317.407 214.715 316.898C215.265 316.849 215.819 316.798 216.37 316.75C216.503 316.754 216.632 316.757 216.765 316.758C217.69 316.6 218.615 316.441 219.536 316.283C220.093 316.29 220.652 316.3 221.208 316.307C223.499 316.494 225.794 316.685 228.085 316.872C228.523 316.948 228.961 317.02 229.399 317.096C229.828 317.373 230.26 317.65 230.689 317.927C230.619 318.492 230.547 319.054 230.478 319.619C230.147 319.91 229.742 320.151 229.495 320.503C226.156 325.213 222.219 329.367 217.346 332.457C215.194 333.822 212.684 334.704 210.234 335.485C208.635 335.996 206.85 335.932 204.844 336.16C204.99 337.747 205.169 339.391 205.283 341.043C205.44 343.341 205.543 345.645 205.687 347.946C205.989 352.834 206.52 357.721 206.542 362.612C206.559 366.74 205.993 370.869 205.686 374.999C205.638 375.64 205.583 376.285 205.516 377.12C206.882 376.194 203.211 414.245 204.265 413.455C204.787 419.011 204.436 422.138 204.607 427.727C204.668 429.744 204.756 431.763 204.943 433.773C205.307 437.632 205.733 441.482 206.18 445.33C206.463 447.765 206.496 450.299 207.234 452.599C208.7 457.168 210.48 461.645 212.304 466.086C215.114 472.931 217.902 479.748 219.831 486.936C221.141 491.817 222.242 496.715 222.796 501.693C223.446 507.494 223.629 513.398 221.5 518.988C220.57 521.431 219.267 523.848 217.635 525.873C216.258 527.583 214.091 528.629 212.404 530.117C208.915 533.192 204.847 534.558 200.28 534.206C197.659 534.006 194.993 533.632 192.484 532.884C189.689 532.049 186.994 530.825 184.326 529.613L184.018 529.474C181.355 528.263 178.909 526.338 176.137 525.635C169.94 524.062 163.951 525.045 158.838 529.128C156.4 531.075 154.404 533.566 152.036 535.61C148.968 538.262 145.433 540.09 141.554 541.426C135.856 543.392 130.037 543.746 124.137 543.362C121.969 543.219 119.834 542.577 117.684 542.162L117.675 542.16C117.513 542.127 117.348 542.094 117.192 542.041C114.208 541.084 111.259 539.981 108.226 539.208C105.52 538.52 103.21 537.208 101.14 535.464C95.5292 530.741 89.9139 526.035 83.15 523.003C80.3369 521.742 77.4322 520.645 74.2419 521.066C71.5763 521.42 68.9253 521.847 66.2648 522.221C64.0015 522.542 61.738 522.907 59.4656 523.129C55.1619 523.546 50.8502 524.191 46.5459 524.147C43.0653 524.111 39.5963 523.205 36.1203 522.684L36.1237 522.688L36.1172 522.684C36.1182 522.684 36.1193 522.684 36.1203 522.684L35.4512 521.998L35.4481 521.995C35.0238 521.619 34.603 521.244 34.1787 520.868L34.1755 520.864C33.9618 520.632 33.7448 520.399 33.5311 520.167L33.5084 520.152L32.0135 518.597C32.0146 518.598 32.0156 518.599 32.0167 518.601L32.0104 518.593L32.0135 518.597C31.5783 518.03 31.1432 517.464 30.7046 516.897L30.6765 516.864L29.5288 515.327C28.2494 512.618 26.6753 510.005 25.7674 507.179C24.5859 503.504 24.578 499.677 26.0626 495.984C29.2579 488.034 34.3773 481.355 40.0266 475.053C40.9159 474.059 42.343 473.558 43.2748 472.587C44.2999 471.518 45.2941 470.279 45.8466 468.926C47.0727 465.943 48.0375 462.853 49.0649 459.793C51.3042 453.116 52.5322 446.228 52.7557 439.212C52.9061 434.475 52.5694 429.72 52.3994 424.975C52.3647 424.043 52.0899 423.123 51.9249 422.197C51.7598 421.272 55.48 377.371 55.48 377.371Z" fill="#FC7361"/>
<path d="M227.417 315.849C225.126 315.662 222.832 315.472 220.541 315.285C220.674 315.111 220.799 314.793 220.943 314.784C223.177 314.655 225.47 314.221 227.417 315.849Z" fill="#C6C6C7"/>
<path d="M218.87 315.261C217.945 315.419 217.02 315.577 216.099 315.736C216.858 314.615 217.836 314.778 218.87 315.261Z" fill="#C6C6C7"/>
<path d="M22.2808 401.312C22.7822 401.834 23.2867 402.36 23.7881 402.882C23.2867 402.36 22.7822 401.834 22.2808 401.312Z" fill="#C6C6C7"/>
<path d="M230.026 316.901C229.597 316.624 229.165 316.347 228.736 316.07C229.164 316.351 229.593 316.627 230.026 316.901Z" fill="#C6C6C7"/>
<path d="M215.7 315.723C215.149 315.771 214.595 315.822 214.045 315.87C214.595 315.819 215.149 315.771 215.7 315.723Z" fill="#C6C6C7"/>
<path d="M83.8001 311.139C83.5089 311.409 83.2211 311.68 82.93 311.95C83.2211 311.68 83.5123 311.41 83.8001 311.139Z" fill="#C6C6C7"/>
<path d="M25.0593 404.191C25.2268 404.102 25.3945 404.01 25.562 403.921C25.5844 404.111 25.6067 404.3 25.6257 404.489C25.4393 404.389 25.2491 404.292 25.0593 404.191Z" fill="#C6C6C7"/>
<path d="M21.6304 400.601C21.8469 400.836 22.0632 401.075 22.2764 401.311C22.0635 401.072 21.8469 400.836 21.6304 400.601Z" fill="#C6C6C7"/>
<path d="M25.9377 404.829C26.074 404.789 26.2069 404.748 26.3435 404.704C26.3229 404.877 26.3056 405.049 26.285 405.222C26.169 405.093 26.0534 404.961 25.9377 404.829Z" fill="#C6C6C7"/>
<path d="M128.007 367.546L127.884 367.591L127.756 367.57C127.338 367.755 126.923 367.944 126.505 368.129C126.132 368.134 125.759 368.138 125.386 368.146C123.483 368.232 121.584 368.323 119.681 368.41C118.689 368.33 117.698 368.251 116.707 368.168C114.85 367.773 112.989 367.378 111.131 366.987C110.74 366.922 110.349 366.86 109.954 366.794C109.14 366.513 108.322 366.236 107.507 365.956C107.322 365.924 107.136 365.892 106.954 365.86C106.284 365.571 105.614 365.285 104.943 364.995C101.853 364.126 99.2931 362.261 96.9216 360.264C91.1895 355.439 87.889 349.002 86.2126 341.864C85.0608 336.965 85.3604 331.944 87.0045 327.026C89.7719 318.745 95.8205 313.688 103.177 309.747C108.006 307.158 113.155 306.091 118.546 306.506C124.135 306.936 129.139 309.079 133.438 312.682C136.355 315.126 139.286 317.599 141.894 320.356C144.871 323.498 146.872 327.433 147.661 331.613C148.525 336.178 148.283 340.832 147.045 345.488C145.897 349.81 144.015 353.636 141.382 357.128C138.469 360.991 134.751 363.959 130.522 366.292C130.065 366.546 129.56 366.714 129.078 366.921C128.72 367.128 128.365 367.339 128.007 367.546ZM89.9057 330.002C89.7341 330.097 89.4199 330.181 89.4109 330.293C89.2194 332.3 89.0622 334.307 88.9251 336.318C88.918 336.406 89.2102 336.512 89.3596 336.609C89.3598 337.46 89.1929 338.348 89.3881 339.153C90.4003 343.364 92.5837 346.901 95.8631 349.719C98.9922 352.408 102.495 354.233 106.537 355.421C109.714 356.352 112.774 356.33 115.748 355.708C118.777 355.072 121.52 353.413 123.911 351.247C128.968 346.668 132.15 341.193 132.417 334.266C132.49 332.38 132.255 330.485 132.178 328.593C132.055 325.523 130.742 322.848 129.275 320.264C126.814 315.93 123.3 312.8 118.66 310.806C115.562 309.478 112.41 309.205 109.24 309.754C106.015 310.312 103.216 312.032 100.698 314.123C97.891 316.457 94.9474 318.66 92.9271 321.792C92.6757 322.072 92.4244 322.353 92.1733 322.63C92.0943 322.849 92.0155 323.065 91.9399 323.284C91.7127 323.604 91.4855 323.924 91.2586 324.241C91.1766 324.668 91.0948 325.092 91.0162 325.52C90.7844 325.812 90.4012 326.075 90.3479 326.399C90.1394 327.595 90.0426 328.803 89.9057 330.002Z" fill="#FEFEFE"/>
<path d="M126.386 395.368C110.909 394.117 105.5 386 108 380.316C110.075 375.6 118.799 381.083 125.469 380.317C130.758 379.71 137.883 373.348 142.5 375.5C148.433 378.266 147.904 388.212 138.883 392.982C135.409 394.818 132.474 395.861 126.386 395.368Z" fill="#010101"/>
<path d="M111.139 366.987C112.997 367.382 114.858 367.777 116.716 368.168C114.858 367.777 112.997 367.382 111.139 366.987Z" fill="#C6C6C7"/>
<path d="M119.688 368.411C121.591 368.324 123.491 368.233 125.393 368.147C123.491 368.233 121.587 368.324 119.688 368.411Z" fill="#C6C6C7"/>
<path d="M107.514 365.959C108.328 366.239 109.146 366.517 109.961 366.797C109.146 366.517 108.328 366.236 107.514 365.959Z" fill="#C6C6C7"/>
<path d="M104.947 365C105.618 365.289 106.288 365.575 106.958 365.865C106.292 365.576 105.618 365.289 104.947 365Z" fill="#C6C6C7"/>
<path d="M126.509 368.13C126.927 367.945 127.341 367.756 127.759 367.571C127.341 367.759 126.927 367.945 126.509 368.13Z" fill="#C6C6C7"/>
<path d="M128.007 367.546C128.362 367.339 128.721 367.128 129.076 366.921C128.721 367.128 128.366 367.339 128.007 367.546Z" fill="#C6C6C7"/>
<path d="M92.927 321.799C94.9508 318.668 97.8943 316.464 100.698 314.13C103.212 312.039 106.015 310.32 109.24 309.761C112.41 309.212 115.562 309.485 118.66 310.813C123.3 312.804 126.814 315.934 129.275 320.272C130.742 322.856 132.055 325.526 132.178 328.601C132.255 330.492 132.489 332.39 132.417 334.274C132.149 341.201 128.968 346.675 123.911 351.254C121.52 353.42 118.777 355.079 115.748 355.715C112.777 356.338 109.714 356.359 106.536 355.428C102.494 354.244 98.9888 352.415 95.863 349.726C92.5839 346.905 90.4003 343.372 89.3881 339.16C89.1963 338.356 89.3597 337.467 89.3592 336.62C89.4561 335.794 89.476 334.948 89.677 334.145C89.8174 333.585 90.2024 333.087 90.4767 332.562C90.6831 333.525 90.7086 334.572 91.1214 335.432C93.9559 341.374 100.547 343.405 105.727 341.005C110.474 338.802 114.143 335.437 116.146 330.303C117.178 327.656 117.402 325.111 116.265 322.797C113.455 317.068 107.169 315.403 101.886 317.816C99.1872 319.048 96.8778 321.138 94.3913 322.839C93.7944 323.638 93.1974 324.437 92.6002 325.24C92.5496 325.404 92.4989 325.567 92.4483 325.73C92.2142 326.094 91.98 326.458 91.7459 326.822C91.7926 326.921 91.7723 327.005 91.6817 327.069C91.4561 326.559 91.2304 326.049 91.0082 325.54C91.0902 325.112 91.172 324.689 91.2507 324.261C91.4779 323.941 91.705 323.621 91.932 323.304C92.011 323.085 92.0897 322.869 92.1654 322.65C92.4246 322.357 92.6757 322.079 92.927 321.799ZM123.652 325.861C121.694 325.694 120.128 326.775 118.991 328.6C118.039 330.13 118.639 331.684 120.355 332.129C121.938 332.539 125.374 330.16 125.142 328.577C124.982 327.512 124.057 326.563 123.652 325.861ZM125.221 337.073C124.281 336.092 123.569 335.044 122.588 334.406C121.312 333.576 120.376 334.512 119.735 335.567C119.483 335.985 119.26 336.763 119.472 337.063C120.63 338.721 122.067 338.914 123.798 337.819C124.107 337.626 124.45 337.475 125.221 337.073Z" fill="#010101"/>
<path d="M90.4806 332.55C90.2063 333.075 89.8179 333.573 89.6806 334.136C89.4796 334.94 89.4597 335.786 89.3629 336.611C89.2104 336.51 88.9216 336.405 88.9286 336.317C89.0624 334.305 89.223 332.299 89.4145 330.292C89.4234 330.18 89.7374 330.099 89.9093 330C90.1527 330.16 90.3959 330.323 90.6393 330.482C90.5808 331.171 90.529 331.861 90.4806 332.55Z" fill="#FDA094"/>
<path d="M90.6326 330.485C90.3891 330.325 90.1459 330.162 89.9025 330.003C90.0395 328.804 90.1362 327.596 90.3408 326.406C90.3971 326.086 90.7772 325.82 91.009 325.527C91.2346 326.037 91.4602 326.547 91.6825 327.057C91.3347 328.201 90.9838 329.341 90.6326 330.485Z" fill="#1F2247"/>
<path d="M91.9362 323.29C91.7091 323.61 91.4819 323.93 91.255 324.247C91.4819 323.93 91.7091 323.61 91.9362 323.29Z" fill="#1F2247"/>
<path d="M92.9256 321.8C92.6746 322.08 92.4235 322.36 92.1727 322.637C92.4238 322.357 92.6746 322.08 92.9256 321.8Z" fill="#1F2247"/>
<path d="M90.6329 330.482C90.9841 329.338 91.335 328.198 91.6862 327.055C91.7768 326.99 91.7971 326.906 91.7468 326.81C91.9809 326.446 92.215 326.082 92.4491 325.718C92.4998 325.555 92.5504 325.392 92.6011 325.228C93.198 324.429 93.795 323.63 94.3922 322.827C96.8787 321.126 99.1846 319.036 101.886 317.804C107.17 315.391 113.455 317.059 116.266 322.785C117.403 325.103 117.179 327.644 116.147 330.291C114.143 335.429 110.475 338.794 105.728 340.993C100.548 343.397 93.9568 341.362 91.1223 335.42C90.7097 334.557 90.684 333.513 90.4775 332.55C90.5293 331.861 90.5811 331.171 90.6329 330.482Z" fill="#FEFEFE"/>
<path d="M123.651 325.861C124.056 326.563 124.981 327.512 125.138 328.577C125.37 330.16 121.934 332.539 120.351 332.129C118.638 331.681 118.038 330.13 118.987 328.6C120.124 326.775 121.693 325.698 123.651 325.861Z" fill="#FEFEFE"/>
<path d="M125.22 337.072C124.45 337.475 124.107 337.622 123.798 337.819C122.067 338.914 120.63 338.72 119.472 337.063C119.26 336.762 119.483 335.984 119.735 335.567C120.376 334.511 121.316 333.575 122.588 334.405C123.565 335.047 124.277 336.094 125.22 337.072Z" fill="#FEFEFE"/>
<path d="M94.3923 322.827C93.7954 323.627 93.1982 324.43 92.6012 325.229C93.1982 324.43 93.7954 323.627 94.3923 322.827Z" fill="#1F2247"/>
<path d="M92.4523 325.72C92.2182 326.084 91.9841 326.448 91.75 326.811C91.9841 326.448 92.2182 326.084 92.4523 325.72Z" fill="#1F2247"/>
<path d="M26.5368 423.516C35.7805 410.969 57.7176 397.949 57.7176 397.949C57.7176 397.949 69.8993 419.615 63.5175 428.672C55.2362 440.425 15.0976 460.17 18.952 436.097C19.8518 430.478 23.1227 428.15 26.5368 423.516Z" fill="#FC7361"/>
<path d="M229.689 429.848C222.151 416.208 202.087 400.454 202.087 400.454C202.087 400.454 187.199 420.357 192.352 430.165C199.039 442.892 236.278 467.676 235.578 443.307C235.415 437.618 232.473 434.886 229.689 429.848Z" fill="#FC7361"/>
<path d="M366.034 209.532C366.034 209.532 367.269 204.562 368.057 202.133C369.463 197.795 371.005 193.502 372.495 189.193C372.794 188.327 373.115 187.469 373.426 186.607C373.632 186.112 373.865 185.624 374.04 185.12C374.439 183.97 374.807 182.815 375.186 181.66C375.988 180.014 376.775 178.361 377.596 176.726C379.276 173.365 380.852 169.945 382.697 166.677C384.829 162.904 387.44 159.45 390.456 156.32C390.703 156.099 390.947 155.878 391.194 155.657L391.204 155.638C392.016 155.131 392.824 154.627 393.788 154.023C392.89 153.299 392.454 152.976 392.051 152.614C388.77 149.684 385.387 146.846 383.237 142.89C382.609 141.736 381.946 140.604 381.3 139.462C380.987 137.806 380.623 136.156 380.374 134.489C380.086 132.553 380.884 131.468 382.831 131.381C385.231 131.274 387.663 131.194 390.041 131.452C393.127 131.788 395.833 133.322 398.254 135.163C400.75 137.061 403.054 139.219 405.365 141.346C406.099 142.023 406.609 142.054 407.556 141.737C411.947 140.269 416.348 138.81 420.821 137.635C423.892 136.83 427.091 136.51 430.229 135.947C436.735 134.777 443.251 134.998 449.707 136.121C452.599 136.624 455.421 137.65 458.196 138.658L458.383 138.726C461.105 139.716 463.786 140.868 466.368 142.178C468.217 143.116 469.875 144.432 471.624 145.569C471.852 145.717 472.123 145.803 472.371 145.919C473.58 147.017 474.792 148.109 475.998 149.209C480.787 153.577 484.688 158.653 487.994 164.212C488.18 164.527 488.745 164.899 489.014 164.826C489.874 164.586 490.675 164.149 491.501 163.785C492.856 163.46 494.219 163.167 495.567 162.807C496.931 162.443 498.277 162.014 499.634 161.615C500.093 161.583 500.555 161.549 501.015 161.518C501.125 161.523 501.233 161.528 501.344 161.53C502.117 161.413 502.89 161.295 503.66 161.177C504.124 161.192 504.589 161.209 505.053 161.224C506.959 161.415 508.867 161.609 510.773 161.8C511.137 161.87 511.501 161.938 511.864 162.008C512.217 162.245 512.573 162.483 512.926 162.72C512.86 163.19 512.791 163.656 512.724 164.126C512.444 164.363 512.103 164.558 511.892 164.848C509.037 168.72 505.693 172.119 501.585 174.619C499.771 175.723 497.666 176.419 495.613 177.031C494.273 177.432 492.787 177.351 491.111 177.511C491.209 178.835 491.333 180.207 491.402 181.585C491.498 183.502 491.547 185.423 491.631 187.342C491.807 191.42 492.174 195.499 492.117 199.574C492.068 203.014 491.532 206.445 491.212 209.881C491.162 210.415 491.107 210.951 491.038 211.646C492.19 210.896 488.542 242.54 489.433 241.898C489.781 246.535 489.441 249.135 489.497 253.794C489.516 255.475 489.558 257.159 489.683 258.836C489.927 262.057 490.222 265.271 490.535 268.484C490.733 270.517 490.722 272.628 491.301 274.556C492.451 278.385 493.865 282.143 495.316 285.871C497.551 291.617 499.768 297.34 501.264 303.358C502.28 307.445 503.121 311.543 503.506 315.698C503.957 320.542 504.018 325.464 502.159 330.087C501.346 332.109 500.222 334.102 498.832 335.764C497.658 337.167 495.836 338.005 494.408 339.219C491.454 341.727 488.043 342.801 484.244 342.437C482.063 342.231 479.848 341.878 477.769 341.216C475.453 340.477 473.228 339.415 471.023 338.365L470.769 338.243C468.569 337.193 466.561 335.552 464.262 334.923C459.123 333.517 454.119 334.243 449.796 337.566C447.734 339.15 446.033 341.194 444.029 342.861C441.431 345.022 438.458 346.491 435.206 347.544C430.428 349.093 425.574 349.298 420.665 348.887C418.861 348.735 417.092 348.167 415.308 347.788L415.3 347.786C415.166 347.756 415.029 347.725 414.899 347.679C412.428 346.836 409.988 345.871 407.473 345.18C405.23 344.565 403.326 343.436 401.627 341.951C397.026 337.929 392.421 333.922 386.833 331.291C384.508 330.197 382.105 329.238 379.441 329.54C377.215 329.793 374.999 330.107 372.777 330.378C370.886 330.611 368.995 330.88 367.098 331.029C363.506 331.31 359.904 331.781 356.319 331.678C353.42 331.594 350.543 330.785 347.656 330.297L347.658 330.3L347.653 330.297C347.654 330.297 347.655 330.297 347.656 330.297L347.109 329.716L347.106 329.713C346.759 329.393 346.414 329.074 346.066 328.754L346.064 328.751C345.889 328.554 345.712 328.357 345.537 328.16L345.519 328.147L344.297 326.829C344.298 326.829 344.299 326.83 344.299 326.831L344.295 326.826L344.297 326.829C343.944 326.35 343.59 325.871 343.233 325.392L343.21 325.364L342.278 324.066C341.254 321.789 339.983 319.588 339.27 317.219C338.343 314.139 338.396 310.951 339.69 307.897C342.475 301.323 346.843 295.838 351.647 290.675C352.404 289.86 353.6 289.465 354.392 288.671C355.262 287.796 356.11 286.779 356.591 285.661C357.659 283.194 358.51 280.635 359.414 278.101C361.383 272.573 362.512 266.853 362.807 261.011C363.006 257.068 362.799 253.101 362.731 249.145C362.716 248.368 362.502 247.597 362.378 246.823C362.255 246.05 366.034 209.532 366.034 209.532Z" fill="#9CE4F3"/>
<path d="M338.004 228.965C338.414 229.407 338.826 229.853 339.235 230.295C338.826 229.853 338.414 229.407 338.004 228.965Z" fill="#C6C6C7"/>
<path d="M342.696 324.53C343.051 325.01 343.406 325.49 343.763 325.97C343.405 325.493 343.051 325.01 342.696 324.53Z" fill="#C6C6C7"/>
<path d="M343.756 325.967C344.163 326.406 344.573 326.849 344.98 327.288C344.573 326.849 344.166 326.406 343.756 325.967Z" fill="#C6C6C7"/>
<path d="M341.738 323.205C342.049 323.638 342.36 324.071 342.671 324.503C342.36 324.071 342.049 323.638 341.738 323.205Z" fill="#C6C6C7"/>
<path d="M500.473 160.653C500.014 160.684 499.551 160.719 499.092 160.75C499.551 160.716 500.014 160.684 500.473 160.653Z" fill="#C6C6C7"/>
<path d="M345.526 327.896C345.874 328.215 346.219 328.534 346.567 328.854C346.219 328.531 345.874 328.215 345.526 327.896Z" fill="#C6C6C7"/>
<path d="M390.654 154.792C390.407 155.013 390.163 155.234 389.916 155.454C390.163 155.234 390.41 155.013 390.654 154.792Z" fill="#C6C6C7"/>
<path d="M340.274 231.407C340.415 231.336 340.557 231.261 340.697 231.19C340.713 231.348 340.729 231.506 340.742 231.664C340.588 231.578 340.431 231.494 340.274 231.407Z" fill="#C6C6C7"/>
<path d="M337.473 228.362C337.65 228.562 337.826 228.765 338 228.964C337.827 228.762 337.65 228.562 337.473 228.362Z" fill="#C6C6C7"/>
<path d="M340.996 231.953C341.111 231.922 341.222 231.89 341.336 231.856C341.317 231.999 341.3 232.142 341.28 232.286C341.185 232.177 341.091 232.065 340.996 231.953Z" fill="#C6C6C7"/>
<path d="M344.998 327.302C345.172 327.498 345.349 327.695 345.523 327.892C345.349 327.695 345.175 327.499 344.998 327.302Z" fill="#C6C6C7"/>
<path d="M346.57 328.854C346.753 329.048 346.936 329.243 347.119 329.437C346.935 329.246 346.753 329.048 346.57 328.854Z" fill="#C6C6C7"/>
<path d="M426.611 202.47L426.508 202.505L426.401 202.486C426.05 202.634 425.702 202.785 425.35 202.933C425.04 202.93 424.729 202.928 424.418 202.929C422.832 202.972 421.247 203.018 419.661 203.061C418.836 202.979 418.012 202.898 417.187 202.813C415.646 202.456 414.102 202.098 412.56 201.743C412.235 201.682 411.91 201.625 411.582 201.564C410.908 201.318 410.231 201.074 409.557 200.828C409.403 200.798 409.249 200.769 409.098 200.739C408.544 200.488 407.989 200.239 407.435 199.988C404.874 199.216 402.77 197.622 400.826 195.922C396.125 191.813 393.475 186.399 392.188 180.427C391.305 176.327 391.632 172.148 393.078 168.077C395.512 161.22 400.629 157.101 406.819 153.931C410.883 151.849 415.188 151.04 419.674 151.469C424.323 151.914 428.459 153.777 431.985 156.845C434.377 158.927 436.781 161.032 438.911 163.369C441.343 166.033 442.949 169.343 443.542 172.837C444.191 176.654 443.917 180.527 442.814 184.387C441.79 187.97 440.163 191.129 437.915 193.997C435.429 197.171 432.285 199.586 428.726 201.464C428.341 201.668 427.917 201.8 427.513 201.966C427.212 202.133 426.913 202.303 426.611 202.47ZM395.449 170.601C395.304 170.678 395.041 170.743 395.032 170.836C394.841 172.505 394.679 174.174 394.534 175.848C394.527 175.921 394.769 176.014 394.892 176.097C394.879 176.806 394.726 177.544 394.876 178.217C395.654 181.741 397.418 184.721 400.107 187.12C402.672 189.409 405.562 190.983 408.911 192.036C411.544 192.86 414.093 192.89 416.581 192.417C419.115 191.935 421.426 190.595 423.451 188.827C427.735 185.09 430.47 180.579 430.8 174.812C430.89 173.241 430.724 171.659 430.689 170.082C430.634 167.521 429.582 165.273 428.399 163.098C426.416 159.449 423.537 156.786 419.702 155.053C417.141 153.899 414.52 153.623 411.87 154.031C409.175 154.446 406.816 155.836 404.686 157.539C402.311 159.44 399.825 161.23 398.093 163.808C397.879 164.037 397.666 164.267 397.452 164.494C397.383 164.675 397.314 164.854 397.248 165.036C397.053 165.299 396.859 165.562 396.665 165.822C396.59 166.177 396.515 166.529 396.443 166.884C396.246 167.124 395.922 167.337 395.873 167.606C395.681 168.599 395.581 169.604 395.449 170.601Z" fill="#FEFEFE"/>
<path d="M412.566 201.744C414.107 202.102 415.652 202.46 417.193 202.814C415.652 202.46 414.107 202.102 412.566 201.744Z" fill="#C6C6C7"/>
<path d="M419.666 203.062C421.253 203.019 422.837 202.973 424.424 202.93C422.837 202.973 421.25 203.019 419.666 203.062Z" fill="#C6C6C7"/>
<path d="M409.562 200.832C410.236 201.078 410.913 201.322 411.587 201.568C410.913 201.322 410.236 201.075 409.562 200.832Z" fill="#C6C6C7"/>
<path d="M407.438 199.992C407.992 200.244 408.546 200.492 409.1 200.744C408.549 200.493 407.992 200.244 407.438 199.992Z" fill="#C6C6C7"/>
<path d="M425.353 202.934C425.704 202.786 426.052 202.635 426.404 202.487C426.052 202.638 425.704 202.786 425.353 202.934Z" fill="#C6C6C7"/>
<path d="M426.611 202.47C426.91 202.303 427.212 202.133 427.51 201.966C427.212 202.133 426.913 202.303 426.611 202.47Z" fill="#C6C6C7"/>
<path d="M398.092 163.814C399.827 161.237 402.313 159.447 404.685 157.545C406.812 155.842 409.174 154.453 411.869 154.038C414.519 153.629 417.14 153.906 419.701 155.06C423.536 156.79 426.415 159.453 428.399 163.104C429.581 165.28 430.633 167.525 430.688 170.088C430.723 171.666 430.889 173.25 430.8 174.818C430.469 180.585 427.734 185.097 423.45 188.834C421.425 190.601 419.114 191.941 416.58 192.424C414.095 192.897 411.543 192.867 408.91 192.042C405.561 190.993 402.669 189.415 400.106 187.126C397.418 184.725 395.653 181.748 394.875 178.224C394.728 177.55 394.878 176.812 394.89 176.107C394.984 175.42 395.014 174.716 395.193 174.049C395.319 173.586 395.648 173.176 395.884 172.743C396.041 173.549 396.046 174.422 396.377 175.144C398.647 180.139 404.106 181.933 408.459 180.013C412.448 178.252 415.557 175.505 417.305 171.258C418.206 169.069 418.432 166.953 417.521 165.006C415.268 160.19 410.057 158.706 405.618 160.634C403.35 161.619 401.394 163.325 399.296 164.703C398.786 165.36 398.277 166.016 397.767 166.676C397.722 166.811 397.677 166.947 397.633 167.082C397.432 167.382 397.231 167.681 397.031 167.981C397.068 168.064 397.05 168.134 396.973 168.186C396.793 167.758 396.613 167.329 396.436 166.901C396.511 166.546 396.585 166.194 396.658 165.839C396.852 165.576 397.046 165.313 397.24 165.053C397.309 164.872 397.378 164.693 397.445 164.511C397.665 164.271 397.879 164.044 398.092 163.814ZM423.627 167.674C421.999 167.505 420.677 168.381 419.702 169.884C418.885 171.143 419.36 172.448 420.784 172.845C422.096 173.211 424.996 171.282 424.827 169.96C424.71 169.07 423.954 168.265 423.627 167.674ZM424.761 177.039C423.993 176.207 423.416 175.324 422.609 174.776C421.559 174.065 420.764 174.831 420.214 175.7C419.997 176.044 419.8 176.688 419.971 176.942C420.911 178.341 422.105 178.524 423.564 177.639C423.824 177.482 424.113 177.363 424.761 177.039Z" fill="#010101"/>
<path d="M395.888 172.734C395.651 173.167 395.32 173.576 395.197 174.043C395.017 174.71 394.987 175.414 394.894 176.1C394.768 176.014 394.529 175.922 394.536 175.848C394.679 174.174 394.844 172.506 395.034 170.836C395.044 170.743 395.306 170.681 395.451 170.601C395.651 170.738 395.852 170.877 396.052 171.014C395.992 171.587 395.939 172.16 395.888 172.734Z" fill="#9CE4F3"/>
<path d="M396.047 171.015C395.847 170.878 395.646 170.738 395.446 170.602C395.579 169.605 395.678 168.6 395.867 167.612C395.919 167.347 396.24 167.13 396.437 166.89C396.617 167.319 396.797 167.747 396.975 168.175C396.667 169.123 396.357 170.067 396.047 171.015Z" fill="#1F2247"/>
<path d="M397.244 165.042C397.05 165.305 396.856 165.568 396.662 165.828C396.856 165.568 397.05 165.305 397.244 165.042Z" fill="#1F2247"/>
<path d="M398.092 163.814C397.878 164.043 397.665 164.273 397.452 164.5C397.665 164.27 397.878 164.043 398.092 163.814Z" fill="#1F2247"/>
<path d="M396.046 171.014C396.357 170.067 396.667 169.122 396.977 168.175C397.054 168.123 397.072 168.053 397.031 167.972C397.232 167.673 397.433 167.373 397.633 167.074C397.678 166.938 397.723 166.803 397.768 166.668C398.277 166.011 398.787 165.354 399.297 164.695C401.395 163.316 403.348 161.61 405.618 160.626C410.057 158.698 415.268 160.185 417.522 164.998C418.432 166.947 418.207 169.061 417.306 171.25C415.557 175.5 412.449 178.246 408.46 180.005C404.107 181.927 398.647 180.13 396.378 175.136C396.047 174.41 396.042 173.54 395.885 172.735C395.939 172.161 395.993 171.588 396.046 171.014Z" fill="#FEFEFE"/>
<path d="M423.628 167.673C423.954 168.264 424.71 169.069 424.825 169.958C424.993 171.281 422.094 173.21 420.782 172.844C419.361 172.444 418.885 171.142 419.7 169.883C420.675 168.379 421.999 167.506 423.628 167.673Z" fill="#FEFEFE"/>
<path d="M424.76 177.039C424.112 177.363 423.824 177.48 423.563 177.639C422.104 178.525 420.911 178.341 419.971 176.942C419.799 176.689 419.997 176.044 420.213 175.7C420.764 174.831 421.561 174.066 422.609 174.776C423.413 175.326 423.99 176.21 424.76 177.039Z" fill="#FEFEFE"/>
<path d="M399.297 164.694C398.787 165.351 398.277 166.01 397.768 166.667C398.277 166.01 398.787 165.351 399.297 164.694Z" fill="#1F2247"/>
<path d="M397.636 167.073C397.436 167.372 397.235 167.672 397.034 167.971C397.235 167.672 397.436 167.372 397.636 167.073Z" fill="#1F2247"/>
<path d="M352.586 214.837C365.264 217.649 382.583 229.974 382.583 229.974C382.583 229.974 370.182 246.563 361.129 244.754C349.38 242.408 320.799 218.481 340.442 213.3C345.027 212.091 347.903 213.798 352.586 214.837Z" fill="#9CE4F3"/>
<path d="M424.995 204.956C422.593 205.854 420.792 207.579 419.36 209.56C418.289 211.041 417.908 212.922 417.619 214.795C417.304 216.845 417.612 218.806 417.927 220.788C418.079 221.743 420.387 223.412 421.52 223.637C424.24 224.171 426.686 223.406 429.172 222.393C430.848 221.711 432.697 221.45 434.467 220.992C435.098 220.828 435.734 220.466 436.356 220.497C438.081 220.584 439.793 220.908 441.52 220.989C442.944 221.056 444.418 221.099 445.792 220.797C446.807 220.573 448.012 219.998 448.579 219.19C449.779 217.483 450.505 215.554 450.632 213.328C450.832 209.815 449.021 207.685 446.365 205.937C443.711 204.187 440.657 203.402 437.648 202.671C436.143 202.305 434.428 202.647 432.833 202.853C431.12 203.075 429.422 203.456 427.747 203.881C426.796 204.121 425.909 204.589 424.995 204.956Z" fill="#010101"/>
</g>
<defs>
<clipPath id="clip0">
<rect width="500" height="500" fill="white"/>
</clipPath>
</defs>
</svg>
