<svg width="279" height="245" viewBox="0 0 279 245" fill="none" xmlns="http://www.w3.org/2000/svg">
<path d="M239.333 120.906C228.934 130.503 207.138 138.338 207.138 138.338C207.138 138.338 200.003 116.927 207.251 109.95C216.655 100.896 255.836 90.1958 248.259 110.994C246.49 115.85 243.174 117.362 239.333 120.906Z" fill="url(#paint0_linear)"/>
<path d="M52.0833 104.096C66.1549 102.609 88.3162 109.343 88.3162 109.343C88.3162 109.343 81.2519 130.776 71.2725 132.044C58.3225 133.69 20.506 118.873 39.004 106.716C43.3224 103.878 46.8857 104.645 52.0833 104.096Z" fill="url(#paint1_linear)"/>
<g filter="url(#filter0_d)">
<path d="M75.7545 85.6746C75.7545 85.6746 76.9995 80.2346 77.8085 77.5726C79.2535 72.8186 80.8465 68.1106 82.3815 63.3856C82.6905 62.4356 83.0225 61.4946 83.3435 60.5496C83.5575 60.0056 83.8025 59.4696 83.9835 58.9166C84.3945 57.6556 84.7715 56.3896 85.1615 55.1242C86.0015 53.3149 86.8255 51.4981 87.6865 49.6997C89.4495 46.0039 91.0965 42.2461 93.0405 38.6486C95.2875 34.4952 98.0625 30.6788 101.284 27.2084C101.549 26.9628 101.81 26.717 102.075 26.4715L102.086 26.4506C102.96 25.8816 103.83 25.3154 104.868 24.6386C103.875 23.8673 103.394 23.5248 102.947 23.1385C99.3135 20.0126 95.5695 16.9894 93.1475 12.7228C92.4405 11.4782 91.6945 10.2584 90.9675 9.02771C90.5935 7.22971 90.1635 5.43961 89.8585 3.62851C89.5055 1.52521 90.3525 0.327405 92.4725 0.193205C95.0855 0.0271049 97.7325 -0.108392 100.329 0.124308C103.698 0.428208 106.677 2.04391 109.352 4.00141C112.109 6.01811 114.664 8.3226 117.224 10.5934C118.038 11.3161 118.594 11.339 119.619 10.9744C124.373 9.28611 129.138 7.60811 133.988 6.23761C137.317 5.29761 140.796 4.88441 144.203 4.20811C151.267 2.80101 158.371 2.91071 165.427 4.00301C168.588 4.49271 171.683 5.55281 174.727 6.59521L174.932 6.66551C177.917 7.68931 180.861 8.88971 183.701 10.2647C185.734 11.2495 187.567 12.6494 189.496 13.8523C189.747 14.0089 190.044 14.0978 190.317 14.2189C191.656 15.39 192.999 16.5553 194.335 17.7293C199.641 22.3913 203.994 27.8423 207.708 33.8315C207.916 34.1708 208.539 34.565 208.831 34.4798C209.763 34.2008 210.627 33.7086 211.519 33.2961C212.989 32.9144 214.469 32.5676 215.929 32.1479C217.408 31.7236 218.866 31.2292 220.336 30.7669C220.835 30.7231 221.338 30.6766 221.838 30.6328C221.959 30.6363 222.077 30.6395 222.198 30.6399V30.6398C223.037 30.4962 223.877 30.3525 224.714 30.2086C225.219 30.2149 225.727 30.2245 226.232 30.2309C228.312 30.4005 230.395 30.5735 232.475 30.7432C232.873 30.8122 233.271 30.8782 233.668 30.9473C234.058 31.1987 234.45 31.4504 234.839 31.7018C234.777 32.2147 234.711 32.7244 234.648 33.2374C234.348 33.5018 233.98 33.7204 233.756 34.0406C230.724 38.3172 227.15 42.0882 222.725 44.8947C220.771 46.134 218.492 46.9348 216.267 47.6438C214.815 48.1076 213.195 48.0492 211.373 48.2569C211.506 49.6975 211.668 51.1901 211.772 52.6903C211.915 54.7769 212.008 56.8686 212.138 58.9576C212.413 63.3966 212.895 67.8336 212.915 72.2736C212.931 76.0216 212.417 79.7716 212.138 83.5206C212.095 84.1036 212.045 84.6886 211.984 85.4466C213.224 84.6066 209.89 119.156 210.847 118.439C211.321 123.483 211.003 126.322 211.158 131.397C211.213 133.228 211.293 135.062 211.463 136.887C211.794 140.39 212.181 143.886 212.586 147.38C212.844 149.591 212.873 151.892 213.544 153.98C214.874 158.128 216.49 162.194 218.146 166.225C220.698 172.441 223.23 178.63 224.981 185.157C226.171 189.589 227.17 194.036 227.673 198.556C228.263 203.823 228.429 209.184 226.497 214.259C225.652 216.477 224.468 218.672 222.987 220.51C221.737 222.064 219.769 223.013 218.237 224.364C215.07 227.156 211.376 228.396 207.229 228.076C204.849 227.895 202.429 227.556 200.151 226.877C197.613 226.118 195.166 225.007 192.743 223.907L192.464 223.78C190.046 222.681 187.825 220.933 185.308 220.294C179.681 218.867 174.243 219.759 169.601 223.466C167.387 225.234 165.575 227.495 163.425 229.352C160.64 231.759 157.43 233.419 153.908 234.632C148.734 236.417 143.451 236.739 138.094 236.39C136.125 236.261 134.187 235.677 132.235 235.301C132.085 235.27 131.933 235.239 131.788 235.191C129.078 234.322 126.401 233.32 123.647 232.619C121.19 231.994 119.093 230.802 117.213 229.219C112.119 224.93 107.02 220.657 100.879 217.904C98.3245 216.76 95.6865 215.764 92.7895 216.146C90.3695 216.467 87.9625 216.855 85.5465 217.195C83.4915 217.486 81.4365 217.818 79.3735 218.019C75.4655 218.398 71.5505 218.984 67.6425 218.944C64.4825 218.911 61.3325 218.088 58.1765 217.615L58.1795 217.618L58.1735 217.615C58.1745 217.615 58.1755 217.615 58.1765 217.615L57.5695 216.993L57.5665 216.989C57.1815 216.648 56.7985 216.307 56.4135 215.966L56.4105 215.963C56.2165 215.752 56.0195 215.541 55.8255 215.33L55.8055 215.316L54.4475 213.904C54.4485 213.905 54.4495 213.906 54.4505 213.908L54.4455 213.901L54.4475 213.904C54.0525 213.39 53.6575 212.875 53.2595 212.361L53.2335 212.331L52.1915 210.935C51.0305 208.476 49.6005 206.103 48.7765 203.537C47.7035 200.2 47.6965 196.726 49.0445 193.372C51.9455 186.154 56.5945 180.09 61.7235 174.368C62.5305 173.465 63.8265 173.01 64.6725 172.129C65.6035 171.158 66.5065 170.033 67.0075 168.805C68.1215 166.096 68.9975 163.291 69.9295 160.512C71.9635 154.449 73.0785 148.195 73.2815 141.825C73.4175 137.524 73.1115 133.207 72.9575 128.898C72.9265 128.052 72.6765 127.216 72.5265 126.376C72.3765 125.536 75.7545 85.6746 75.7545 85.6746Z" fill="url(#paint2_linear)"/>
</g>
<path d="M127 97.817C144.731 110.6 154.836 98.508 154.471 95" stroke="black" stroke-width="6" stroke-linecap="round"/>
<path d="M23.9609 99.0077L24.039 99.1107C45.3314 90.1215 53.536 69.2834 44.1596 60.2943C34.7823 51.3051 24.039 63.5618 24.039 63.5618H23.9609C23.9609 63.5618 13.2168 51.3051 3.84032 60.2943C-5.53596 69.2823 2.6686 90.0186 23.9609 99.0077Z" fill="#FDA094"/>
<path d="M266.98 113.954L267.02 114C277.666 109.944 281.768 100.542 277.08 96.4864C272.391 92.4305 267.02 97.9606 267.02 97.9606H266.98C266.98 97.9606 261.608 92.4305 256.92 96.4864C252.232 100.542 256.334 109.898 266.98 113.954Z" fill="#FDA094"/>
<path d="M248.98 90.9535L249.02 91C259.666 86.9442 263.768 77.5422 259.08 73.4864C254.391 69.4305 249.02 74.9606 249.02 74.9606H248.98C248.98 74.9606 243.608 69.4305 238.92 73.4864C234.232 77.5417 238.334 86.8977 248.98 90.9535Z" fill="#98CDD5"/>
<path d="M111.929 50.6871L111.95 50.5697L112.026 50.4783C112.072 50.0659 112.114 49.6542 112.161 49.2422C112.329 48.9476 112.496 48.6539 112.661 48.3579C113.466 46.8276 114.267 45.2976 115.072 43.7664C115.588 43.0262 116.105 42.2859 116.626 41.5476C117.786 40.2735 118.95 38.9965 120.109 37.72C120.339 37.4435 120.568 37.1659 120.8 36.886C121.393 36.3771 121.986 35.8632 122.579 35.3529C122.689 35.2226 122.799 35.0923 122.908 34.9645C123.442 34.5719 123.974 34.1777 124.508 33.7854C126.607 31.7631 129.243 30.6121 131.895 29.6702C138.305 27.3929 144.864 27.7598 151.225 29.721C155.592 31.0657 159.39 33.6042 162.489 37.1486C167.708 43.1164 168.895 50.1748 168.608 57.7474C168.421 62.7192 166.896 67.2422 164.097 71.277C161.196 75.4583 157.221 78.3965 152.425 80.1116C149.173 81.2756 145.891 82.4385 142.534 83.2171C138.706 84.1081 134.704 83.8709 131.068 82.5713C127.094 81.1544 123.559 78.8287 120.478 75.7232C117.619 72.8405 115.484 69.6117 113.956 65.9462C112.265 61.8912 111.645 57.6162 111.757 53.2331C111.769 52.7579 111.869 52.2845 111.927 51.8132C111.929 51.4369 111.927 51.0625 111.929 50.6871ZM158.826 38.0566C158.83 37.8781 158.908 37.5936 158.824 37.5353C157.34 36.4644 155.84 35.4205 154.327 34.3907C154.261 34.3442 154.044 34.5245 153.899 34.5972C153.233 34.207 152.613 33.669 151.893 33.4526C148.129 32.3137 144.356 32.4027 140.644 33.6788C137.101 34.8966 134.064 36.8036 131.28 39.426C129.092 41.4896 127.706 43.8956 126.829 46.5125C125.936 49.1775 125.979 52.0877 126.578 54.9546C127.847 61.0173 130.677 66.022 135.982 69.4096C137.427 70.3322 139.019 71.0174 140.537 71.825C142.999 73.137 145.697 73.3352 148.394 73.3712C152.919 73.4317 156.984 72.1141 160.676 69.3933C163.137 67.5748 164.797 65.2302 165.821 62.4947C166.863 59.7118 166.8 56.7293 166.317 53.7974C165.776 50.5269 165.4 47.2102 163.873 44.1901C163.768 43.8646 163.664 43.5392 163.562 43.2153C163.427 43.0527 163.293 42.8924 163.156 42.7322C163.01 42.4076 162.864 42.0822 162.72 41.7592C162.422 41.4993 162.127 41.2409 161.829 40.9827C161.706 40.6673 161.676 40.2463 161.446 40.0564C160.605 39.3437 159.703 38.7134 158.826 38.0566Z" fill="#FEFEFE"/>
<path d="M163.868 44.1869C165.393 47.2086 165.769 50.5262 166.312 53.7933C166.797 56.7227 166.858 59.7077 165.816 62.4906C164.792 65.2261 163.132 67.5707 160.671 69.3892C156.982 72.1116 152.917 73.4291 148.39 73.3671C145.692 73.3311 142.996 73.1354 140.532 71.8209C139.014 71.0133 137.419 70.3265 135.977 69.4056C130.672 66.0179 127.842 61.0143 126.574 54.9507C125.974 52.0839 125.932 49.1736 126.824 46.5081C127.698 43.8947 129.087 41.4852 131.274 39.4216C134.057 36.7982 137.098 34.8901 140.639 33.6749C144.353 32.3998 148.124 32.3096 151.888 33.4485C152.606 33.6674 153.228 34.2029 153.892 34.5916C154.494 35.0464 155.148 35.4499 155.685 35.9765C156.059 36.3427 156.273 36.8735 156.558 37.3291C155.709 37.0487 154.877 36.5881 154.014 36.5173C148.057 36.0124 143.443 40.2447 142.947 45.4052C142.495 50.135 143.448 54.5533 146.552 58.4787C148.153 60.5016 150.044 61.844 152.379 62.0154C158.157 62.4412 162.345 58.28 162.879 53.0337C163.151 50.354 162.573 47.5854 162.381 44.8568C162.029 44.0223 161.676 43.1878 161.321 42.3518C161.216 42.2372 161.112 42.1226 161.007 42.0079C160.83 41.6572 160.652 41.3073 160.474 40.9565C160.374 40.9481 160.318 40.8932 160.309 40.7929C160.812 40.85 161.316 40.907 161.817 40.9666C162.114 41.2273 162.409 41.4856 162.708 41.7431C162.854 42.0685 163.001 42.3931 163.145 42.7161C163.28 42.8787 163.413 43.039 163.55 43.1992C163.662 43.5367 163.763 43.8606 163.868 44.1869ZM146.589 66.3973C147.618 64.9396 147.49 63.2167 146.581 61.4887C145.82 60.0406 144.327 59.7978 143.19 60.939C142.143 61.9909 142.431 65.7748 143.778 66.3191C144.686 66.6817 145.854 66.392 146.589 66.3973ZM137.085 62.4829C138.284 62.1966 139.432 62.1189 140.382 61.6439C141.618 61.0244 141.314 59.8622 140.781 58.8749C140.57 58.4868 140.062 57.9547 139.73 57.9825C137.9 58.13 137.089 59.1673 137.153 61.0253C137.163 61.3567 137.123 61.6948 137.085 62.4829Z" fill="#010101"/>
<path d="M158.116 38.4045C158.851 39.2044 159.583 40.0028 160.318 40.8028C160.327 40.9031 160.383 40.9579 160.482 40.9624C160.66 41.3123 160.837 41.663 161.015 42.0138C161.12 42.1284 161.224 42.243 161.329 42.3577C161.682 43.1922 162.034 44.0266 162.389 44.8627C162.581 47.5913 163.161 50.3565 162.887 53.0386C162.353 58.2859 158.163 62.4455 152.387 62.0213C150.049 61.8483 148.162 60.5066 146.561 58.4837C143.454 54.5567 142.501 50.1385 142.955 45.4102C143.448 40.249 148.065 36.0183 154.022 36.5231C154.888 36.5955 155.718 37.0546 156.567 37.3341C157.083 37.6909 157.6 38.0477 158.116 38.4045Z" fill="#FEFEFE"/>
<defs>
<filter id="filter0_d" x="44" y="0" width="194.839" height="244.514" filterUnits="userSpaceOnUse" color-interpolation-filters="sRGB">
<feFlood flood-opacity="0" result="BackgroundImageFix"/>
<feColorMatrix in="SourceAlpha" type="matrix" values="0 0 0 0 0 0 0 0 0 0 0 0 0 0 0 0 0 0 127 0" result="hardAlpha"/>
<feOffset dy="4"/>
<feGaussianBlur stdDeviation="2"/>
<feComposite in2="hardAlpha" operator="out"/>
<feColorMatrix type="matrix" values="0 0 0 0 0 0 0 0 0 0 0 0 0 0 0 0 0 0 0.25 0"/>
<feBlend mode="normal" in2="BackgroundImageFix" result="effect1_dropShadow"/>
<feBlend mode="normal" in="SourceGraphic" in2="effect1_dropShadow" result="shape"/>
</filter>
<linearGradient id="paint0_linear" x1="226.613" y1="99" x2="226.613" y2="138.338" gradientUnits="userSpaceOnUse">
<stop stop-color="#E26554"/>
<stop offset="1" stop-color="#98CDD5"/>
</linearGradient>
<linearGradient id="paint1_linear" x1="68.6557" y1="98.4374" x2="51.6196" y2="129.151" gradientUnits="userSpaceOnUse">
<stop stop-color="#E26554"/>
<stop offset="1" stop-color="#98CDD5"/>
</linearGradient>
<linearGradient id="paint2_linear" x1="141.419" y1="0" x2="141.419" y2="236.514" gradientUnits="userSpaceOnUse">
<stop stop-color="#E26554"/>
<stop offset="1" stop-color="#98CDD5"/>
</linearGradient>
</defs>
</svg>
