<svg width="474" height="428" viewBox="0 0 474 428" fill="none" xmlns="http://www.w3.org/2000/svg">
<path d="M265.518 244.221C265.518 244.221 267.598 239.042 268.452 236.395C269.977 231.666 271.354 226.89 272.788 222.133C273.076 221.177 273.34 220.215 273.615 219.255C273.75 218.686 273.855 218.107 274.022 217.549C274.403 216.279 274.815 215.024 275.217 213.762C275.559 211.797 275.918 209.834 276.237 207.866C276.897 203.825 277.687 199.799 278.142 195.735C278.666 191.042 278.564 186.325 277.897 181.637C277.82 181.284 277.745 180.933 277.667 180.58L277.67 180.557C277.277 179.591 276.885 178.63 276.419 177.482C277.675 177.415 278.265 177.408 278.852 177.346C283.62 176.85 288.419 176.502 292.842 174.379C294.133 173.76 295.441 173.184 296.74 172.587C298.073 171.324 299.447 170.099 300.731 168.785C302.22 167.259 302.208 165.792 300.543 164.473C298.492 162.846 296.395 161.225 294.129 159.935C291.189 158.263 287.821 157.891 284.507 157.973C281.092 158.057 277.679 158.493 274.281 158.898C273.2 159.027 272.73 158.729 272.096 157.845C269.155 153.746 266.198 149.65 262.996 145.758C260.798 143.087 258.176 140.764 255.763 138.265C250.763 133.08 244.866 129.118 238.447 125.991C235.571 124.59 232.424 123.695 229.33 122.815L229.121 122.756C226.085 121.894 222.983 121.201 219.866 120.711C217.634 120.36 215.33 120.464 213.059 120.352C212.764 120.337 212.469 120.241 212.176 120.185C210.408 120.383 208.64 120.574 206.874 120.777C199.856 121.579 193.172 123.574 186.705 126.375C186.34 126.535 185.603 126.503 185.412 126.267C184.806 125.506 184.377 124.609 183.879 123.761C182.89 122.609 181.872 121.481 180.912 120.303C179.939 119.111 179.024 117.873 178.081 116.655C177.695 116.334 177.308 116.009 176.923 115.688C176.822 115.622 176.723 115.557 176.624 115.489L176.623 115.489C176.016 114.892 175.408 114.295 174.803 113.699C174.385 113.417 173.962 113.135 173.543 112.852C171.738 111.805 169.928 110.759 168.123 109.712C167.757 109.542 167.392 109.369 167.026 109.199C166.563 109.183 166.097 109.166 165.634 109.15C165.393 109.608 165.156 110.064 164.915 110.521C165.011 110.909 165.189 111.299 165.19 111.69C165.241 116.932 166.026 122.068 168.06 126.897C168.958 129.029 170.373 130.987 171.796 132.838C172.724 134.047 174.088 134.923 175.466 136.133C174.536 137.241 173.551 138.374 172.61 139.547C171.302 141.18 170.033 142.845 168.734 144.486C165.977 147.976 163.05 151.345 160.501 154.981C158.35 158.05 156.634 161.423 154.724 164.662C154.427 165.165 154.135 165.675 153.752 166.332C153.213 164.935 136.245 195.214 135.868 194.079C132.602 197.952 131.243 200.465 128.221 204.545C127.132 206.018 126.021 207.478 124.84 208.88C122.57 211.57 120.258 214.22 117.932 216.859C116.46 218.528 115.123 220.401 113.381 221.734C109.922 224.382 106.276 226.8 102.616 229.167C96.975 232.817 91.3653 236.456 86.2042 240.819C82.6992 243.78 79.3416 246.863 76.3503 250.288C72.8616 254.278 69.6673 258.587 68.3599 263.858C67.7883 266.161 67.509 268.639 67.6767 270.994C67.8178 272.983 68.8927 274.886 69.3806 276.869C70.3894 280.969 72.7167 284.094 76.3048 286.197C78.3631 287.405 80.5447 288.507 82.8031 289.249C85.3206 290.073 87.9638 290.556 90.5814 291.034L90.883 291.089C93.4964 291.566 96.317 291.397 98.7489 292.308C104.185 294.345 108.143 298.179 109.842 303.872C110.651 306.587 110.85 309.478 111.557 312.229C112.472 315.796 114.162 318.99 116.362 321.995C119.594 326.412 123.75 329.69 128.349 332.459C130.04 333.475 131.965 334.102 133.783 334.906C133.923 334.966 134.066 335.028 134.213 335.07C136.934 335.903 139.705 336.607 142.367 337.601C144.741 338.489 147.143 338.707 149.591 338.479C156.221 337.862 162.846 337.26 169.461 338.502C172.212 339.019 174.946 339.705 177.107 341.671C178.912 343.315 180.668 345.006 182.458 346.664C183.98 348.075 185.479 349.52 187.059 350.862C190.053 353.402 192.934 356.116 196.167 358.312C198.782 360.088 201.838 361.209 204.7 362.62L204.696 362.621L204.703 362.622C204.702 362.621 204.701 362.621 204.7 362.62L205.554 362.455L205.559 362.454C206.069 362.394 206.578 362.332 207.089 362.272L207.093 362.27C207.373 362.208 207.655 362.147 207.935 362.084L207.96 362.084L209.88 361.699C209.878 361.699 209.877 361.7 209.875 361.7L209.884 361.698L209.88 361.699C210.498 361.502 211.116 361.305 211.736 361.109L211.774 361.099L213.426 360.547C215.783 359.189 218.31 358.056 220.451 356.418C223.236 354.29 225.223 351.44 226.029 347.916C227.763 340.332 227.404 332.7 226.454 325.075C226.306 323.873 225.501 322.76 225.309 321.554C225.098 320.225 224.998 318.786 225.287 317.491C225.918 314.631 226.798 311.827 227.617 309.013C229.405 302.873 232.056 297.101 235.523 291.752C237.864 288.142 240.577 284.77 243.162 281.319C243.67 280.642 244.352 280.098 244.954 279.493C245.556 278.889 265.518 244.221 265.518 244.221Z" fill="#FC7361"/>
<path d="M169.15 109.294C170.955 110.341 172.765 111.387 174.57 112.434C174.561 112.236 174.633 111.934 174.53 111.853C172.93 110.6 171.445 109.088 169.15 109.294Z" fill="#C6C6C7"/>
<path d="M175.829 113.282C176.437 113.879 177.045 114.476 177.65 115.071C177.664 113.842 176.85 113.457 175.829 113.282Z" fill="#C6C6C7"/>
<path d="M277.879 279.27C277.235 279.399 276.586 279.53 275.942 279.659C276.586 279.53 277.235 279.399 277.879 279.27Z" fill="#C6C6C7"/>
<path d="M212.761 360.689C212.141 360.887 211.522 361.085 210.9 361.281C211.52 361.087 212.141 360.887 212.761 360.689Z" fill="#C6C6C7"/>
<path d="M210.908 361.282C210.268 361.411 209.624 361.54 208.984 361.669C209.624 361.54 210.266 361.409 210.908 361.282Z" fill="#C6C6C7"/>
<path d="M166.66 108.728C167.123 108.744 167.589 108.761 168.052 108.776C167.587 108.763 167.124 108.748 166.66 108.728Z" fill="#C6C6C7"/>
<path d="M214.453 360.129C213.902 360.313 213.351 360.497 212.801 360.681C213.351 360.497 213.902 360.313 214.453 360.129Z" fill="#C6C6C7"/>
<path d="M177.954 115.269C178.339 115.59 178.726 115.915 179.112 116.236C178.728 115.912 178.339 115.59 177.954 115.269Z" fill="#C6C6C7"/>
<path d="M208.114 361.855C207.603 361.916 207.095 361.978 206.584 362.038C207.096 361.975 207.603 361.916 208.114 361.855Z" fill="#C6C6C7"/>
<path d="M278.697 180.16C278.774 180.512 278.849 180.863 278.926 181.215C278.849 180.863 278.771 180.51 278.697 180.16Z" fill="#C6C6C7"/>
<path d="M274.315 279.978C274.236 279.825 274.159 279.669 274.08 279.516C273.965 279.646 273.85 279.776 273.738 279.907C273.929 279.929 274.121 279.955 274.315 279.978Z" fill="#C6C6C7"/>
<path d="M278.732 279.075C278.448 279.139 278.163 279.205 277.882 279.27C278.165 279.202 278.448 279.139 278.732 279.075Z" fill="#C6C6C7"/>
<path d="M273.329 279.999C273.248 279.898 273.17 279.799 273.091 279.696C273.017 279.835 272.941 279.973 272.867 280.112C273.02 280.076 273.174 280.037 273.329 279.999Z" fill="#C6C6C7"/>
<path d="M208.96 361.669C208.681 361.731 208.399 361.792 208.119 361.855C208.399 361.792 208.678 361.73 208.96 361.669Z" fill="#C6C6C7"/>
<path d="M206.581 362.037C206.295 362.092 206.009 362.147 205.723 362.203C206.008 362.15 206.295 362.092 206.581 362.037Z" fill="#C6C6C7"/>
<path d="M216.516 199.332L216.585 199.43L216.691 199.481C216.907 199.835 217.118 200.191 217.334 200.545C217.61 200.742 217.886 200.938 218.16 201.137C219.534 202.187 220.904 203.238 222.278 204.289C223.059 204.743 223.839 205.197 224.621 205.648C226.211 206.316 227.803 206.985 229.391 207.656C229.717 207.809 230.041 207.966 230.369 208.121C231.122 208.333 231.875 208.55 232.628 208.763C232.783 208.835 232.938 208.907 233.09 208.978C233.739 209.109 234.388 209.243 235.038 209.375C237.792 210.327 240.667 210.262 243.47 210C250.244 209.371 256.039 206.279 260.986 201.824C264.382 198.767 266.759 194.867 268.08 190.348C270.305 182.738 268.413 175.835 264.967 169.086C262.706 164.654 259.419 161.192 255.184 158.709C250.793 156.136 245.951 155.142 240.878 155.603C237.438 155.915 233.971 156.241 230.598 156.947C226.751 157.748 223.221 159.647 220.467 162.355C217.459 165.312 215.229 168.909 213.741 173.022C212.359 176.84 211.781 180.668 211.936 184.636C212.108 189.025 213.344 193.165 215.289 197.094C215.499 197.521 215.789 197.908 216.04 198.312C216.2 198.651 216.356 198.993 216.516 199.332ZM264.375 191.064C264.454 191.225 264.644 191.45 264.593 191.538C263.697 193.134 262.775 194.712 261.835 196.283C261.795 196.353 261.522 196.28 261.361 196.275C260.92 196.909 260.584 197.658 260.022 198.158C257.086 200.774 253.626 202.281 249.721 202.684C245.994 203.069 242.437 202.616 238.808 201.409C235.956 200.458 233.685 198.857 231.79 196.852C229.859 194.809 228.673 192.151 228.012 189.298C226.612 183.264 227.074 177.534 230.462 172.229C231.385 170.784 232.541 169.493 233.578 168.122C235.26 165.895 237.624 164.581 240.057 163.414C244.137 161.456 248.379 160.941 252.872 161.857C255.87 162.471 258.362 163.9 260.442 165.951C262.558 168.038 263.755 170.77 264.55 173.633C265.435 176.827 266.489 179.995 266.374 183.377C266.416 183.716 266.458 184.056 266.502 184.392C266.447 184.597 266.394 184.798 266.337 185.001C266.341 185.357 266.344 185.714 266.35 186.067C266.19 186.429 266.031 186.787 265.868 187.147C265.89 187.485 266.039 187.879 265.911 188.148C265.447 189.148 264.894 190.1 264.375 191.064Z" fill="#FEFEFE"/>
<path d="M225.448 217.793C203.593 218.18 199.585 189.719 201.886 187.046" stroke="black" stroke-width="6" stroke-linecap="round"/>
<path d="M229.385 207.652C227.796 206.985 226.203 206.316 224.615 205.645C226.203 206.316 227.796 206.985 229.385 207.652Z" fill="#C6C6C7"/>
<path d="M222.273 204.286C220.899 203.235 219.529 202.184 218.154 201.134C219.529 202.184 220.901 203.237 222.273 204.286Z" fill="#C6C6C7"/>
<path d="M232.621 208.763C231.869 208.55 231.115 208.333 230.362 208.12C231.115 208.333 231.87 208.547 232.621 208.763Z" fill="#C6C6C7"/>
<path d="M235.033 209.376C234.383 209.245 233.735 209.111 233.085 208.979C233.732 209.109 234.383 209.245 235.033 209.376Z" fill="#C6C6C7"/>
<path d="M217.332 200.544C217.116 200.19 216.904 199.834 216.688 199.479C216.903 199.837 217.116 200.19 217.332 200.544Z" fill="#C6C6C7"/>
<path d="M216.515 199.332C216.358 198.994 216.2 198.651 216.043 198.313C216.2 198.651 216.355 198.992 216.515 199.332Z" fill="#C6C6C7"/>
<path d="M266.37 183.383C266.483 179.999 265.428 176.832 264.546 173.639C263.754 170.777 262.555 168.044 260.438 165.957C258.359 163.906 255.867 162.477 252.869 161.863C248.377 160.944 244.135 161.459 240.053 163.42C237.621 164.587 235.258 165.899 233.575 168.128C232.537 169.499 231.38 170.793 230.458 172.235C227.071 177.54 226.608 183.27 228.008 189.304C228.67 192.157 229.856 194.815 231.786 196.858C233.679 198.862 235.952 200.463 238.804 201.415C242.432 202.625 245.994 203.077 249.718 202.69C253.624 202.284 257.082 200.78 260.018 198.164C260.578 197.663 260.916 196.915 261.356 196.284C261.711 195.618 262.134 194.977 262.4 194.273C262.585 193.783 262.557 193.212 262.624 192.679C261.971 193.29 261.41 194.058 260.656 194.485C255.465 197.449 249.498 195.55 246.878 191.077C244.478 186.976 243.484 182.567 244.65 177.7C245.251 175.192 246.401 173.178 248.448 172.04C253.511 169.223 259.061 171.237 261.752 175.772C263.126 178.089 263.766 180.844 264.74 183.4C264.771 184.305 264.802 185.21 264.832 186.119C264.785 186.267 264.738 186.415 264.691 186.563C264.677 186.955 264.664 187.348 264.65 187.741C264.563 187.79 264.535 187.863 264.569 187.958C265.002 187.695 265.434 187.431 265.864 187.166C266.024 186.805 266.183 186.447 266.345 186.087C266.342 185.731 266.338 185.375 266.333 185.021C266.387 184.816 266.44 184.615 266.497 184.412C266.456 184.059 266.412 183.722 266.37 183.383ZM241.352 170.5C242.899 171.39 243.507 173.007 243.409 174.957C243.328 176.591 242.075 177.439 240.565 176.882C239.171 176.368 237.841 172.814 238.834 171.754C239.505 171.043 240.687 170.814 241.352 170.5ZM234.376 178.049C235.585 177.805 236.658 177.392 237.72 177.423C239.102 177.465 239.315 178.648 239.247 179.768C239.218 180.209 238.982 180.905 238.668 181.019C236.946 181.656 235.774 181.056 235.05 179.343C234.92 179.038 234.742 178.749 234.376 178.049Z" fill="#010101"/>
<path d="M262.626 192.669C262.559 193.202 262.591 193.775 262.402 194.266C262.135 194.969 261.712 195.61 261.357 196.276C261.523 196.28 261.793 196.351 261.833 196.282C262.775 194.712 263.694 193.133 264.591 191.537C264.642 191.448 264.45 191.226 264.373 191.063C264.109 191.056 263.843 191.051 263.579 191.044C263.266 191.588 262.948 192.129 262.626 192.669Z" fill="#FC7361"/>
<path d="M263.583 191.048C263.847 191.055 264.113 191.059 264.377 191.066C264.896 190.102 265.45 189.15 265.913 188.157C266.037 187.889 265.891 187.494 265.87 187.156C265.438 187.419 265.005 187.683 264.575 187.948C264.242 188.981 263.914 190.013 263.583 191.048Z" fill="#1F2247"/>
<path d="M266.337 185.008C266.34 185.364 266.344 185.721 266.349 186.074C266.344 185.721 266.34 185.364 266.337 185.008Z" fill="#1F2247"/>
<path d="M266.371 183.383C266.413 183.722 266.456 184.061 266.499 184.397C266.457 184.058 266.413 183.722 266.371 183.383Z" fill="#1F2247"/>
<path d="M263.584 191.048C263.914 190.013 264.243 188.981 264.573 187.946C264.539 187.851 264.567 187.778 264.655 187.732C264.669 187.34 264.682 186.947 264.696 186.555C264.743 186.407 264.79 186.259 264.837 186.11C264.806 185.205 264.774 184.3 264.745 183.392C263.771 180.836 263.134 178.083 261.757 175.764C259.066 171.229 253.514 169.218 248.453 172.032C246.405 173.173 245.256 175.183 244.655 177.692C243.488 182.561 244.481 186.971 246.883 191.069C249.501 195.545 255.47 197.441 260.661 194.477C261.416 194.047 261.976 193.282 262.629 192.671C262.947 192.13 263.265 191.589 263.584 191.048Z" fill="#FEFEFE"/>
<path d="M241.352 170.5C240.687 170.814 239.506 171.042 238.837 171.755C237.844 172.816 239.174 176.369 240.567 176.883C242.077 177.436 243.328 176.59 243.412 174.958C243.51 173.008 242.897 171.392 241.352 170.5Z" fill="#FEFEFE"/>
<path d="M234.377 178.049C234.742 178.748 234.922 179.036 235.051 179.343C235.775 181.056 236.946 181.655 238.669 181.019C238.982 180.905 239.219 180.209 239.247 179.767C239.316 178.648 239.1 177.464 237.721 177.423C236.66 177.396 235.586 177.809 234.377 178.049Z" fill="#FEFEFE"/>
<path d="M264.745 183.391C264.776 184.297 264.806 185.205 264.837 186.11C264.806 185.205 264.776 184.297 264.745 183.391Z" fill="#1F2247"/>
<path d="M264.694 186.552C264.68 186.945 264.666 187.337 264.652 187.73C264.666 187.337 264.68 186.945 264.694 186.552Z" fill="#1F2247"/>
<path d="M148.207 149.944C157.604 163.244 163.853 191.525 163.853 191.525C163.853 191.525 139.643 201.568 132.777 192.309C123.868 180.293 116.341 129.346 138.307 138.583C143.435 140.739 144.736 145.032 148.207 149.944Z" fill="#FC7361"/>
<path d="M266.268 287.148C261.387 273.866 245.559 256.956 245.559 256.956C245.559 256.956 229.448 272.76 232.718 282.273C236.961 294.619 266.955 322.005 269.693 300.039C270.333 294.912 268.07 292.054 266.268 287.148Z" fill="#FC7361"/>
<path d="M446.271 262.925L446.138 262.911L446.004 262.911L381.997 262.911L381.497 262.911L381.036 263.103L358.948 272.303L357.409 272.944L357.409 274.611L357.409 299.827L331.687 308.634L330.825 308.929L330.355 309.709L324.844 318.859L298.695 299.601L294.557 296.553L294.714 301.69L297.831 403.761L297.836 403.918L297.86 404.074L300.33 403.684C297.86 404.074 297.86 404.075 297.861 404.076L297.861 404.078L297.862 404.084L297.864 404.098L297.871 404.14C297.877 404.174 297.885 404.219 297.895 404.274C297.916 404.386 297.946 404.54 297.987 404.731C298.07 405.112 298.197 405.643 298.383 406.275C298.753 407.532 299.367 409.236 300.346 410.975C302.302 414.452 305.918 418.367 312.099 418.628L312.157 418.631L312.216 418.631L312.205 416.131C312.216 418.631 312.216 418.631 312.217 418.631L312.222 418.631L312.239 418.63L312.309 418.63L312.586 418.629L313.667 418.624L317.78 418.605C321.329 418.589 326.41 418.566 332.542 418.536C344.806 418.476 361.271 418.392 378.075 418.295C411.643 418.102 446.676 417.855 452.163 417.641C454.609 417.546 456.738 416.89 458.529 415.679C460.309 414.475 461.61 412.819 462.563 410.938C464.426 407.262 465.096 402.446 465.368 397.494L465.374 397.378L465.37 397.262C464.965 386.713 464.952 356.093 465.043 328.032C465.088 314.018 465.158 300.668 465.217 290.82C465.247 285.896 465.274 281.849 465.293 279.032C465.303 277.624 465.311 276.523 465.316 275.775L465.323 274.922L465.324 274.703L465.325 274.648L465.325 274.635L465.325 274.631C465.325 274.63 465.325 274.63 462.825 274.611L465.325 274.63L465.325 274.574L465.323 274.518C465.215 271.632 463.511 269.511 461.594 268.052C459.686 266.599 457.293 265.576 455.092 264.852C452.861 264.118 450.664 263.639 449.04 263.344C448.224 263.196 447.542 263.093 447.06 263.025C446.819 262.992 446.627 262.967 446.493 262.951C446.426 262.943 446.373 262.937 446.336 262.932L446.291 262.927L446.278 262.926L446.274 262.925L446.272 262.925C446.271 262.925 446.271 262.925 446.004 265.411L446.271 262.925Z" fill="white" fill-opacity="0.8" stroke="white" stroke-width="5"/>
<path d="M315.165 204.694L315.331 202.845L313.499 202.543L305.549 201.231L303.879 200.956L303.331 202.558L300.6 210.546L300.293 211.446L300.797 212.253L305.032 219.027L306.092 220.723L307.788 219.663L313.341 216.191L314.185 215.664L314.273 214.673L315.165 204.694Z" fill="white" fill-opacity="0.8" stroke="white" stroke-width="4"/>
<path d="M313.748 276.227L313.985 276.969L314.662 277.355L326.884 284.322L328.751 285.386L329.678 283.448L337.207 267.721L337.605 266.89L337.231 266.047L333.962 258.678L333.545 257.737L332.536 257.53L323.475 255.67L322.601 255.491L321.884 256.021L311.231 263.896L310.079 264.748L310.515 266.113L313.748 276.227Z" fill="white" fill-opacity="0.8" stroke="white" stroke-width="4"/>
<path d="M286.908 267.443L286.17 266.567L285.041 266.761L278.417 267.899L275.69 268.368L276.991 270.81L280.238 276.908L280.552 277.497L281.157 277.78L288.661 281.282L290.474 282.128L291.32 280.316L293.075 276.553L293.616 275.395L292.792 274.418L286.908 267.443Z" fill="white" fill-opacity="0.8" stroke="white" stroke-width="4"/>
<path d="M107.694 33.482C107.694 33.482 143.849 43.348 168.847 53.9934C193.849 64.6373 225.858 83.791 225.858 83.791C225.858 83.791 214.368 54.7449 175.836 38.3377C137.306 21.9338 107.694 33.482 107.694 33.482Z" fill="#C6C6C7"/>
<path d="M185.256 35.3239L135.859 145.979C134.198 149.699 129.817 151.42 126.068 149.824C122.32 148.228 120.629 143.922 122.289 140.202L171.687 29.5468L185.256 35.3239Z" fill="#9CE4F3"/>
<path d="M172.305 64.3642L158.715 58.5781L171.761 29.3531L185.352 35.1392L172.305 64.3642Z" fill="#FC7361"/>
<path d="M170.224 44.8103C169.662 46.0635 170.237 47.518 171.498 48.0547C172.764 48.5939 174.242 48.0134 174.803 46.7567C175.362 45.5051 174.79 44.0493 173.529 43.5123C172.263 42.9731 170.785 43.5536 170.224 44.8103Z" fill="white"/>
<path d="M417.931 246.277L415.25 246.72L415.625 244.028L416.566 237.282L416.777 235.765L418.297 235.574L428.514 234.288L430.327 234.06L430.717 235.845L431.541 239.607L431.886 241.18L430.423 241.852L422.646 245.427L422.402 245.54L422.136 245.584L417.931 246.277Z" fill="white" fill-opacity="0.8" stroke="white" stroke-width="4"/>
<path d="M258.172 379.853L258.918 378.1L257.039 377.786L253.792 377.244L252.882 377.092L252.336 377.835L250.27 380.647L249.763 381.337L250.1 382.124L251.145 384.572L251.734 385.951L253.114 385.362L255.876 384.182L256.431 383.945L256.667 383.39L258.172 379.853Z" fill="white" fill-opacity="0.8" stroke="white" stroke-width="3"/>
<path d="M264.023 415.616L262.561 417.908L260.808 415.83L256.417 410.625L255.429 409.454L256.302 408.196L262.169 399.733L263.21 398.231L264.799 399.133L268.149 401.033L269.55 401.827L269.073 403.364L266.54 411.54L266.46 411.797L266.315 412.024L264.023 415.616Z" fill="white" fill-opacity="0.8" stroke="white" stroke-width="4"/>
</svg>
