<svg width="51" height="59" viewBox="0 0 51 59" fill="none" xmlns="http://www.w3.org/2000/svg">
<path d="M12.75 33.6484V36.4141C12.75 37.1746 13.3647 37.7969 14.1161 37.7969H22.7679V46.5547C22.7679 47.3152 23.3826 47.9375 24.1339 47.9375H26.8661C27.6174 47.9375 28.2321 47.3152 28.2321 46.5547V37.7969H36.8839C37.6353 37.7969 38.25 37.1746 38.25 36.4141V33.6484C38.25 32.8879 37.6353 32.2656 36.8839 32.2656H28.2321V23.5078C28.2321 22.7473 27.6174 22.125 26.8661 22.125H24.1339C23.3826 22.125 22.7679 22.7473 22.7679 23.5078V32.2656H14.1161C13.3647 32.2656 12.75 32.8879 12.75 33.6484ZM9.53674e-07 12.9062V53.4688C9.53674e-07 56.5225 2.44755 59 5.46429 59H45.5357C48.5525 59 51 56.5225 51 53.4688V12.9062C51 9.85254 48.5525 7.375 45.5357 7.375H40.0714V1.38281C40.0714 0.622266 39.4567 0 38.7054 0H34.1518C33.4004 0 32.7857 0.622266 32.7857 1.38281V7.375H18.2143V1.38281C18.2143 0.622266 17.5996 0 16.8482 0H12.2946C11.5433 0 10.9286 0.622266 10.9286 1.38281V7.375H5.46429C2.44755 7.375 9.53674e-07 9.85254 9.53674e-07 12.9062ZM5.46429 52.7773V18.4375H45.5357V52.7773C45.5357 53.1576 45.2283 53.4688 44.8527 53.4688H6.14732C5.77165 53.4688 5.46429 53.1576 5.46429 52.7773Z" fill="white"/>
</svg>
