<svg width="855" height="220" viewBox="0 0 855 220" fill="none" xmlns="http://www.w3.org/2000/svg">
<path d="M104.727 17C107.947 17.7419 111.159 18.5246 114.388 19.2176C154.606 27.8189 184.446 60.447 189.273 101.204C192.273 126.502 185.954 149.33 171.002 169.819C170.048 171.131 168.988 172.387 167.839 173.528C164.61 176.732 159.604 177.018 156.441 174.254C153.057 171.294 152.487 166.778 155.12 162.84C157.607 159.122 160.476 155.641 162.686 151.776C179.864 121.643 176.358 85.5988 152.886 60.0231C130.783 35.9474 103.129 28.1125 72.0742 37.6758C41.998 46.9539 23.6783 68.4369 18.061 99.5077C10.4706 141.487 38.8347 181.795 80.5288 189.663C82.7871 190.087 85.0781 190.307 87.3446 190.649C92.1059 191.359 94.7557 193.935 95.0492 198.117C95.3753 202.724 93.3778 205.48 88.6002 207.094C88.2496 207.208 87.9806 207.542 87.6707 207.779C86.3174 207.779 84.964 207.779 83.6106 207.779C81.8577 207.265 80.1374 206.588 78.3519 206.262C27.9342 197.098 -6.1288 150.064 0.92349 99.3284C6.2229 61.1971 34.3831 29.6207 71.6095 20.1552C76.3789 18.9404 81.2299 18.0436 86.0402 17C92.269 17 98.4978 17 104.727 17Z" fill="white"/>
<path d="M151.337 112.071C150.823 81.506 126.25 56.6151 95.921 56.1423C72.1063 55.7754 49.971 71.4046 42.1768 94.1023C41.8262 95.1296 41.549 96.1813 41.1822 97.2004C39.3804 102.157 34.7984 104.62 30.3225 103.054C25.8954 101.505 23.6615 97.0455 25.2106 92.1701C34.0728 64.287 52.7593 46.6196 81.2457 40.8718C121.945 32.6536 160.403 60.1698 167.104 101.285C173.749 142.058 143.73 181.135 102.647 185.032C76.0686 187.559 54.5367 177.882 37.7009 157.353C33.8853 152.706 34.2277 147.969 38.133 144.757C42.2013 141.414 47.0034 142.156 50.8352 146.909C62.8771 161.829 78.4248 168.954 97.5434 168.694C122.312 168.351 146.559 147.235 150.187 122.581C150.692 119.083 150.953 115.569 151.337 112.071Z" fill="white"/>
<path d="M95.1556 162.938C68.7238 162.946 46.5315 142.384 44.7705 116.27C42.9932 89.9198 61.4595 66.6187 87.2799 62.5504C99.2566 60.6589 110.434 62.8765 120.813 68.9994C126.569 72.391 127.458 78.9052 122.998 82.9572C119.859 85.8107 116.688 85.8597 111.788 83.2344C99.7621 76.7855 87.8751 77.0056 76.4528 84.5389C63.8076 92.8793 58.5 108.541 63.1228 122.817C67.7781 137.207 80.9858 146.501 96.2074 146.094C111.005 145.702 123.683 135.56 127.539 121.031C129.333 114.281 133.067 111.321 138.211 112.569C143.242 113.792 145.524 118.251 144.122 124.138C138.684 146.966 118.53 162.938 95.1556 162.938Z" fill="white"/>
<path d="M95.375 84.5388C110.694 84.6041 123.201 97.3145 123.054 112.683C122.908 128.027 110.238 140.623 95 140.566C79.648 140.509 67.2393 127.97 67.2393 112.495C67.2311 96.7519 79.591 84.4736 95.375 84.5388ZM94.9103 123.665C100.919 123.754 106.129 118.765 106.3 112.748C106.471 106.739 101.066 101.163 95.0571 101.163C89.244 101.163 83.9039 106.519 83.8631 112.397C83.8223 118.398 88.8935 123.575 94.9103 123.665Z" fill="white"/>
<path d="M264.804 53.0707V111.571H252.804V53.0707H232.904V41.5707H284.704V53.0707H264.804ZM308.774 112.771C301.507 112.771 295.74 110.404 291.474 105.671C287.274 100.871 285.174 94.304 285.174 85.9707C285.174 77.704 287.307 71.204 291.574 66.4707C295.84 61.6707 301.574 59.2707 308.774 59.2707C315.307 59.2707 320.64 61.304 324.774 65.3707C328.974 69.4373 331.074 75.404 331.074 83.2707C331.074 86.004 330.94 88.404 330.674 90.4707H296.774C296.974 94.0707 298.207 96.9707 300.474 99.1707C302.807 101.371 305.574 102.471 308.774 102.471C313.307 102.471 316.907 100.704 319.574 97.1707L326.974 104.771C322.507 110.104 316.44 112.771 308.774 112.771ZM296.874 80.7707H319.474C319.207 77.104 318.074 74.3373 316.074 72.4707C314.074 70.5373 311.64 69.5707 308.774 69.5707C305.44 69.5707 302.674 70.504 300.474 72.3707C298.34 74.1707 297.14 76.9707 296.874 80.7707ZM363.345 112.771C356.345 112.771 350.778 110.404 346.645 105.671C342.578 100.937 340.545 94.404 340.545 86.0707C340.545 77.7373 342.578 71.204 346.645 66.4707C350.778 61.6707 356.345 59.2707 363.345 59.2707C373.878 59.2707 380.645 63.9707 383.645 73.3707L372.545 77.0707C370.878 72.6707 367.945 70.4707 363.745 70.4707C360.212 70.4707 357.445 71.8707 355.445 74.6707C353.445 77.4707 352.445 81.2707 352.445 86.0707C352.445 90.804 353.412 94.5707 355.345 97.3707C357.345 100.104 360.012 101.471 363.345 101.471C368.078 101.471 371.178 99.004 372.645 94.0707L383.845 97.4707C380.912 107.671 374.078 112.771 363.345 112.771ZM396.365 111.571V44.7707L408.065 39.3707V65.2707C411.399 61.2707 415.899 59.2707 421.565 59.2707C426.899 59.2707 431.232 60.9373 434.565 64.2707C437.965 67.604 439.665 72.904 439.665 80.1707V111.571H427.965V82.0707C427.965 74.2707 424.799 70.3707 418.465 70.3707C411.532 70.3707 408.065 74.204 408.065 81.8707V111.571H396.365ZM477.597 53.0707V111.571H465.597V53.0707H445.697V41.5707H497.497V53.0707H477.597ZM521.367 112.771C514.167 112.771 508.467 110.404 504.267 105.671C500.067 100.937 497.967 94.404 497.967 86.0707C497.967 77.7373 500.067 71.204 504.267 66.4707C508.467 61.6707 514.167 59.2707 521.367 59.2707C528.567 59.2707 534.267 61.6707 538.467 66.4707C542.733 71.204 544.867 77.7373 544.867 86.0707C544.867 94.404 542.767 100.937 538.567 105.671C534.367 110.404 528.633 112.771 521.367 112.771ZM521.367 101.571C525.033 101.571 527.9 100.204 529.967 97.4707C532.1 94.7373 533.167 90.9373 533.167 86.0707C533.167 81.204 532.1 77.3707 529.967 74.5707C527.9 71.7707 525.033 70.3707 521.367 70.3707C517.833 70.3707 515 71.804 512.867 74.6707C510.733 77.4707 509.667 81.2707 509.667 86.0707C509.667 90.8707 510.7 94.6707 512.767 97.4707C514.9 100.204 517.767 101.571 521.367 101.571ZM575.2 131.571L569 122.171C576 121.704 580.834 120.604 583.5 118.871C586.234 117.204 587.6 114.604 587.6 111.071V108.171C584.8 111.237 580.934 112.771 576 112.771C569.734 112.771 564.634 110.471 560.7 105.871C556.834 101.204 554.9 94.5707 554.9 85.9707C554.9 77.704 556.834 71.204 560.7 66.4707C564.634 61.6707 569.767 59.2707 576.1 59.2707C580.9 59.2707 584.734 60.704 587.6 63.5707V60.4707H599.3V106.471C599.3 114.937 597.467 121.071 593.8 124.871C590.2 128.671 584 130.904 575.2 131.571ZM578 101.571C582.2 101.571 585.4 99.904 587.6 96.5707V75.3707C585.267 72.0373 582.067 70.3707 578 70.3707C574.334 70.3707 571.5 71.704 569.5 74.3707C567.567 77.0373 566.6 80.904 566.6 85.9707C566.6 90.7707 567.6 94.5707 569.6 97.3707C571.6 100.171 574.4 101.571 578 101.571ZM635.434 112.771C628.167 112.771 622.401 110.404 618.134 105.671C613.934 100.871 611.834 94.304 611.834 85.9707C611.834 77.704 613.967 71.204 618.234 66.4707C622.501 61.6707 628.234 59.2707 635.434 59.2707C641.967 59.2707 647.301 61.304 651.434 65.3707C655.634 69.4373 657.734 75.404 657.734 83.2707C657.734 86.004 657.601 88.404 657.334 90.4707H623.434C623.634 94.0707 624.867 96.9707 627.134 99.1707C629.467 101.371 632.234 102.471 635.434 102.471C639.967 102.471 643.567 100.704 646.234 97.1707L653.634 104.771C649.167 110.104 643.101 112.771 635.434 112.771ZM623.534 80.7707H646.134C645.867 77.104 644.734 74.3373 642.734 72.4707C640.734 70.5373 638.301 69.5707 635.434 69.5707C632.101 69.5707 629.334 70.504 627.134 72.3707C625.001 74.1707 623.801 76.9707 623.534 80.7707ZM683.924 112.771C675.99 112.771 672.024 108.404 672.024 99.6707V70.6707H664.424V60.4707H672.024V44.9707L683.724 39.3707V60.4707H695.524V70.6707H683.724V97.3707C683.724 100.637 685.157 102.271 688.024 102.271C690.624 102.271 693.29 101.504 696.024 99.9707L694.624 110.471C691.69 112.004 688.124 112.771 683.924 112.771ZM707.498 111.571V44.7707L719.198 39.3707V65.2707C722.531 61.2707 727.031 59.2707 732.698 59.2707C738.031 59.2707 742.365 60.9373 745.698 64.2707C749.098 67.604 750.798 72.904 750.798 80.1707V111.571H739.098V82.0707C739.098 74.2707 735.931 70.3707 729.598 70.3707C722.665 70.3707 719.198 74.204 719.198 81.8707V111.571H707.498ZM786.411 112.771C779.144 112.771 773.377 110.404 769.111 105.671C764.911 100.871 762.811 94.304 762.811 85.9707C762.811 77.704 764.944 71.204 769.211 66.4707C773.477 61.6707 779.211 59.2707 786.411 59.2707C792.944 59.2707 798.277 61.304 802.411 65.3707C806.611 69.4373 808.711 75.404 808.711 83.2707C808.711 86.004 808.577 88.404 808.311 90.4707H774.411C774.611 94.0707 775.844 96.9707 778.111 99.1707C780.444 101.371 783.211 102.471 786.411 102.471C790.944 102.471 794.544 100.704 797.211 97.1707L804.611 104.771C800.144 110.104 794.077 112.771 786.411 112.771ZM774.511 80.7707H797.111C796.844 77.104 795.711 74.3373 793.711 72.4707C791.711 70.5373 789.277 69.5707 786.411 69.5707C783.077 69.5707 780.311 70.504 778.111 72.3707C775.977 74.1707 774.777 76.9707 774.511 80.7707ZM820.682 111.571V60.4707H832.382V65.7707C834.448 61.4373 837.948 59.2707 842.882 59.2707C846.482 59.2707 849.648 60.4373 852.382 62.7707L850.682 73.4707C848.148 71.6707 845.248 70.7707 841.982 70.7707C839.315 70.7707 837.048 71.704 835.182 73.5707C833.315 75.4373 832.382 78.5707 832.382 82.9707V111.571H820.682Z" fill="white"/>
<path d="M270.052 189.059C265.859 189.059 262.208 188.048 259.1 186.025C255.992 184.002 253.895 181.511 252.81 178.551L257.694 176.775C258.779 179.094 260.407 180.944 262.578 182.325C264.749 183.706 267.265 184.397 270.126 184.397C273.53 184.397 276.194 183.583 278.118 181.955C280.091 180.278 281.078 177.91 281.078 174.851C281.078 171.94 280.017 169.548 277.896 167.673C275.775 165.749 272.938 164.121 269.386 162.789C267.265 162 265.415 161.21 263.836 160.421C262.307 159.632 260.728 158.645 259.1 157.461C257.521 156.228 256.313 154.772 255.474 153.095C254.635 151.418 254.216 149.568 254.216 147.545C254.216 144.141 255.597 141.28 258.36 138.961C261.123 136.642 264.823 135.483 269.46 135.483C273.209 135.483 276.367 136.248 278.932 137.777C281.497 139.306 283.15 141.28 283.89 143.697L279.08 145.325C278.389 143.845 277.181 142.612 275.454 141.625C273.777 140.638 271.705 140.145 269.238 140.145C266.229 140.145 263.861 140.811 262.134 142.143C260.407 143.475 259.544 145.251 259.544 147.471C259.544 148.803 259.84 149.987 260.432 151.023C261.073 152.059 262.011 152.996 263.244 153.835C264.527 154.674 265.735 155.364 266.87 155.907C268.054 156.45 269.583 157.091 271.458 157.831C273.481 158.62 275.257 159.459 276.786 160.347C278.365 161.186 279.919 162.271 281.448 163.603C283.027 164.935 284.235 166.538 285.074 168.413C285.962 170.288 286.406 172.384 286.406 174.703C286.406 179.192 284.901 182.72 281.892 185.285C278.883 187.801 274.936 189.059 270.052 189.059ZM312.436 189.059C307.502 189.059 303.531 187.135 300.522 183.287C297.512 179.439 296.008 174.752 296.008 169.227C296.008 163.06 297.512 158.226 300.522 154.723C303.531 151.22 307.502 149.469 312.436 149.469C316.777 149.469 320.354 151.023 323.166 154.131C325.978 157.19 327.384 161.728 327.384 167.747C327.384 169.079 327.334 170.288 327.236 171.373H301.484C301.928 175.32 303.112 178.452 305.036 180.771C306.96 183.09 309.5 184.249 312.658 184.249C315.667 184.249 318.504 183.262 321.168 181.289L323.98 184.767C320.526 187.628 316.678 189.059 312.436 189.059ZM301.336 166.711H322.13C322.08 162.123 321.069 158.892 319.096 157.017C317.172 155.093 314.952 154.131 312.436 154.131C309.278 154.131 306.688 155.192 304.666 157.313C302.643 159.434 301.533 162.567 301.336 166.711ZM359.521 188.171V184.471C356.117 187.53 352.417 189.059 348.421 189.059C344.475 189.059 341.342 187.974 339.023 185.803C336.705 183.583 335.545 180.401 335.545 176.257C335.545 172.162 336.853 169.054 339.467 166.933C342.131 164.812 345.412 163.751 349.309 163.751C352.812 163.751 356.216 164.639 359.521 166.415V163.233C359.521 157.066 356.759 153.983 351.233 153.983C347.681 153.983 343.932 155.34 339.985 158.053L338.505 153.613C342.847 150.85 347.262 149.469 351.751 149.469C353.281 149.469 354.711 149.666 356.043 150.061C357.375 150.406 358.683 151.048 359.965 151.985C361.297 152.873 362.358 154.23 363.147 156.055C363.937 157.831 364.331 160.002 364.331 162.567V188.171H359.521ZM348.939 184.545C352.837 184.545 356.364 182.596 359.521 178.699V171.373C356.413 169.301 353.182 168.265 349.827 168.265C347.114 168.265 344.845 168.956 343.019 170.337C341.243 171.669 340.355 173.642 340.355 176.257C340.355 178.773 341.095 180.796 342.575 182.325C344.105 183.805 346.226 184.545 348.939 184.545ZM385.611 189.059C380.628 189.059 378.137 186.173 378.137 180.401V155.019H371.699V150.357H378.137V137.333L383.317 134.743V150.357H392.937V155.019H383.317V178.181C383.317 180.105 383.588 181.585 384.131 182.621C384.673 183.657 385.759 184.175 387.387 184.175C389.015 184.175 390.914 183.435 393.085 181.955L392.493 187.357C390.371 188.492 388.077 189.059 385.611 189.059ZM412.927 189.059C407.944 189.059 405.453 186.173 405.453 180.401V155.019H399.015V150.357H405.453V137.333L410.633 134.743V150.357H420.253V155.019H410.633V178.181C410.633 180.105 410.904 181.585 411.447 182.621C411.99 183.657 413.075 184.175 414.703 184.175C416.331 184.175 418.23 183.435 420.401 181.955L419.809 187.357C417.688 188.492 415.394 189.059 412.927 189.059ZM431.141 188.171V137.259L436.321 134.743V188.171H431.141ZM463.832 189.059C458.899 189.059 454.927 187.135 451.918 183.287C448.909 179.439 447.404 174.752 447.404 169.227C447.404 163.06 448.909 158.226 451.918 154.723C454.927 151.22 458.899 149.469 463.832 149.469C468.173 149.469 471.75 151.023 474.562 154.131C477.374 157.19 478.78 161.728 478.78 167.747C478.78 169.079 478.731 170.288 478.632 171.373H452.88C453.324 175.32 454.508 178.452 456.432 180.771C458.356 183.09 460.897 184.249 464.054 184.249C467.063 184.249 469.9 183.262 472.564 181.289L475.376 184.767C471.923 187.628 468.075 189.059 463.832 189.059ZM452.732 166.711H473.526C473.477 162.123 472.465 158.892 470.492 157.017C468.568 155.093 466.348 154.131 463.832 154.131C460.675 154.131 458.085 155.192 456.062 157.313C454.039 159.434 452.929 162.567 452.732 166.711Z" fill="white"/>
</svg>
